<?xml version="1.0" encoding="utf-8"?>
<svg viewBox="0 0 500 500" xmlns="http://www.w3.org/2000/svg" xmlns:bx="https://boxy-svg.com">
  <defs>
    <bx:guide x="250.265" y="19.176" angle="0"/>
    <bx:guide x="471.748" y="13.433" angle="0"/>
    <bx:guide x="32.226" y="15.752" angle="0"/>
    <bx:guide x="234.265" y="377.716" angle="90"/>
    <bx:guide x="12.527" y="31.169" angle="90"/>
    <bx:guide x="211.847" y="314.831" angle="90"/>
    <linearGradient gradientUnits="userSpaceOnUse" x1="250.182" y1="18.909" x2="250.182" y2="110.026" id="gradient-0" gradientTransform="matrix(1, 0, 0, 0.906054, -0.028329, 7.019687)">
      <stop offset="0" style="stop-color: rgba(96, 51, 242, 1)"/>
      <stop offset="1" style="stop-color: rgba(51, 11, 180, 1)"/>
    </linearGradient>
    <linearGradient gradientUnits="userSpaceOnUse" x1="255.749" y1="9.873" x2="255.749" y2="26.443" id="gradient-3">
      <stop offset="0" style="stop-color: rgba(216, 216, 216, 1)"/>
      <stop offset="1" style="stop-color: rgba(165, 165, 165, 1)"/>
    </linearGradient>
    <linearGradient gradientUnits="userSpaceOnUse" x1="255.749" y1="9.873" x2="255.749" y2="26.443" id="gradient-1">
      <stop offset="0" style="stop-color: rgba(216, 216, 216, 1)"/>
      <stop offset="1" style="stop-color: rgba(165, 165, 165, 1)"/>
    </linearGradient>
    <linearGradient gradientUnits="userSpaceOnUse" x1="251.421" y1="31.076" x2="251.421" y2="379.279" id="gradient-2">
      <stop offset="0" style="stop-color: rgba(99, 242, 106, 1)"/>
      <stop offset="1" style="stop-color: rgba(18, 221, 29, 1)"/>
    </linearGradient>
    <bx:guide x="196.463" y="87.417" angle="90"/>
    <bx:guide x="202.575" y="46.664" angle="90"/>
    <linearGradient gradientUnits="userSpaceOnUse" x1="297.154" y1="46.664" x2="297.154" y2="87.417" id="gradient-4" gradientTransform="matrix(1, 0, 0, 1, 3.230281, -0.000032)">
      <stop offset="0" style="stop-color: rgba(96, 51, 242, 1)"/>
      <stop offset="1" style="stop-color: rgba(51, 11, 180, 1)"/>
    </linearGradient>
    <linearGradient gradientUnits="userSpaceOnUse" x1="177.421" y1="47.301" x2="177.421" y2="86.814" id="gradient-5" gradientTransform="matrix(1, 0, 0, 1, 17.671419, -0.636999)">
      <stop offset="0" style="stop-color: rgba(96, 51, 242, 1)"/>
      <stop offset="1" style="stop-color: rgba(51, 11, 180, 1)"/>
    </linearGradient>
    <linearGradient gradientUnits="userSpaceOnUse" x1="38.406" y1="191.591" x2="38.406" y2="249.478" id="gradient-6" gradientTransform="matrix(0.704009, 0, 0, 0.704009, 303.645856, 35.332212)">
      <stop offset="0" style="stop-color: rgba(96, 51, 242, 1)"/>
      <stop offset="1" style="stop-color: rgba(51, 11, 180, 1)"/>
    </linearGradient>
    <linearGradient gradientUnits="userSpaceOnUse" x1="346.799" y1="441.089" x2="346.799" y2="474.483" id="gradient-8" gradientTransform="matrix(1, 0, 0, 1, 75.463989, -115.963114)">
      <stop offset="0" style="stop-color: rgba(96, 51, 242, 1)"/>
      <stop offset="1" style="stop-color: rgba(51, 11, 180, 1)"/>
    </linearGradient>
    <linearGradient gradientUnits="userSpaceOnUse" x1="281.221" y1="442.814" x2="281.221" y2="480.373" id="gradient-9" gradientTransform="matrix(1, 0, 0, 1, 37.55899, -118.263947)">
      <stop offset="0" style="stop-color: rgba(96, 51, 242, 1)"/>
      <stop offset="1" style="stop-color: rgba(51, 11, 180, 1)"/>
    </linearGradient>
    <linearGradient gradientUnits="userSpaceOnUse" x1="188.45" y1="445.474" x2="188.45" y2="475.719" id="gradient-10" gradientTransform="matrix(1.307007, 0, 0, 1.307007, -1.301079, -275.284458)">
      <stop offset="0" style="stop-color: rgba(96, 51, 242, 1)"/>
      <stop offset="1" style="stop-color: rgba(51, 11, 180, 1)"/>
    </linearGradient>
    <linearGradient gradientUnits="userSpaceOnUse" x1="190.802" y1="389.892" x2="190.802" y2="423.898" id="gradient-11" gradientTransform="matrix(1.198395, 0, 0, 1.198395, 82.120191, -222.554686)">
      <stop offset="0" style="stop-color: rgba(96, 51, 242, 1)"/>
      <stop offset="1" style="stop-color: rgba(51, 11, 180, 1)"/>
    </linearGradient>
    <linearGradient gradientUnits="userSpaceOnUse" x1="270.095" y1="387.62" x2="270.095" y2="440.548" id="gradient-12" gradientTransform="matrix(1, 0, 0, 1, 164.825569, -164.803766)">
      <stop offset="0" style="stop-color: rgba(96, 51, 242, 1)"/>
      <stop offset="1" style="stop-color: rgba(51, 11, 180, 1)"/>
    </linearGradient>
    <linearGradient gradientUnits="userSpaceOnUse" x1="118.162" y1="388.071" x2="118.162" y2="424.387" id="gradient-13" gradientTransform="matrix(1.122176, 0, 0, 1.122176, 24.472397, -269.960831)">
      <stop offset="0" style="stop-color: rgba(96, 51, 242, 1)"/>
      <stop offset="1" style="stop-color: rgba(51, 11, 180, 1)"/>
    </linearGradient>
    <linearGradient gradientUnits="userSpaceOnUse" x1="120.95" y1="442.372" x2="120.95" y2="479.036" id="gradient-14" gradientTransform="matrix(1.111528, 0, 0, 1.111528, 18.366264, -165.158339)">
      <stop offset="0" style="stop-color: rgba(96, 51, 242, 1)"/>
      <stop offset="1" style="stop-color: rgba(51, 11, 180, 1)"/>
    </linearGradient>
    <linearGradient gradientUnits="userSpaceOnUse" x1="36.48" y1="450.888" x2="36.48" y2="487.539" id="gradient-15" gradientTransform="matrix(1.11192, 0, 0, 1.11192, 130.805261, -257.446217)">
      <stop offset="0" style="stop-color: rgba(96, 51, 242, 1)"/>
      <stop offset="1" style="stop-color: rgba(51, 11, 180, 1)"/>
    </linearGradient>
    <linearGradient gradientUnits="userSpaceOnUse" x1="43.482" y1="400" x2="43.482" y2="432.694" id="gradient-16" gradientTransform="matrix(1.246498, 0, 0, 1.246498, 12.136808, -366.730957)">
      <stop offset="0" style="stop-color: rgba(96, 51, 242, 1)"/>
      <stop offset="1" style="stop-color: rgba(51, 11, 180, 1)"/>
    </linearGradient>
    <linearGradient gradientUnits="userSpaceOnUse" x1="38.474" y1="347.945" x2="38.474" y2="383.096" id="gradient-17" gradientTransform="matrix(1.159369, 0, 0, 1.159369, 21.487088, -177.946751)">
      <stop offset="0" style="stop-color: rgba(96, 51, 242, 1)"/>
      <stop offset="1" style="stop-color: rgba(51, 11, 180, 1)"/>
    </linearGradient>
    <linearGradient gradientUnits="userSpaceOnUse" x1="31.326" y1="300" x2="31.326" y2="338.163" id="gradient-18" gradientTransform="matrix(1.067867, 0, 0, 1.067867, 37.53633, 0.608353)">
      <stop offset="0" style="stop-color: rgba(96, 51, 242, 1)"/>
      <stop offset="1" style="stop-color: rgba(51, 11, 180, 1)"/>
    </linearGradient>
    <linearGradient gradientUnits="userSpaceOnUse" x1="30.509" y1="244.73" x2="30.509" y2="283.827" id="gradient-19" gradientTransform="matrix(1.042356, 0, 0, 1.042356, 404.992138, -128.183754)">
      <stop offset="0" style="stop-color: rgba(96, 51, 242, 1)"/>
      <stop offset="1" style="stop-color: rgba(51, 11, 180, 1)"/>
    </linearGradient>
    <linearGradient gradientUnits="userSpaceOnUse" x1="31.169" y1="194.321" x2="31.169" y2="234.588" id="gradient-20" gradientTransform="matrix(1, 0, 0, 1, 218.162857, -69.002177)">
      <stop offset="0" style="stop-color: rgba(96, 51, 242, 1)"/>
      <stop offset="1" style="stop-color: rgba(51, 11, 180, 1)"/>
    </linearGradient>
    <linearGradient gradientUnits="userSpaceOnUse" x1="122.727" y1="46.664" x2="122.727" y2="87.417" id="gradient-7" gradientTransform="matrix(1, 0, 0, 1, -34.011093, -0.000002)">
      <stop offset="0" style="stop-color: rgba(96, 51, 242, 1)"/>
      <stop offset="1" style="stop-color: rgba(51, 11, 180, 1)"/>
    </linearGradient>
    <linearGradient gradientUnits="userSpaceOnUse" x1="395.54" y1="46.664" x2="395.54" y2="87.417" id="gradient-21">
      <stop offset="0" style="stop-color: rgba(96, 51, 242, 1)"/>
      <stop offset="1" style="stop-color: rgba(51, 11, 180, 1)"/>
    </linearGradient>
  </defs>
  <g style="pointer-events: none; visibility: hidden;">
    <path style="stroke: rgb(0, 0, 0); fill: none;" d="M 32.226 81.181 C 30.907 60.825 54.662 29.352 87.874 31.169 C 178.139 36.106 334.72 32.703 425.231 31.169 C 456.432 30.64 473.555 54.297 471.748 88.218 C 467.279 172.138 469.908 248.063 471.748 331.836 C 472.36 359.707 450.378 377.716 421.979 377.716 C 371.268 377.716 358.612 377.716 330.47 377.716 C 287.772 377.716 270.364 372.823 250.265 360.607 C 213.068 337.998 176.553 314.831 150.747 280.263 C 133.506 257.167 122.667 221.691 122.859 200 C 123.388 140.168 176.778 119.421 250.265 119.185 C 322.539 118.952 365.729 135.944 363.914 200 C 362.463 251.205 353.574 270.532 339.803 287.382 C 317.228 315.004 298.741 322.215 242.734 357.841 C 222.696 370.587 186.99 377.716 154.883 377.716 C 133.88 377.716 108.153 377.716 85.034 377.716 C 62.192 377.716 29.062 367.546 32.226 329.468 C 41.417 218.844 30.267 167.452 32.226 81.181 Z"/>
    <path style="stroke: rgb(0, 0, 0); fill: none;" d="M 100 134.445 C 99.052 122.792 105.675 98.96 129.529 100 C 194.362 102.825 296.506 100.877 361.515 100 C 383.924 99.696 401.298 108.969 400 128.386 C 396.791 176.423 400 225.083 400 273.054 C 400 303.35 391.219 314.831 366.962 314.831 C 346.657 314.831 343.515 314.831 324.54 314.831 C 307.226 314.831 286.198 309.414 262.238 300 C 228.397 286.704 214.79 268.999 200 238.884 C 193.104 224.844 197.062 209.514 200 200 C 205.159 183.294 228.897 167.921 250.265 167.921 C 270.806 167.921 293.396 184.198 300 200 C 305.519 213.204 303.44 226.676 300 236.822 C 288.897 269.571 265.808 280.647 238.708 294.667 C 213.222 307.852 183.806 314.916 167.075 314.831 C 152.006 314.754 136.233 314.831 122.276 314.831 C 94.732 314.831 98.212 293.846 100 272.022 C 104.192 220.878 98.593 183.828 100 134.445 Z" bx:origin="0.452 0.574"/>
  </g>
  <path style="stroke: rgb(0, 0, 0); paint-order: stroke; fill: url(#gradient-2);" d="M 244.902 290.818 C 244.902 290.818 260.221 303.304 298.108 311.634 C 354.015 266.289 362.624 227.955 362.624 194.945 C 362.624 132.166 295.349 118.919 249.265 118.772 C 203.181 118.625 121.459 127.848 121.459 195.297 C 121.459 261.983 173.36 307.729 173.36 307.729 C 173.36 307.729 242.422 375.699 319.098 377.337 C 395.774 378.975 416.313 377.706 431.724 377.592 C 447.135 377.478 472.488 364.282 472.159 328.727 C 471.83 293.172 465.668 148.003 470.965 89.586 C 476.262 31.169 442.372 30.824 408.877 31.41 C 375.382 31.996 109.694 32.294 93.499 31.169 C 77.304 30.044 32.194 38.644 31.226 81.712 C 30.258 124.78 36.941 285.327 31.226 328.404 C 25.511 371.481 66.124 377.72 85.896 378.911 C 105.668 380.102 156.087 378.051 165.016 377.716 C 173.945 377.381 211.014 377.716 242.222 358.789 C 216.562 344.523 203.416 337.022 177.887 314.831 C 127.017 314.831 90.298 325.793 100 280.25 C 105.976 221.989 100 153.869 100 132.939 C 100 115.824 100 100 138.013 100 C 183.189 100 308.615 100 369.365 100 C 400 100 402.724 126.38 402.746 131.998 C 402.87 163.648 400 236.385 400 280.444 C 400 324.503 332.885 319.672 303.68 314.831 C 274.475 309.99 248.051 297.399 233.843 285.622 C 219.635 273.845 194.982 253.594 194.982 216.473 C 194.982 198.676 204.338 168.135 249.265 168.135 C 294.853 168.135 303.042 194.575 303.042 216.597 C 303.042 276.34 242.113 288.899 244.902 290.818 Z"/>
  <path d="M 175.335 83.354 C 175.335 84.916 176.597 86.177 178.158 86.177 L 212.026 86.177 C 213.587 86.177 214.848 84.916 214.848 83.354 L 214.848 57.953 L 175.335 57.953 L 175.335 83.354 Z M 189.447 64.656 C 189.447 64.074 189.924 63.598 190.505 63.598 L 199.678 63.598 C 200.26 63.598 200.736 64.074 200.736 64.656 L 200.736 65.362 C 200.736 65.944 200.26 66.42 199.678 66.42 L 190.505 66.42 C 189.924 66.42 189.447 65.944 189.447 65.362 L 189.447 64.656 Z M 214.848 46.664 L 175.335 46.664 C 173.774 46.664 172.513 47.925 172.513 49.486 L 172.513 53.72 C 172.513 54.496 173.148 55.131 173.924 55.131 L 216.259 55.131 C 217.036 55.131 217.671 54.496 217.671 53.72 L 217.671 49.486 C 217.671 47.925 216.41 46.664 214.848 46.664 Z" style="vector-effect: non-scaling-stroke; stroke: rgb(186, 218, 85); fill: url(#gradient-5);"/>
  <rect x="242.485" y="24.152" width="15.338" height="82.557" style="fill: url(#gradient-0);"/>
  <circle style="fill: url(#gradient-3);" cx="255.749" cy="18.158" r="8.285" transform="matrix(1, 0, 0, 0.57525, -5.586909, 14.378909)"/>
  <circle style="fill: url(#gradient-1);" cx="255.749" cy="18.158" r="8.285" transform="matrix(1, 0, 0, 0.57525, -5.911069, 95.791069)"/>
  <path d="M 291.534 48.018 C 290.634 46.601 288.573 46.204 287.236 47.27 C 282.818 50.796 280.009 56.057 280.009 61.947 L 300.385 61.947 L 291.534 48.018 Z M 319.487 54.306 L 315.666 54.306 C 312.857 54.306 310.573 56.59 310.573 59.4 L 310.573 64.494 L 280.009 64.494 C 280.009 68.521 281.84 72.167 284.808 74.897 C 282.055 75.605 280.009 78.08 280.009 81.049 C 280.009 84.568 282.858 87.417 286.376 87.417 C 289.894 87.417 292.744 84.568 292.744 81.049 C 292.744 80.341 292.601 79.68 292.394 79.043 C 294.113 79.513 295.944 79.776 297.838 79.776 C 299.732 79.776 301.57 79.513 303.281 79.043 C 303.067 79.68 302.931 80.341 302.931 81.049 C 302.931 84.568 305.781 87.417 309.299 87.417 C 312.817 87.417 315.666 84.568 315.666 81.049 C 315.666 78.08 313.621 75.605 310.867 74.897 C 313.835 72.167 315.666 68.521 315.666 64.494 L 315.666 59.4 L 319.487 59.4 C 320.187 59.4 320.76 58.827 320.76 58.126 L 320.76 55.58 C 320.76 54.879 320.187 54.306 319.487 54.306 Z M 286.376 83.596 C 284.975 83.596 283.83 82.45 283.83 81.049 C 283.83 79.648 284.975 78.502 286.376 78.502 C 287.777 78.502 288.923 79.648 288.923 81.049 C 288.923 82.45 287.777 83.596 286.376 83.596 Z M 311.846 81.049 C 311.846 82.45 310.7 83.596 309.299 83.596 C 307.898 83.596 306.752 82.45 306.752 81.049 C 306.752 79.648 307.898 78.502 309.299 78.502 C 310.7 78.502 311.846 79.648 311.846 81.049 Z" style="paint-order: fill; stroke: rgb(186, 218, 85); fill: url(#gradient-4);"/>
  <path d="M 390.445 73.408 L 390.444 73.408 C 390.444 72.12 390.55 72.713 383.674 58.961 C 382.269 56.152 378.246 56.146 376.839 58.961 C 369.905 72.831 370.07 72.161 370.07 73.408 L 370.069 73.408 C 370.069 76.925 374.63 79.776 380.257 79.776 C 385.884 79.776 390.445 76.925 390.445 73.408 Z M 380.257 60.673 L 385.988 72.135 L 374.526 72.135 L 380.257 60.673 Z M 421.008 73.408 C 421.008 72.12 421.115 72.713 414.239 58.961 C 412.834 56.152 408.811 56.146 407.404 58.961 C 400.47 72.831 400.635 72.161 400.635 73.408 L 400.634 73.408 C 400.634 76.925 405.195 79.776 410.822 79.776 C 416.448 79.776 421.01 76.925 421.01 73.408 L 421.008 73.408 Z M 405.091 72.135 L 410.822 60.673 L 416.553 72.135 L 405.091 72.135 Z M 412.095 82.323 L 398.086 82.323 L 398.086 58.862 C 399.958 58.043 401.363 56.356 401.779 54.305 L 412.095 54.305 C 412.799 54.305 413.369 53.735 413.369 53.032 L 413.369 50.485 C 413.369 49.781 412.799 49.211 412.095 49.211 L 400.605 49.211 C 399.443 47.673 397.616 46.664 395.539 46.664 C 393.463 46.664 391.636 47.673 390.474 49.211 L 378.983 49.211 C 378.28 49.211 377.71 49.781 377.71 50.485 L 377.71 53.032 C 377.71 53.735 378.28 54.305 378.983 54.305 L 389.3 54.305 C 389.716 56.355 391.12 58.043 392.992 58.862 L 392.992 82.323 L 378.983 82.323 C 378.28 82.323 377.71 82.893 377.71 83.596 L 377.71 86.143 C 377.71 86.847 378.28 87.417 378.983 87.417 L 412.095 87.417 C 412.799 87.417 413.369 86.847 413.369 86.143 L 413.369 83.596 C 413.369 82.893 412.799 82.323 412.095 82.323 Z" style="stroke: rgb(186, 218, 85); fill: url(#gradient-21);"/>
  <path d="M 106.545 75.191 L 106.545 48.701 C 106.545 47.428 105.781 46.664 104.507 46.664 L 78.527 46.664 C 74.197 46.664 70.886 49.975 70.886 54.305 L 70.886 79.776 C 70.886 84.106 74.197 87.417 78.527 87.417 L 104.507 87.417 C 105.526 87.417 106.545 86.653 106.545 85.38 L 106.545 84.106 C 106.545 83.597 106.29 83.087 105.781 82.578 C 105.526 81.304 105.526 77.738 105.781 76.72 C 106.29 76.465 106.545 75.955 106.545 75.191 Z M 82.348 58.126 C 82.348 57.422 82.918 56.852 83.621 56.852 L 87.442 56.852 L 87.442 53.031 C 87.442 52.328 88.012 51.758 88.716 51.758 L 91.263 51.758 C 91.966 51.758 92.536 52.328 92.536 53.031 L 92.536 56.852 L 96.357 56.852 C 97.06 56.852 97.631 57.422 97.631 58.126 L 97.631 60.673 C 97.631 61.377 97.06 61.946 96.357 61.946 L 92.536 61.946 L 92.536 70.861 C 92.536 71.565 91.966 72.135 91.263 72.135 L 88.716 72.135 C 88.012 72.135 87.442 71.565 87.442 70.861 L 87.442 61.946 L 83.621 61.946 C 82.918 61.946 82.348 61.377 82.348 60.673 L 82.348 58.126 Z M 101.196 82.323 L 78.527 82.323 C 76.999 82.323 75.98 81.304 75.98 79.776 C 75.98 78.248 77.254 77.229 78.527 77.229 L 101.196 77.229 L 101.196 82.323 Z" style="stroke: rgb(186, 218, 85); fill: url(#gradient-7);"/>
  <path d="M 327.75 170.403 C 324.151 170.921 320.668 172.383 317.71 174.823 L 324.069 181.183 C 326.353 178.241 327.627 174.511 327.75 170.403 Z M 330.684 187.797 L 343.657 174.823 C 340.173 171.947 335.967 170.427 331.703 170.214 C 331.604 175.465 329.935 180.262 326.879 183.993 L 330.684 187.797 Z M 314.916 177.617 C 312.476 180.575 311.014 184.058 310.496 187.657 C 314.604 187.534 318.343 186.26 321.276 183.976 L 314.916 177.617 Z M 337.281 194.395 C 341.003 191.346 345.802 189.678 351.06 189.571 C 350.847 185.307 349.326 181.101 346.451 177.617 L 333.477 190.59 L 337.281 194.395 Z M 330.684 193.384 L 317.71 206.358 C 321.194 209.225 325.4 210.754 329.664 210.967 C 329.771 205.709 331.439 200.91 334.488 197.188 L 330.684 193.384 Z M 346.451 203.564 C 348.891 200.606 350.353 197.123 350.871 193.524 C 346.755 193.655 343.024 194.928 340.091 197.204 L 346.451 203.564 Z M 324.086 186.786 C 320.355 189.842 315.558 191.519 310.307 191.61 C 310.52 195.874 312.04 200.08 314.916 203.564 L 327.89 190.59 L 324.086 186.786 Z M 333.617 210.778 C 337.216 210.26 340.699 208.798 343.657 206.358 L 337.297 199.998 C 335.022 202.931 333.748 206.67 333.617 210.778 Z" style="stroke: rgb(186, 218, 85); fill: url(#gradient-6);"/>
  <path d="M 274.916 137.062 L 268.638 137.062 L 266.894 132.701 C 265.1 128.215 260.821 125.318 255.99 125.318 L 242.672 125.318 C 237.843 125.318 233.562 128.215 231.768 132.701 L 230.024 137.062 L 223.746 137.062 C 222.927 137.062 222.327 137.832 222.526 138.626 L 223.155 141.143 C 223.295 141.703 223.798 142.096 224.376 142.096 L 226.48 142.096 C 225.072 143.326 224.165 145.114 224.165 147.129 L 224.165 152.162 C 224.165 153.853 224.811 155.378 225.842 156.559 L 225.842 162.229 C 225.842 164.082 227.345 165.585 229.198 165.585 L 232.554 165.585 C 234.407 165.585 235.909 164.082 235.909 162.229 L 235.909 158.873 L 262.753 158.873 L 262.753 162.229 C 262.753 164.082 264.256 165.585 266.109 165.585 L 269.465 165.585 C 271.318 165.585 272.82 164.082 272.82 162.229 L 272.82 156.559 C 273.852 155.38 274.498 153.854 274.498 152.162 L 274.498 147.129 C 274.498 145.114 273.591 143.326 272.184 142.096 L 274.288 142.096 C 274.866 142.096 275.369 141.703 275.509 141.143 L 276.138 138.626 C 276.336 137.832 275.735 137.062 274.916 137.062 Z M 237.999 135.193 C 238.763 133.282 240.614 132.029 242.672 132.029 L 255.99 132.029 C 258.049 132.029 259.899 133.282 260.664 135.193 L 262.753 140.418 L 235.909 140.418 L 237.999 135.193 Z M 232.554 152.142 C 230.54 152.142 229.198 150.803 229.198 148.797 C 229.198 146.789 230.54 145.452 232.554 145.452 C 234.567 145.452 237.587 148.462 237.587 150.469 C 237.587 152.476 234.567 152.142 232.554 152.142 Z M 266.109 152.142 C 264.096 152.142 261.076 152.476 261.076 150.469 C 261.076 148.462 264.096 145.452 266.109 145.452 C 268.122 145.452 269.465 146.789 269.465 148.797 C 269.465 150.803 268.122 152.142 266.109 152.142 Z" style="stroke: rgb(186, 218, 85); fill: url(#gradient-20);"/>
  <path d="M 457.103 152.83 C 457.12 152.679 457.167 152.536 457.167 152.385 C 457.167 149.576 454.883 147.292 452.074 147.292 C 451.071 147.292 450.147 147.594 449.36 148.087 C 447.959 145 444.864 142.835 441.251 142.835 C 436.332 142.835 432.338 146.822 432.338 151.748 C 432.338 151.987 432.393 152.21 432.41 152.44 C 428.462 152.735 425.334 155.998 425.334 160.025 C 425.334 164.243 428.756 167.665 432.974 167.665 L 454.62 167.665 C 458.839 167.665 462.26 164.243 462.26 160.025 C 462.26 156.674 460.096 153.865 457.103 152.83 Z M 422.851 151.032 C 419.374 147.555 419.374 141.904 422.851 138.434 C 426.33 134.957 431.979 134.957 435.457 138.434 C 436.229 139.207 436.802 140.098 437.232 141.037 C 438.012 140.743 438.832 140.56 439.675 140.44 L 442.046 133.365 C 442.364 132.418 441.466 131.527 440.519 131.837 L 433.531 134.169 L 430.229 127.58 C 429.791 126.689 428.519 126.689 428.072 127.58 L 424.777 134.169 L 417.782 131.837 C 416.843 131.527 415.944 132.426 416.254 133.365 L 418.586 140.352 L 411.996 143.655 C 411.106 144.1 411.106 145.366 411.996 145.812 L 418.586 149.107 L 416.254 156.094 C 415.936 157.04 416.835 157.931 417.782 157.622 L 423.838 155.608 C 424.324 154.621 424.953 153.721 425.717 152.942 C 424.674 152.512 423.696 151.876 422.851 151.032 Z M 422.47 144.729 C 422.47 147.976 424.801 150.682 427.873 151.279 C 428.51 150.905 429.17 150.579 429.879 150.347 C 430.308 146.822 432.346 143.783 435.243 141.992 C 434.192 139.676 431.86 138.053 429.154 138.053 C 425.47 138.053 422.47 141.045 422.47 144.729 Z" style="stroke: rgb(186, 218, 85); fill: url(#gradient-19);"/>
  <path d="M 91.364 341.344 C 91.364 352.598 82.242 361.721 70.988 361.721 C 59.734 361.721 50.612 352.598 50.612 341.344 C 50.612 330.091 59.734 320.968 70.988 320.968 C 82.242 320.968 91.364 330.091 91.364 341.344 Z M 87.42 341.344 L 87.42 341.322 L 85.279 343.189 L 80.129 338.383 L 81.481 331.452 L 84.299 331.704 C 82.254 328.894 79.369 326.768 76.024 325.695 L 77.146 328.32 L 70.988 331.731 L 64.83 328.32 L 65.952 325.695 C 62.613 326.765 59.725 328.888 57.677 331.704 L 60.516 331.452 L 61.847 338.383 L 56.698 343.189 L 54.556 341.322 L 54.556 341.344 C 54.556 344.879 55.664 348.242 57.717 351.039 L 58.35 348.253 L 65.344 349.112 L 68.327 355.506 L 65.87 356.968 C 69.174 358.045 72.796 358.048 76.106 356.968 L 73.649 355.506 L 76.631 349.112 L 83.626 348.253 L 84.259 351.039 C 86.312 348.242 87.42 344.879 87.42 341.344 Z M 67.036 347.06 L 64.58 339.557 L 70.988 334.913 L 77.396 339.557 L 74.963 347.06 L 67.036 347.06 Z" style="stroke: rgb(186, 218, 85); fill: url(#gradient-18);"/>
  <path d="M 86.298 251.914 L 80.733 238.835 C 79.547 235.555 76.721 233.183 73.329 232.53 C 74.763 231.686 77.016 229.672 76.052 225.979 C 75.948 225.58 75.487 225.349 75.097 225.493 L 59 231.519 C 48.572 235.269 45.714 244.463 45.714 257.192 L 45.714 263.656 C 45.714 265.066 46.853 266.203 48.261 266.203 L 67.065 266.203 C 68.959 266.203 70.193 264.214 69.341 262.517 L 66.093 256.014 L 66.093 255.959 C 62.463 255.679 59.359 253.515 57.79 250.417 C 57.662 250.171 57.719 249.869 57.918 249.677 L 58.881 248.714 C 59.192 248.403 59.725 248.499 59.908 248.905 C 61.086 251.588 63.745 253.474 66.866 253.474 C 68.235 253.474 69.493 253.069 70.591 252.424 L 74.253 257.51 C 74.731 258.179 75.503 258.57 76.323 258.57 L 80.327 258.57 C 81.004 258.57 81.649 258.298 82.126 257.821 L 85.732 254.652 C 86.441 253.928 86.664 252.854 86.298 251.914 Z M 71.825 243.276 C 70.767 243.276 69.915 242.425 69.915 241.366 C 69.915 240.307 70.767 239.455 71.825 239.455 C 72.884 239.455 73.736 240.307 73.736 241.366 C 73.736 242.425 72.884 243.276 71.825 243.276 Z" style="stroke: rgb(186, 218, 85); fill: url(#gradient-17);"/>
  <path d="M 92.961 160.859 L 92.114 160.186 C 91.487 159.686 90.567 159.786 90.068 160.414 L 89.158 161.551 C 88.658 162.178 88.757 163.097 89.386 163.598 L 90.231 164.271 C 90.768 164.698 91.068 165.335 91.068 166.017 C 91.068 167.254 90.068 168.255 88.831 168.255 L 41.592 168.255 C 40.792 168.255 40.137 168.91 40.137 169.71 L 40.137 171.165 C 40.137 171.967 40.792 172.621 41.592 172.621 L 88.531 172.621 C 92.078 172.621 95.234 169.956 95.435 166.408 C 95.562 164.243 94.643 162.197 92.961 160.859 Z M 40.137 149.334 C 40.137 154.755 43.857 159.267 48.87 160.569 L 48.87 165.344 L 54.692 165.344 L 54.692 160.977 L 72.157 160.977 L 72.157 165.344 L 77.979 165.344 L 77.979 160.977 C 82.799 160.977 86.711 157.066 86.711 152.244 L 86.711 143.513 C 88.321 143.513 89.623 142.211 89.623 140.601 C 89.623 138.99 88.321 137.69 86.711 137.69 L 77.979 137.69 L 77.979 143.513 C 77.979 146.723 75.368 149.334 72.157 149.334 L 70.273 149.334 C 64.287 149.334 58.822 145.95 56.147 140.601 C 53.473 135.252 47.996 131.868 42.02 131.868 L 40.137 131.868 C 38.527 131.868 37.226 133.169 37.226 134.78 C 37.226 136.389 38.527 137.69 40.137 137.69 L 40.137 149.334 Z" style="stroke: rgb(186, 218, 85); fill: url(#gradient-16);"/>
  <path d="M 185.382 251.548 C 187.491 251.548 189.202 249.836 189.202 247.727 C 189.202 245.616 187.491 243.905 185.382 243.905 C 183.272 243.905 181.56 245.616 181.56 247.727 C 181.56 249.836 183.272 251.548 185.382 251.548 Z M 191.193 279.897 C 190.444 279.148 189.234 279.148 188.494 279.897 C 187.531 280.86 186.065 281.123 184.904 280.589 L 174.092 275.001 L 178.01 269.126 C 179.02 267.613 178.821 265.583 177.531 264.301 L 174.316 261.077 L 165.797 256.85 C 165.566 258.434 166.068 260.035 167.206 261.18 L 173.185 267.167 L 169.531 272.645 L 153.776 264.5 C 152.845 264.023 151.69 264.381 151.205 265.321 C 150.72 266.259 151.086 267.414 152.025 267.891 L 183.225 284.012 C 184.171 284.45 185.175 284.658 186.178 284.658 C 188.025 284.658 189.839 283.941 191.193 282.588 C 191.933 281.847 191.933 280.637 191.193 279.897 Z M 160.544 251.197 L 159.627 252.988 C 160.774 253.57 162.111 253.379 163.035 252.607 L 166.793 254.469 C 166.785 254.477 166.785 254.485 166.777 254.494 L 175.891 259.015 L 178.471 257.98 L 178.98 259.501 C 179.299 260.464 179.984 261.252 180.892 261.706 L 185.517 264.014 C 186.783 264.643 188.303 264.134 188.932 262.877 C 189.561 261.618 189.051 260.09 187.793 259.461 L 183.646 257.384 L 182.285 253.307 C 181.64 251.38 179.028 248.801 175.558 250.186 L 169.093 252.774 L 164.117 250.305 C 164.142 249.151 163.545 248.029 162.454 247.472 L 161.57 249.199 L 161.554 249.199 L 158.816 248.642 C 158.672 248.611 158.521 248.658 158.418 248.777 C 158.266 248.952 158.282 249.214 158.458 249.367 L 160.544 251.197 Z" style="stroke: rgb(186, 218, 85); fill: url(#gradient-15);"/>
  <path d="M 163.017 186.464 L 163.017 179.323 L 158.819 177.395 C 154.165 182.934 152.424 197.36 141.154 197.36 C 137.722 197.36 135.578 201.075 137.294 204.046 C 138.091 205.426 139.562 206.275 141.154 206.275 C 158.081 206.275 170.658 196.495 174.521 189.532 L 171.572 186.464 Z M 173.453 176.246 C 176.012 171.483 174.68 167.627 173.202 165.759 C 172.964 165.463 172.52 165.44 172.253 165.712 L 170.431 167.542 C 170.215 167.762 170.185 168.103 170.36 168.357 C 170.905 169.181 171.717 171.151 170.249 174.113 C 168.813 173.486 167.264 173.162 165.698 173.162 C 163.47 173.162 161.399 173.841 159.621 174.96 L 165.565 177.69 L 165.565 183.917 L 172.657 183.917 L 177.01 188.445 C 177.269 187.44 177.452 186.405 177.452 185.316 C 177.455 181.864 176.003 178.572 173.453 176.246 Z" style="stroke: rgb(186, 218, 85); fill: url(#gradient-13);"/>
  <path d="M 152.806 344.016 C 145.583 344.016 135.341 355.183 135.341 362.232 C 135.341 365.407 137.78 367.304 141.867 367.304 C 146.31 367.304 149.243 365.022 152.806 365.022 C 156.4 365.022 159.342 367.304 163.745 367.304 C 167.832 367.304 170.271 365.407 170.271 362.232 C 170.271 355.183 160.029 344.016 152.806 344.016 Z M 139.409 342.869 C 138.463 339.718 135.548 337.676 132.9 338.31 C 130.252 338.943 128.871 342.011 129.817 345.162 C 130.763 348.315 133.678 350.357 136.326 349.723 C 138.975 349.089 140.355 346.022 139.409 342.869 Z M 147.116 340.98 C 149.93 340.238 151.338 336.437 150.261 332.488 C 149.184 328.538 146.03 325.937 143.215 326.678 C 140.401 327.418 138.993 331.22 140.07 335.17 C 141.147 339.119 144.302 341.721 147.116 340.98 Z M 172.712 338.311 C 170.063 337.677 167.149 339.719 166.202 342.87 C 165.257 346.023 166.636 349.091 169.285 349.724 C 171.934 350.358 174.847 348.316 175.794 345.163 C 176.74 342.012 175.361 338.944 172.712 338.311 Z M 158.497 340.98 C 161.311 341.72 164.465 339.119 165.543 335.17 C 166.62 331.22 165.211 327.419 162.397 326.678 C 159.583 325.936 156.428 328.538 155.351 332.488 C 154.274 336.437 155.683 340.238 158.497 340.98 Z" style="stroke: rgb(186, 218, 85); fill: url(#gradient-14);"/>
  <path d="M 333.702 247.237 L 331.154 247.237 L 330.099 246.183 C 329.144 245.227 327.847 244.689 326.497 244.69 L 324.866 244.69 C 323.98 244.69 323.109 244.921 322.338 245.362 L 310.141 252.331 L 305.683 252.331 C 297.242 252.331 290.401 259.172 290.401 267.613 L 290.401 267.742 C 290.401 270.349 289.127 272.687 287.253 274.499 C 285.806 275.897 285.017 277.976 285.408 280.212 C 285.945 283.301 288.822 285.443 291.955 285.443 L 300.59 285.443 C 301.996 285.443 303.136 284.301 303.136 282.895 C 303.136 281.489 301.996 280.348 300.59 280.348 L 291.673 280.348 C 290.971 280.348 290.401 279.778 290.401 279.076 C 290.401 278.372 290.971 277.802 291.673 277.802 L 309.504 277.802 C 310.208 277.802 310.778 277.231 310.778 276.528 L 310.778 275.254 C 310.778 273.847 309.636 272.707 308.229 272.707 L 303.136 272.707 L 315.035 266.299 L 320.966 277.802 L 327.333 277.802 C 328.036 277.802 328.607 277.231 328.607 276.528 L 328.607 275.254 C 328.607 273.847 327.466 272.707 326.06 272.707 L 323.814 272.707 L 319.428 263.935 L 326.787 259.973 L 328.607 259.973 C 332.826 259.973 336.248 256.55 336.248 252.331 L 336.248 249.784 C 336.248 248.377 335.107 247.237 333.702 247.237 Z M 326.06 248.511 C 326.764 248.511 327.333 249.081 327.333 249.784 C 327.333 250.488 326.764 251.057 326.06 251.057 C 325.356 251.057 324.785 250.488 324.785 249.784 C 324.785 249.081 325.356 248.511 326.06 248.511 Z M 328.607 256.151 L 325.824 256.151 L 317.718 260.518 L 316.622 258.323 L 326.06 253.604 L 332.192 253.604 C 331.666 255.083 330.265 256.151 328.607 256.151 Z" style="stroke: rgb(186, 218, 85); fill: url(#gradient-11);"/>
  <path d="M 231.415 316.836 L 228.945 316.836 C 228.263 316.836 227.71 317.389 227.71 318.071 L 227.71 329.19 L 232.652 329.19 L 232.652 318.071 C 232.652 317.389 232.099 316.836 231.415 316.836 Z M 238.827 316.836 L 236.357 316.836 C 235.675 316.836 235.122 317.389 235.122 318.071 L 235.122 329.19 L 240.064 329.19 L 240.064 318.071 C 240.064 317.389 239.511 316.836 238.827 316.836 Z M 253.652 316.836 L 251.181 316.836 C 250.499 316.836 249.946 317.389 249.946 318.071 L 249.946 329.19 L 254.887 329.19 L 254.887 318.071 C 254.887 317.389 254.334 316.836 253.652 316.836 Z M 261.064 316.836 L 258.593 316.836 C 257.911 316.836 257.358 317.389 257.358 318.071 L 257.358 329.19 L 262.299 329.19 L 262.299 318.071 C 262.299 317.389 261.746 316.836 261.064 316.836 Z M 267.24 314.366 C 268.605 314.366 269.711 313.26 269.711 311.896 C 269.711 310.531 267.24 306.954 267.24 306.954 C 267.24 306.954 264.769 310.531 264.769 311.896 C 264.769 313.26 265.876 314.366 267.24 314.366 Z M 259.828 314.366 C 261.193 314.366 262.299 313.26 262.299 311.896 C 262.299 310.531 259.828 306.954 259.828 306.954 C 259.828 306.954 257.358 310.531 257.358 311.896 C 257.358 313.26 258.464 314.366 259.828 314.366 Z M 252.416 314.366 C 253.781 314.366 254.887 313.26 254.887 311.896 C 254.887 310.531 252.416 306.954 252.416 306.954 C 252.416 306.954 249.946 310.531 249.946 311.896 C 249.946 313.26 251.052 314.366 252.416 314.366 Z M 245.004 314.366 C 246.369 314.366 247.475 313.26 247.475 311.896 C 247.475 310.531 245.004 306.954 245.004 306.954 C 245.004 306.954 242.534 310.531 242.534 311.896 C 242.534 313.26 243.64 314.366 245.004 314.366 Z M 237.592 314.366 C 238.957 314.366 240.064 313.26 240.064 311.896 C 240.064 310.531 237.592 306.954 237.592 306.954 C 237.592 306.954 235.122 310.531 235.122 311.896 C 235.122 313.26 236.228 314.366 237.592 314.366 Z M 230.18 314.366 C 231.545 314.366 232.652 313.26 232.652 311.896 C 232.652 310.531 230.18 306.954 230.18 306.954 C 230.18 306.954 227.71 310.531 227.71 311.896 C 227.71 313.26 228.816 314.366 230.18 314.366 Z M 222.768 314.366 C 224.133 314.366 225.24 313.26 225.24 311.896 C 225.24 310.531 222.768 306.954 222.768 306.954 C 222.768 306.954 220.298 310.531 220.298 311.896 C 220.298 313.26 221.405 314.366 222.768 314.366 Z M 264.769 329.19 C 264.769 330.555 263.663 331.66 262.299 331.66 L 247.475 331.66 L 247.475 318.071 C 247.475 317.389 246.922 316.836 246.239 316.836 L 243.769 316.836 C 243.087 316.836 242.534 317.389 242.534 318.071 L 242.534 331.66 L 227.71 331.66 C 226.346 331.66 225.24 330.555 225.24 329.19 L 225.24 318.071 C 225.24 317.389 224.687 316.836 224.003 316.836 L 221.533 316.836 C 220.851 316.836 220.298 317.389 220.298 318.071 L 220.298 329.19 C 220.298 333.284 223.616 336.602 227.71 336.602 L 242.534 336.602 L 242.534 341.543 L 228.945 341.543 C 228.263 341.543 227.71 342.096 227.71 342.779 L 227.71 345.249 C 227.71 345.932 228.263 346.484 228.945 346.484 L 261.064 346.484 C 261.746 346.484 262.299 345.932 262.299 345.249 L 262.299 342.779 C 262.299 342.096 261.746 341.543 261.064 341.543 L 247.475 341.543 L 247.475 336.602 L 262.299 336.602 C 266.392 336.602 269.711 333.284 269.711 329.19 L 269.711 318.071 C 269.711 317.389 269.158 316.836 268.476 316.836 L 266.005 316.836 C 265.322 316.836 264.769 317.389 264.769 318.071 L 264.769 329.19 Z" style="stroke: rgb(186, 218, 85); fill: url(#gradient-10);"/>
  <path d="M 449.789 239.403 L 449.692 239.403 C 450.997 228.032 439.505 219.513 429.005 224.067 C 423 226.672 419.404 232.899 420.151 239.403 L 420.054 239.403 C 416.239 239.403 413.855 243.533 415.762 246.836 C 416.648 248.37 418.284 249.314 420.054 249.314 L 449.789 249.314 C 453.604 249.314 455.988 245.184 454.08 241.88 C 453.196 240.347 451.559 239.403 449.789 239.403 Z M 431.967 273.854 C 433.016 276.129 436.135 276.414 437.58 274.368 C 437.694 274.206 437.794 274.034 437.876 273.854 L 448.137 252.618 L 421.706 252.618 Z" style="stroke: rgb(186, 218, 85); fill: url(#gradient-12);"/>
  <path d="M 309.443 338.878 L 303.368 335.081 C 302.779 334.713 301.975 334.922 301.687 335.554 C 300.744 337.619 300.185 339.838 300.04 342.103 C 299.996 342.77 300.556 343.329 301.224 343.329 L 308.349 343.329 C 308.933 343.329 309.383 342.871 309.451 342.291 C 309.53 341.606 309.689 340.946 309.908 340.315 C 310.096 339.776 309.927 339.18 309.443 338.878 Z M 323.404 325.137 C 321.924 324.757 320.377 324.55 318.78 324.55 C 317.183 324.55 315.635 324.757 314.156 325.137 C 313.483 325.309 313.135 326.061 313.394 326.706 L 316.142 334.337 C 316.31 334.802 316.752 335.113 317.247 335.114 L 320.312 335.114 C 320.808 335.114 321.249 334.803 321.417 334.337 L 324.166 326.706 C 324.424 326.061 324.076 325.31 323.404 325.137 Z M 308.216 345.677 L 301.174 345.677 C 300.525 345.677 300 346.202 300 346.851 L 300 351.545 C 300 352.194 300.525 352.719 301.174 352.719 L 308.216 352.719 C 308.865 352.719 309.39 352.194 309.39 351.545 L 309.39 346.851 C 309.39 346.202 308.865 345.677 308.216 345.677 Z M 308.216 355.066 L 301.174 355.066 C 300.525 355.066 300 355.592 300 356.241 L 300 360.935 C 300 361.584 300.525 362.109 301.174 362.109 L 308.216 362.109 C 308.865 362.109 309.39 361.584 309.39 360.935 L 309.39 356.241 C 309.39 355.592 308.865 355.066 308.216 355.066 Z M 313.888 334.258 L 311.223 327.596 C 310.964 326.949 310.187 326.643 309.578 326.987 C 307.574 328.119 305.794 329.608 304.325 331.381 C 303.881 331.918 304.043 332.736 304.635 333.106 L 310.718 336.907 C 311.196 337.206 311.794 337.1 312.193 336.703 C 312.574 336.326 312.985 335.98 313.425 335.672 C 313.886 335.349 314.096 334.78 313.888 334.258 Z M 329.21 343.329 L 336.335 343.329 C 337.003 343.329 337.563 342.77 337.519 342.103 C 337.374 339.838 336.816 337.619 335.872 335.554 C 335.584 334.922 334.78 334.713 334.191 335.081 L 328.116 338.878 C 327.632 339.18 327.463 339.776 327.651 340.315 C 327.872 340.946 328.029 341.607 328.108 342.291 C 328.176 342.871 328.626 343.329 329.21 343.329 Z M 333.233 331.381 C 331.765 329.608 329.985 328.119 327.98 326.987 C 327.372 326.643 326.595 326.949 326.336 327.596 L 323.671 334.258 C 323.462 334.78 323.673 335.349 324.133 335.671 C 324.574 335.98 324.985 336.324 325.364 336.703 C 325.764 337.099 326.362 337.205 326.84 336.907 L 332.924 333.105 C 333.516 332.736 333.678 331.918 333.233 331.381 Z M 336.385 345.677 L 329.343 345.677 C 328.694 345.677 328.169 346.202 328.169 346.851 L 328.169 351.545 C 328.169 352.194 328.694 352.719 329.343 352.719 L 336.385 352.719 C 337.034 352.719 337.559 352.194 337.559 351.545 L 337.559 346.851 C 337.559 346.202 337.034 345.677 336.385 345.677 Z M 336.385 355.066 L 329.343 355.066 C 328.694 355.066 328.169 355.592 328.169 356.241 L 328.169 360.935 C 328.169 361.584 328.694 362.109 329.343 362.109 L 336.385 362.109 C 337.034 362.109 337.559 361.584 337.559 360.935 L 337.559 356.241 C 337.559 355.592 337.034 355.066 336.385 355.066 Z M 317.606 337.58 L 317.606 359.175 C 317.606 359.499 317.868 359.762 318.192 359.762 L 319.367 359.762 C 319.691 359.762 319.954 359.499 319.954 359.175 L 319.954 337.58 C 319.57 337.514 319.181 337.461 318.78 337.461 C 318.378 337.461 317.99 337.514 317.606 337.58 Z M 312.911 340.625 L 312.911 359.175 C 312.911 359.499 313.174 359.762 313.498 359.762 L 314.671 359.762 C 314.996 359.762 315.258 359.499 315.258 359.175 L 315.258 338.441 C 314.321 338.988 313.509 339.723 312.911 340.625 Z M 322.301 338.441 L 322.301 359.175 C 322.301 359.499 322.563 359.762 322.888 359.762 L 324.061 359.762 C 324.385 359.762 324.648 359.499 324.648 359.175 L 324.648 340.625 C 324.05 339.723 323.238 338.988 322.301 338.441 Z" style="stroke: rgb(186, 218, 85); fill: url(#gradient-9);"/>
  <path d="M 425.046 330.913 L 425.046 329.301 L 426.437 329.301 C 427.206 329.301 427.828 328.678 427.828 327.909 L 427.828 326.518 C 427.828 325.749 427.206 325.126 426.437 325.126 L 418.088 325.126 C 417.32 325.126 416.697 325.749 416.697 326.518 L 416.697 327.909 C 416.697 328.678 417.32 329.301 418.088 329.301 L 419.48 329.301 L 419.48 330.913 C 410.043 332.267 402.783 340.36 402.783 350.171 L 441.742 350.171 C 441.742 340.36 434.482 332.267 425.046 330.913 Z M 443.134 352.954 L 401.392 352.954 C 400.623 352.954 400 353.577 400 354.346 L 400 357.129 C 400 357.897 400.623 358.52 401.392 358.52 L 443.134 358.52 C 443.902 358.52 444.525 357.897 444.525 357.129 L 444.525 354.346 C 444.525 353.577 443.902 352.954 443.134 352.954 Z" style="stroke: rgb(186, 218, 85); fill: url(#gradient-8);"/>
</svg>