<svg viewBox="0 0 500 400">
  <path stroke="current" fill="current" fill-opacity="current" style="" d="M 244.902 290.818 C 244.902 290.818 260.221 303.304 298.108 311.634 C 354.015 266.289 362.624 227.955 362.624 194.945 C 362.624 132.166 295.349 118.919 249.265 118.772 C 203.181 118.625 121.459 127.848 121.459 195.297 C 121.459 261.983 173.36 307.729 173.36 307.729 C 173.36 307.729 242.422 375.699 319.098 377.337 C 395.774 378.975 416.313 377.706 431.724 377.592 C 447.135 377.478 472.488 364.282 472.159 328.727 C 471.83 293.172 465.668 148.003 470.965 89.586 C 476.262 31.169 442.372 30.824 408.877 31.41 C 375.382 31.996 109.694 32.294 93.499 31.169 C 77.304 30.044 32.194 38.644 31.226 81.712 C 30.258 124.78 36.941 285.327 31.226 328.404 C 25.511 371.481 66.124 377.72 85.896 378.911 C 105.668 380.102 156.087 378.051 165.016 377.716 C 173.945 377.381 211.014 377.716 242.222 358.789 C 216.562 344.523 203.416 337.022 177.887 314.831 C 127.017 314.831 90.298 325.793 100 280.25 C 105.976 221.989 100 153.869 100 132.939 C 100 115.824 100 100 138.013 100 C 183.189 100 308.615 100 369.365 100 C 400 100 402.724 126.38 402.746 131.998 C 402.87 163.648 400 236.385 400 280.444 C 400 324.503 332.885 319.672 303.68 314.831 C 274.475 309.99 248.051 297.399 233.843 285.622 C 219.635 273.845 194.982 253.594 194.982 216.473 C 194.982 198.676 204.338 168.135 249.265 168.135 C 294.853 168.135 303.042 194.575 303.042 216.597 C 303.042 276.34 242.113 288.899 244.902 290.818 Z"/>
</svg>