<svg xmlns="http://www.w3.org/2000/svg" viewBox="0 0 500 400"   >
  <defs>
    <linearGradient id="color-1" >
      <title>Pal - 1 - #43419E</title>
      <stop style="stop-color: rgb(67, 65, 158);"/>
    </linearGradient>
    <linearGradient id="color-2" >
      <title>Pal - 1 - #f4f3f9</title>
      <stop style="stop-color: rgb(236, 235, 245);"/>
    </linearGradient>
    <linearGradient id="color-3" >
      <title>Pal - 1 - #E44E2B</title>
      <stop style="stop-color: rgb(228, 77, 43);"/>
    </linearGradient>
    <linearGradient id="color-4">
      <title>freehand</title>
      <stop style="stop-color: rgba(228, 77, 43, 0.32);"/>
    </linearGradient>
    <linearGradient id="color-0" >
      <title>Pal - 1 - #F8B529</title>
      <stop style="stop-color: rgb(248, 181, 41);"/>
    </linearGradient>
    <pattern x="0" y="0" width="25" height="25" patternUnits="userSpaceOnUse" viewBox="0 0 100 100" id="pattern-0">
      <rect x="0" y="0" width="50" height="100" style="fill: black;"/>
    </pattern>
    <pattern id="pattern-0-0" patternTransform="matrix(0.147196, -0.108119, 0.035687, 0.048585, 232.059814, 62.396038)" />
    <pattern id="pattern-1" viewBox="0 0 100 100" patternUnits="userSpaceOnUse" preserveAspectRatio="none" width="100" height="100" >
      <path style="stroke: rgb(0, 0, 0);" d="M 98.838 0.342 L 0.431 98.928 C 0.431 98.928 0.65 1.044 0.624 1.044 C 0.598 1.044 98.772 0.425 98.838 0.342 Z"/>
    </pattern>
    <radialGradient gradientUnits="userSpaceOnUse" cx="255.749" cy="18.158" r="8.285" id="gradient-0">
      <stop offset="0" style="stop-color: rgba(67, 65, 158, 1)"/>
      <stop offset="1" style="stop-color: rgba(36, 35, 86, 1)"/>
    </radialGradient>
    <radialGradient gradientUnits="userSpaceOnUse" cx="255.749" cy="18.158" r="8.285" id="gradient-1">
      <stop offset="0" style="stop-color: rgba(67, 65, 158, 1)"/>
      <stop offset="1" style="stop-color: rgba(36, 35, 86, 1)"/>
    </radialGradient>
    <linearGradient gradientUnits="userSpaceOnUse" x1="249.534" y1="23.792" x2="249.534" y2="106.349" id="gradient-3" gradientTransform="matrix(0, -0.108991, 0.108991, 0, 242.163162, 88.468613)">
      <stop offset="0" style="stop-color: #bada55"/>
      <stop offset="1" style="stop-color: #758d29"/>
    </linearGradient>
    <linearGradient gradientUnits="userSpaceOnUse" x1="251.421" y1="31.076" x2="251.421" y2="379.279" id="gradient-21" gradientTransform="matrix(0.797726, -0.60302, 0.815129, 1.078323, -89.589706, 152.237051)">
      <stop offset="0" style="stop-color: rgba(248, 183, 41, 1)"/>
      <stop offset="1" style="stop-color: rgba(181, 126, 6, 1)"/>
    </linearGradient>
    <linearGradient id="gradient-22" />
  </defs>
  <g style="pointer-events: none; visibility: hidden;">
    <path style="stroke: rgb(0, 0, 0); fill: none;" d="M 32.226 81.181 C 30.907 60.825 54.662 29.352 87.874 31.169 C 178.139 36.106 334.72 32.703 425.231 31.169 C 456.432 30.64 473.555 54.297 471.748 88.218 C 467.279 172.138 469.908 248.063 471.748 331.836 C 472.36 359.707 450.378 377.716 421.979 377.716 C 371.268 377.716 358.612 377.716 330.47 377.716 C 287.772 377.716 270.364 372.823 250.265 360.607 C 213.068 337.998 176.553 314.831 150.747 280.263 C 133.506 257.167 122.667 221.691 122.859 200 C 123.388 140.168 176.778 119.421 250.265 119.185 C 322.539 118.952 365.729 135.944 363.914 200 C 362.463 251.205 353.574 270.532 339.803 287.382 C 317.228 315.004 298.741 322.215 242.734 357.841 C 222.696 370.587 186.99 377.716 154.883 377.716 C 133.88 377.716 108.153 377.716 85.034 377.716 C 62.192 377.716 29.062 367.546 32.226 329.468 C 41.417 218.844 30.267 167.452 32.226 81.181 Z"/>
    <path style="stroke: rgb(0, 0, 0); fill: none;" d="M 100 134.445 C 99.052 122.792 105.675 98.96 129.529 100 C 194.362 102.825 296.506 100.877 361.515 100 C 383.924 99.696 401.298 108.969 400 128.386 C 396.791 176.423 400 225.083 400 273.054 C 400 303.35 391.219 314.831 366.962 314.831 C 346.657 314.831 343.515 314.831 324.54 314.831 C 307.226 314.831 286.198 309.414 262.238 300 C 228.397 286.704 214.79 268.999 200 238.884 C 193.104 224.844 197.062 209.514 200 200 C 205.159 183.294 228.897 167.921 250.265 167.921 C 270.806 167.921 293.396 184.198 300 200 C 305.519 213.204 303.44 226.676 300 236.822 C 288.897 269.571 265.808 280.647 238.708 294.667 C 213.222 307.852 183.806 314.916 167.075 314.831 C 152.006 314.754 136.233 314.831 122.276 314.831 C 94.732 314.831 98.212 293.846 100 272.022 C 104.192 220.878 98.593 183.828 100 134.445 Z"/>
  </g>
  <path style="paint-order: stroke; fill: url(#gradient-21); stroke: url(#color-3); stroke-width: 7px;" d="M 244.902 290.818 C 244.902 290.818 260.221 303.304 298.108 311.634 C 354.015 266.289 362.624 227.955 362.624 194.945 C 362.624 132.166 295.349 118.919 249.265 118.772 C 203.181 118.625 121.459 127.848 121.459 195.297 C 121.459 261.983 173.36 307.729 173.36 307.729 C 173.36 307.729 242.422 375.699 319.098 377.337 C 395.774 378.975 416.313 377.706 431.724 377.592 C 447.135 377.478 472.488 364.282 472.159 328.727 C 471.83 293.172 465.668 148.003 470.965 89.586 C 476.262 31.169 442.372 30.824 408.877 31.41 C 375.382 31.996 109.694 32.294 93.499 31.169 C 77.304 30.044 32.194 38.644 31.226 81.712 C 30.258 124.78 36.941 285.327 31.226 328.404 C 25.511 371.481 66.124 377.72 85.896 378.911 C 105.668 380.102 156.087 378.051 165.016 377.716 C 173.945 377.381 211.014 377.716 242.222 358.789 C 216.562 344.523 203.416 337.022 177.887 314.831 C 127.017 314.831 90.298 325.793 100 280.25 C 105.976 221.989 100 153.869 100 132.939 C 100 115.824 100 100 138.013 100 C 183.189 100 308.615 100 369.365 100 C 400 100 402.724 126.38 402.746 131.998 C 402.87 163.648 400 236.385 400 280.444 C 400 324.503 332.885 319.672 303.68 314.831 C 274.475 309.99 248.051 297.399 233.843 285.622 C 219.635 273.845 194.982 253.594 194.982 216.473 C 194.982 198.676 204.338 168.135 249.265 168.135 C 294.853 168.135 303.042 194.575 303.042 216.597 C 303.042 276.34 242.113 288.899 244.902 290.818 Z">
    <title>Track</title>
  </path>
  <path style="fill: none; stroke-linecap: round; stroke-dashoffset: 18px; stroke-width: 3px; stroke-dasharray: 23; stroke: url(#color-3); stroke-opacity: 0.22;" d="M 249.245 64.583 C 321.659 67.374 390.807 55.661 412.279 63.389 C 425.346 68.092 440.522 86.547 440.889 110.822 C 441.673 162.668 443.419 266.486 438.555 297.975 C 432.916 334.48 417.433 343.415 401.698 347.066 C 371.411 354.094 331.234 352.661 307.701 347.883 C 276.906 341.631 231.023 323.85 183.606 273.631 C 136.189 223.412 155.424 141.691 244.174 140.101 C 332.924 138.511 335.487 187.832 334.128 206.212 C 332.769 224.592 321.695 312.105 182.989 346.609 C 128.911 360.061 90.269 348.839 73.649 335.457 C 47.642 314.515 63.171 280.018 62.782 263.122 C 62.145 235.429 60.765 155.137 62.681 117.504 C 63.748 96.537 69.946 70.113 100.107 64.213 C 137.907 56.818 203.864 62.834 249.245 64.583 Z"/>
  <g style="pointer-events: none;">
    <title>Finish line</title>
    <rect x="246.286" y="23.792" width="6.496" height="82.557" style="paint-order: fill; fill: url(#gradient-3);"/>
    <rect x="246.286" y="23.792" width="6.496" height="82.557" style="paint-order: fill; fill: url(#pattern-0-0); fill-opacity: 0.47;"/>
    <circle style="stroke: rgba(0, 0, 0, 0.57); stroke-width: 0px; fill: url(#gradient-0);" cx="255.749" cy="18.158" r="8.285" transform="matrix(0.521637, 0, 0, 0.404544, 115.973495, 18.532839)"/>
    <circle style="stroke: rgba(0, 0, 0, 0.64); stroke-width: 0px; fill: url(#gradient-1);" cx="255.749" cy="18.158" r="8.285" transform="matrix(0.521637, 0, 0, 0.40796, 115.804405, 99.854668)"/>
  </g>
  <g style="pointer-events: none; visibility: hidden;">
    <title>Track lines</title>
    <path d="M 277.717 89.105 C 291.635 91.644 301.887 84.841 316.022 84.841 C 320.632 84.841 335.549 87.043 340.15 87.204 C 350.104 87.551 364.749 85.005 364.749 85.415" style="fill: none; stroke: url(#color-4); stroke-linecap: round; stroke-miterlimit: 3; stroke-width: 4px; stroke-opacity: 0.6; stroke-dasharray: 30px; stroke-dashoffset: -24px;"/>
    <path d="M 303.768 63.736 C 316.924 64.282 330.038 63.138 343.14 63.138" style="fill: none; stroke: url(#color-4); stroke-linecap: round; stroke-miterlimit: 3; stroke-width: 4px; stroke-opacity: 0.6; stroke-dasharray: 30px; stroke-dashoffset: -24px;"/>
    <path d="M 316.999 40.415 C 334.752 38.345 357.946 45.445 369.197 45.14 C 374.626 44.993 385.581 43.374 390.506 40.546" style="fill: none; stroke: url(#color-4); stroke-linecap: round; stroke-miterlimit: 3; stroke-width: 4px; stroke-opacity: 0.6; stroke-dasharray: 30px; stroke-dashoffset: -24px;"/>
    <path d="M 413.387 41.911 C 421.679 44.057 425.353 46.394 431.035 52.784 C 432.294 54.199 433.943 55.729 434.948 57.331 C 435.209 57.746 436.323 61.487 436.697 61.487" style="fill: none; stroke: url(#color-4); stroke-linecap: round; stroke-miterlimit: 3; stroke-width: 4px; stroke-opacity: 0.6; stroke-dasharray: 30px; stroke-dashoffset: -24px;"/>
    <path d="M 413.251 69.199 C 421.604 74.773 432.271 83.011 432.271 94.37" style="fill: none; stroke: url(#color-4); stroke-linecap: round; stroke-miterlimit: 3; stroke-width: 4px; stroke-opacity: 0.6; stroke-dasharray: 30px; stroke-dashoffset: -24px;"/>
    <path d="M 412.104 88.425 C 418.316 95.613 424.883 101.724 428.827 110.577 C 430.316 113.922 429.008 129.749 430.522 132.777" style="fill: none; stroke: url(#color-4); stroke-linecap: round; stroke-miterlimit: 3; stroke-width: 4px; stroke-opacity: 0.6; stroke-dasharray: 30px; stroke-dashoffset: -24px;"/>
    <path d="M 420.222 140.766 C 420.222 155.249 421.786 170.049 421.786 184.35" style="fill: none; stroke: url(#color-4); stroke-linecap: round; stroke-miterlimit: 3; stroke-width: 4px; stroke-opacity: 0.6; stroke-dasharray: 30px; stroke-dashoffset: -24px;"/>
    <path d="M 436.544 147.732 C 436.544 162.681 436.44 177.664 436.44 192.586" style="fill: none; stroke: url(#color-4); stroke-linecap: round; stroke-miterlimit: 3; stroke-width: 4px; stroke-opacity: 0.6; stroke-dasharray: 30px; stroke-dashoffset: -24px;"/>
    <path d="M 450.901 152.241 C 451.924 164.737 450.158 177.991 452.611 190.3 C 453.211 193.309 455.638 198.596 453.02 201.168" style="fill: none; stroke: url(#color-4); stroke-linecap: round; stroke-miterlimit: 3; stroke-width: 4px; stroke-opacity: 0.6; stroke-dasharray: 30px; stroke-dashoffset: -24px;"/>
    <path d="M 416.882 210.737 C 417.246 217.691 419.26 224.114 418.85 231.213 C 418.352 239.807 414.914 248.308 414.914 256.883" style="fill: none; stroke: url(#color-4); stroke-linecap: round; stroke-miterlimit: 3; stroke-width: 4px; stroke-opacity: 0.6; stroke-dasharray: 30px; stroke-dashoffset: -24px;"/>
    <path d="M 440.759 214.977 C 441.654 222.495 442.158 230.584 439.968 237.981 C 437.906 244.947 432.263 251.763 432.263 258.902" style="fill: none; stroke: url(#color-4); stroke-linecap: round; stroke-miterlimit: 3; stroke-width: 4px; stroke-opacity: 0.6; stroke-dasharray: 30px; stroke-dashoffset: -24px;"/>
    <path d="M 455.723 239.61 C 457.578 252.642 459.986 266.815 455.719 279.637 C 455.229 281.112 453.514 291.563 453.04 291.324" style="fill: none; stroke: url(#color-4); stroke-linecap: round; stroke-miterlimit: 3; stroke-width: 4px; stroke-opacity: 0.6; stroke-dasharray: 30px; stroke-dashoffset: -24px;"/>
    <path d="M 429.682 286.17 C 429.277 289.532 428.849 292.932 428.252 296.269 C 427.4 301.026 425.857 305.661 425.458 310.503 C 424.979 316.31 428.189 328.57 419.654 328.57" style="fill: none; stroke: url(#color-4); stroke-linecap: round; stroke-miterlimit: 3; stroke-width: 4px; stroke-opacity: 0.6; stroke-dasharray: 30px; stroke-dashoffset: -24px;"/>
    <path d="M 454.321 322.014 C 452.96 335.141 455.851 355.726 437.071 355.726" style="fill: none; stroke: url(#color-4); stroke-linecap: round; stroke-miterlimit: 3; stroke-width: 4px; stroke-opacity: 0.6; stroke-dasharray: 30px; stroke-dashoffset: -24px;"/>
    <path d="M 425.022 362.122 C 410.945 364.96 398.335 360.697 384.714 360.697" style="fill: none; stroke: url(#color-4); stroke-linecap: round; stroke-miterlimit: 3; stroke-width: 4px; stroke-opacity: 0.6; stroke-dasharray: 30px; stroke-dashoffset: -24px;"/>
    <path d="M 448.315 323.861 C 445.98 330.325 444.116 337.815 440.594 343.762 C 433.05 356.501 413.779 351.985 401.744 351.985" style="fill: none; stroke: url(#color-4); stroke-linecap: round; stroke-miterlimit: 3; stroke-width: 4px; stroke-opacity: 0.6; stroke-dasharray: 30px; stroke-dashoffset: -24px;"/>
    <path d="M 323.255 367.884 C 308.754 367.884 296.597 356.857 282.266 353.96" style="fill: none; stroke: url(#color-4); stroke-linecap: round; stroke-miterlimit: 3; stroke-width: 4px; stroke-opacity: 0.6; stroke-dasharray: 30px; stroke-dashoffset: -24px;"/>
    <path d="M 364.816 347.475 C 349.691 347.475 336.224 342.093 321.559 340.074 C 315.6 339.254 309.504 340.057 303.535 339.257 C 303.054 339.192 298.523 338.738 298.523 338.468" style="fill: none; stroke: url(#color-4); stroke-linecap: round; stroke-miterlimit: 3; stroke-width: 4px; stroke-opacity: 0.6; stroke-dasharray: 30px; stroke-dashoffset: -24px;"/>
    <path d="M 287.488 331.267 C 282.15 330.807 270.961 332.501 266.278 329.852 C 264.485 328.838 252.247 312.875 250.155 312.875" style="fill: none; stroke: url(#color-4); stroke-linecap: round; stroke-miterlimit: 3; stroke-width: 4px; stroke-opacity: 0.6; stroke-dasharray: 30px; stroke-dashoffset: -24px;"/>
    <path d="M 236.874 331.23 C 230.742 329.61 225.458 325.4 220.256 321.942" style="fill: none; stroke: url(#color-4); stroke-linecap: round; stroke-miterlimit: 3; stroke-width: 4px; stroke-opacity: 0.6; stroke-dasharray: 30px; stroke-dashoffset: -24px;"/>
    <path d="M 221.44 309.336 C 210.289 304.283 203.1 294.016 199.446 290.363" style="fill: none; stroke: url(#color-4); stroke-linecap: round; stroke-miterlimit: 3; stroke-width: 4px; stroke-opacity: 0.6; stroke-dasharray: 30px; stroke-dashoffset: -24px;"/>
    <path d="M 229.642 298.947 C 224.304 294.457 213.196 276.587 207.256 273.006" style="fill: none; stroke: url(#color-4); stroke-linecap: round; stroke-miterlimit: 3; stroke-width: 4px; stroke-opacity: 0.6; stroke-dasharray: 30px; stroke-dashoffset: -24px;"/>
    <path d="M 358.236 321.141 C 353.185 321.296 348.135 321.445 343.084 321.445" style="fill: none; stroke: url(#color-4); stroke-linecap: round; stroke-miterlimit: 3; stroke-width: 4px; stroke-opacity: 0.6; stroke-dasharray: 30px; stroke-dashoffset: -24px;"/>
    <path d="M 390.214 314.2 C 388.954 314.98 385.255 317.746 383.951 317.746" style="fill: none; stroke: url(#color-4); stroke-linecap: round; stroke-miterlimit: 3; stroke-width: 4px; stroke-opacity: 0.6; stroke-dasharray: 30px; stroke-dashoffset: -24px;"/>
    <path d="M 203.081 313.62 C 196.272 308.286 186.146 304.264 181.128 297.126 C 177.88 292.506 171.049 284.902 166.93 280.783" style="fill: none; stroke: url(#color-4); stroke-linecap: round; stroke-miterlimit: 3; stroke-width: 4px; stroke-opacity: 0.6; stroke-dasharray: 30px; stroke-dashoffset: -24px;"/>
    <path d="M 194.169 274.553 C 189.888 270.075 187.109 255.979 183.135 251.286 C 179.551 247.054 181.212 229.968 180.548 224.699" style="fill: none; stroke: url(#color-4); stroke-linecap: round; stroke-miterlimit: 3; stroke-width: 4px; stroke-opacity: 0.6; stroke-dasharray: 30px; stroke-dashoffset: -24px;"/>
    <path d="M 162.764 270.724 C 157.802 259.907 147.006 260.411 138.889 240.205 C 134.815 230.062 144.657 209.738 142.886 193.68" style="fill: none; stroke: url(#color-4); stroke-linecap: round; stroke-miterlimit: 3; stroke-width: 4px; stroke-opacity: 0.6; stroke-dasharray: 30px; stroke-dashoffset: -24px;"/>
    <path d="M 146.421 177.378 C 149.148 172.097 152.345 166.408 158.025 163.741 C 159.995 162.816 180.672 154.707 182.616 153.871" style="fill: none; stroke: url(#color-4); stroke-linecap: round; stroke-miterlimit: 3; stroke-width: 4px; stroke-opacity: 0.6; stroke-dasharray: 30px; stroke-dashoffset: -24px;"/>
    <path d="M 159.747 184.547 C 171.559 160.155 186.449 176.716 200.562 157.21" style="fill: none; stroke: url(#color-4); stroke-linecap: round; stroke-miterlimit: 3; stroke-width: 4px; stroke-opacity: 0.6; stroke-dasharray: 30px; stroke-dashoffset: -24px;"/>
    <path d="M 180.07 195.656 C 187.658 184.559 200.251 178.372 210.388 170.051 C 212.547 168.278 213.444 164.112 215.394 162.808" style="fill: none; stroke: url(#color-4); stroke-linecap: round; stroke-miterlimit: 3; stroke-width: 4px; stroke-opacity: 0.6; stroke-dasharray: 30px; stroke-dashoffset: -24px;"/>
    <path d="M 220.373 135.342 C 240.53 128.755 259.172 128.022 276.656 130.577 C 277.571 130.711 298.928 135.143 298.928 137.644" style="fill: none; stroke: url(#color-4); stroke-linecap: round; stroke-miterlimit: 3; stroke-width: 4px; stroke-opacity: 0.6; stroke-dasharray: 30px; stroke-dashoffset: -24px;"/>
    <path d="M 231.39 146.196 C 263.804 142.715 276.797 149.926 299.453 151.162" style="fill: none; stroke: url(#color-4); stroke-linecap: round; stroke-miterlimit: 3; stroke-width: 4px; stroke-opacity: 0.6; stroke-dasharray: 30px; stroke-dashoffset: -24px;"/>
    <path d="M 247.276 159.116 C 265.34 157.204 283.341 171.311 288.98 163.165" style="fill: none; stroke: url(#color-4); stroke-linecap: round; stroke-miterlimit: 3; stroke-width: 4px; stroke-opacity: 0.6; stroke-dasharray: 30px; stroke-dashoffset: -24px;"/>
    <path d="M 328.502 146.224 C 336.479 152.785 345.18 160.04 349.531 169.675 C 353.934 179.425 354.625 190.817 354.625 201.386" style="fill: none; stroke: url(#color-4); stroke-linecap: round; stroke-miterlimit: 3; stroke-width: 4px; stroke-opacity: 0.6; stroke-dasharray: 30px; stroke-dashoffset: -24px;"/>
    <path d="M 310.574 168.656 C 322.068 181.55 327.468 195.82 327.468 213.174" style="fill: none; stroke: url(#color-4); stroke-linecap: round; stroke-miterlimit: 3; stroke-width: 4px; stroke-opacity: 0.6; stroke-dasharray: 30px; stroke-dashoffset: -24px;"/>
    <path d="M 339.793 212.352 C 340.299 224.05 337.226 231.035 331.357 240.657 C 329.863 243.106 327.499 248.532 324.754 249.893" style="fill: none; stroke: url(#color-4); stroke-linecap: round; stroke-miterlimit: 3; stroke-width: 4px; stroke-opacity: 0.6; stroke-dasharray: 30px; stroke-dashoffset: -24px;"/>
    <path d="M 311.958 269.553 C 305.942 278.518 297.463 281.646 290.405 288.581" style="fill: none; stroke: url(#color-4); stroke-linecap: round; stroke-miterlimit: 3; stroke-width: 4px; stroke-opacity: 0.6; stroke-dasharray: 30px; stroke-dashoffset: -24px;"/>
    <path d="M 270.478 289.47 C 265.011 296.203 263.226 297.264 254.42 297.264" style="fill: none; stroke: url(#color-4); stroke-linecap: round; stroke-miterlimit: 3; stroke-width: 4px; stroke-opacity: 0.6; stroke-dasharray: 30px; stroke-dashoffset: -24px;"/>
    <path d="M 309.827 296.778 C 296.007 307.581 308.314 303.295 290.987 307.588" style="fill: none; stroke: url(#color-4); stroke-linecap: round; stroke-miterlimit: 3; stroke-width: 4px; stroke-opacity: 0.6; stroke-dasharray: 30px; stroke-dashoffset: -24px;"/>
    <path d="M 336.597 248.703 C 331.018 258.086 322.343 268.678 314.58 276.304" style="fill: none; stroke: url(#color-4); stroke-linecap: round; stroke-miterlimit: 3; stroke-width: 4px; stroke-opacity: 0.6; stroke-dasharray: 30px; stroke-dashoffset: -24px;"/>
    <path d="M 177.463 329.962 C 161.824 333.26 148.324 335.018 132.199 333.406" style="fill: none; stroke: url(#color-4); stroke-linecap: round; stroke-miterlimit: 3; stroke-width: 4px; stroke-opacity: 0.6; stroke-dasharray: 30px; stroke-dashoffset: -24px;"/>
    <path d="M 183.351 343.119 C 173.629 348.047 163.044 349.796 152.244 350.822 C 147.891 351.236 140.505 350.303 136.474 352.3" style="fill: none; stroke: url(#color-4); stroke-linecap: round; stroke-miterlimit: 3; stroke-width: 4px; stroke-opacity: 0.6; stroke-dasharray: 30px; stroke-dashoffset: -24px;"/>
    <path d="M 208.019 360.065 C 178.711 378.756 174.506 363.258 139.252 368.545" style="fill: none; stroke: url(#color-4); stroke-linecap: round; stroke-miterlimit: 3; stroke-width: 4px; stroke-opacity: 0.6; stroke-dasharray: 30px; stroke-dashoffset: -24px;"/>
    <path d="M 108.135 367.952 C 85.384 371.606 82.994 360.966 64.353 359.293" style="fill: none; stroke: url(#color-4); stroke-linecap: round; stroke-miterlimit: 3; stroke-width: 4px; stroke-opacity: 0.6; stroke-dasharray: 30px; stroke-dashoffset: -24px;"/>
    <path d="M 102.605 344.836 C 82.105 347.711 65.777 340.479 62.868 325.961 C 61.994 321.601 60.454 316.174 60.454 311.735 C 60.454 310.485 61.228 306.256 60.45 305.478" style="fill: none; stroke: url(#color-4); stroke-linecap: round; stroke-miterlimit: 3; stroke-width: 4px; stroke-opacity: 0.6; stroke-dasharray: 30px; stroke-dashoffset: -24px;"/>
    <path d="M 83.983 309.128 C 78.882 295.706 91.884 277.152 90.998 260.373" style="fill: none; stroke: url(#color-4); stroke-linecap: round; stroke-miterlimit: 3; stroke-width: 4px; stroke-opacity: 0.6; stroke-dasharray: 30px; stroke-dashoffset: -24px;"/>
    <path d="M 64.23 283.261 C 63.127 265.958 75.528 252.893 72.771 228.849" style="fill: none; stroke: url(#color-4); stroke-linecap: round; stroke-miterlimit: 3; stroke-width: 4px; stroke-opacity: 0.6; stroke-dasharray: 30px; stroke-dashoffset: -24px;"/>
    <path d="M 49.087 275.596 C 51.108 255.456 41.704 247.314 41.704 231.35 C 41.704 223.866 50.284 207.771 47.811 189.477" style="fill: none; stroke: url(#color-4); stroke-linecap: round; stroke-miterlimit: 3; stroke-width: 4px; stroke-opacity: 0.6; stroke-dasharray: 30px; stroke-dashoffset: -24px;"/>
    <path d="M 63.49 219.793 C 63.935 207.508 72.164 203.766 72.787 185.66 C 73.238 172.545 67.616 163.82 66.802 163.82" style="fill: none; stroke: url(#color-4); stroke-linecap: round; stroke-miterlimit: 3; stroke-width: 4px; stroke-opacity: 0.6; stroke-dasharray: 30px; stroke-dashoffset: -24px;"/>
    <path d="M 88.049 181.251 C 85.388 166.291 85.8 152.92 86.146 137.848 C 86.253 133.162 88.508 126.428 88.756 121.751 C 88.774 121.412 89.178 117.676 88.678 117.676" style="fill: none; stroke: url(#color-4); stroke-linecap: round; stroke-miterlimit: 3; stroke-width: 4px; stroke-opacity: 0.6; stroke-dasharray: 30px; stroke-dashoffset: -24px;"/>
    <path d="M 45.889 162.353 C 45.675 154.399 52.107 146.8 51.199 138.979 C 48.943 119.561 57.642 109.537 59.101 97.165" style="fill: none; stroke: url(#color-4); stroke-linecap: round; stroke-miterlimit: 3; stroke-width: 4px; stroke-opacity: 0.6; stroke-dasharray: 30px; stroke-dashoffset: -24px;"/>
    <path d="M 47.528 93.985 C 47.528 88.316 48.684 83.071 49.684 77.524 C 51.232 68.942 51.411 65.074 57.103 58.544 C 60.345 54.825 70.894 51.065 75.275 50.846 C 87.145 50.251 99.112 48.82 111.003 48.82" style="fill: none; stroke: url(#color-4); stroke-linecap: round; stroke-miterlimit: 3; stroke-width: 4px; stroke-opacity: 0.6; stroke-dasharray: 30px; stroke-dashoffset: -24px;"/>
    <path d="M 71.766 94.809 C 87.824 87.594 94.529 68.877 118.637 70.877" style="fill: none; stroke: url(#color-4); stroke-linecap: round; stroke-miterlimit: 3; stroke-width: 4px; stroke-opacity: 0.6; stroke-dasharray: 30px; stroke-dashoffset: -24px;"/>
    <path d="M 113.299 87.114 C 125.482 82.326 132.594 82.367 151.963 84.765" style="fill: none; stroke: url(#color-4); stroke-linecap: round; stroke-miterlimit: 3; stroke-width: 4px; stroke-opacity: 0.6; stroke-dasharray: 30px; stroke-dashoffset: -24px;"/>
    <path d="M 177.898 82.235 C 187.794 81.524 197.569 81.368 207.504 81.667 C 209.68 81.733 214.533 80.775 216.362 82.604" style="fill: none; stroke: url(#color-4); stroke-linecap: round; stroke-miterlimit: 3; stroke-width: 4px; stroke-opacity: 0.6; stroke-dasharray: 30px; stroke-dashoffset: -24px;"/>
    <path d="M 175.825 49.167 C 189.687 49.167 203.21 42.443 216.809 45.221 C 231.01 48.122 234.012 54.903 240.338 51.684" style="fill: none; stroke: url(#color-4); stroke-linecap: round; stroke-miterlimit: 3; stroke-width: 4px; stroke-opacity: 0.6; stroke-dasharray: 30px; stroke-dashoffset: -24px;"/>
    <path d="M 205.738 66.813 C 220.862 64.588 235.237 68.501 249.907 68.501" style="fill: none; stroke: url(#color-4); stroke-linecap: round; stroke-miterlimit: 3; stroke-width: 4px; stroke-opacity: 0.6; stroke-dasharray: 30px; stroke-dashoffset: -24px;"/>
  </g>
  <g>
    <title>Icons</title>
    <path d="M 166.004 79.692 C 166.004 80.897 166.978 81.871 168.183 81.871 L 194.314 81.871 C 195.518 81.871 196.491 80.897 196.491 79.692 L 196.491 60.093 L 166.004 60.093 L 166.004 79.692 Z M 176.893 65.265 C 176.893 64.817 177.261 64.449 177.709 64.449 L 184.786 64.449 C 185.236 64.449 185.603 64.817 185.603 65.265 L 185.603 65.809 C 185.603 66.258 185.236 66.626 184.786 66.626 L 177.709 66.626 C 177.261 66.626 176.893 66.258 176.893 65.809 L 176.893 65.265 Z M 196.491 51.383 L 166.004 51.383 C 164.8 51.383 163.827 52.356 163.827 53.561 L 163.827 56.828 C 163.827 57.426 164.317 57.915 164.915 57.915 L 197.58 57.915 C 198.179 57.915 198.669 57.426 198.669 56.828 L 198.669 53.561 C 198.669 52.356 197.696 51.383 196.491 51.383 Z" style="paint-order: fill; fill-rule: evenodd; stroke: url(#color-1); stroke-width: 5px; vector-effect: non-scaling-stroke; fill: rgb(236, 235, 245); stroke-opacity: 0.1;"/>
    <path d="M 301.449 47.779 C 300.708 46.612 299.012 46.286 297.912 47.163 C 294.277 50.064 291.965 54.394 291.965 59.241 L 308.732 59.241 L 301.449 47.779 Z M 324.451 52.952 L 321.307 52.952 C 318.995 52.952 317.116 54.832 317.116 57.144 L 317.116 61.337 L 291.965 61.337 C 291.965 64.65 293.472 67.65 295.914 69.897 C 293.648 70.48 291.965 72.516 291.965 74.959 C 291.965 77.856 294.309 80.2 297.204 80.2 C 300.1 80.2 302.445 77.856 302.445 74.959 C 302.445 74.377 302.327 73.833 302.157 73.308 C 303.571 73.695 305.078 73.911 306.636 73.911 C 308.195 73.911 309.707 73.695 311.115 73.308 C 310.94 73.833 310.827 74.377 310.827 74.959 C 310.827 77.856 313.172 80.2 316.068 80.2 C 318.963 80.2 321.307 77.856 321.307 74.959 C 321.307 72.516 319.625 70.48 317.358 69.897 C 319.8 67.65 321.307 64.65 321.307 61.337 L 321.307 57.144 L 324.451 57.144 C 325.027 57.144 325.499 56.673 325.499 56.096 L 325.499 54.001 C 325.499 53.424 325.027 52.952 324.451 52.952 Z M 297.204 77.055 C 296.051 77.055 295.109 76.113 295.109 74.959 C 295.109 73.806 296.051 72.864 297.204 72.864 C 298.358 72.864 299.3 73.806 299.3 74.959 C 299.3 76.113 298.358 77.055 297.204 77.055 Z M 318.163 74.959 C 318.163 76.113 317.221 77.055 316.068 77.055 C 314.914 77.055 313.972 76.113 313.972 74.959 C 313.972 73.806 314.914 72.864 316.068 72.864 C 317.221 72.864 318.163 73.806 318.163 74.959 Z" style="paint-order: fill; fill-rule: evenodd; stroke: url(#color-1); stroke-width: 5px; vector-effect: non-scaling-stroke; fill: rgb(236, 235, 245); stroke-opacity: 0.1;"/>
    <path d="M 417.087 71.282 L 417.086 71.282 C 417.086 70.239 417.172 70.719 411.604 59.584 C 410.467 57.31 407.209 57.305 406.07 59.584 C 400.455 70.815 400.589 70.273 400.589 71.282 L 400.589 71.282 C 400.589 74.13 404.282 76.438 408.838 76.438 C 413.394 76.438 417.087 74.13 417.087 71.282 Z M 408.838 60.97 L 413.478 70.251 L 404.197 70.251 L 408.838 60.97 Z M 441.835 71.282 C 441.835 70.239 441.921 70.719 436.354 59.584 C 435.216 57.31 431.959 57.305 430.819 59.584 C 425.205 70.815 425.338 70.273 425.338 71.282 L 425.337 71.282 C 425.337 74.13 429.03 76.438 433.587 76.438 C 438.142 76.438 441.836 74.13 441.836 71.282 L 441.835 71.282 Z M 428.947 70.251 L 433.587 60.97 L 438.227 70.251 L 428.947 70.251 Z M 434.617 78.5 L 423.274 78.5 L 423.274 59.504 C 424.79 58.841 425.928 57.474 426.265 55.814 L 434.617 55.814 C 435.188 55.814 435.649 55.352 435.649 54.783 L 435.649 52.721 C 435.649 52.151 435.188 51.69 434.617 51.69 L 425.314 51.69 C 424.373 50.444 422.894 49.627 421.212 49.627 C 419.531 49.627 418.051 50.444 417.11 51.69 L 407.806 51.69 C 407.237 51.69 406.776 52.151 406.776 52.721 L 406.776 54.783 C 406.776 55.352 407.237 55.814 407.806 55.814 L 416.16 55.814 C 416.497 57.474 417.633 58.841 419.15 59.504 L 419.15 78.5 L 407.806 78.5 C 407.237 78.5 406.776 78.962 406.776 79.531 L 406.776 81.594 C 406.776 82.164 407.237 82.626 407.806 82.626 L 434.617 82.626 C 435.188 82.626 435.649 82.164 435.649 81.594 L 435.649 79.531 C 435.649 78.962 435.188 78.5 434.617 78.5 Z" style="paint-order: fill; fill-rule: evenodd; stroke: url(#color-1); stroke-width: 5px; vector-effect: non-scaling-stroke; fill: rgb(236, 235, 245); stroke-opacity: 0.1;"/>
    <path d="M 97.588 75.816 L 97.588 54.932 C 97.588 53.928 96.986 53.326 95.981 53.326 L 75.499 53.326 C 72.086 53.326 69.475 55.936 69.475 59.35 L 69.475 79.43 C 69.475 82.845 72.086 85.455 75.499 85.455 L 95.981 85.455 C 96.784 85.455 97.588 84.852 97.588 83.848 L 97.588 82.845 C 97.588 82.443 97.387 82.041 96.986 81.64 C 96.784 80.635 96.784 77.824 96.986 77.021 C 97.387 76.82 97.588 76.419 97.588 75.816 Z M 78.511 62.362 C 78.511 61.807 78.962 61.358 79.515 61.358 L 82.528 61.358 L 82.528 58.346 C 82.528 57.792 82.977 57.342 83.532 57.342 L 85.54 57.342 C 86.095 57.342 86.544 57.792 86.544 58.346 L 86.544 61.358 L 89.556 61.358 C 90.11 61.358 90.56 61.807 90.56 62.362 L 90.56 64.37 C 90.56 64.926 90.11 65.374 89.556 65.374 L 86.544 65.374 L 86.544 72.402 C 86.544 72.957 86.095 73.407 85.54 73.407 L 83.532 73.407 C 82.977 73.407 82.528 72.957 82.528 72.402 L 82.528 65.374 L 79.515 65.374 C 78.962 65.374 78.511 64.926 78.511 64.37 L 78.511 62.362 Z M 93.371 81.439 L 75.499 81.439 C 74.295 81.439 73.491 80.635 73.491 79.43 C 73.491 78.226 74.496 77.423 75.499 77.423 L 93.371 77.423 L 93.371 81.439 Z" style="paint-order: fill; fill-rule: evenodd; stroke: url(#color-1); stroke-width: 5px; vector-effect: non-scaling-stroke; fill: rgb(236, 235, 245); stroke-opacity: 0.1;"/>
    <path d="M 324.014 165.798 C 321.124 166.214 318.327 167.388 315.953 169.347 L 321.058 174.454 C 322.892 172.092 323.915 169.097 324.014 165.798 Z M 326.37 179.765 L 336.786 169.347 C 333.989 167.038 330.611 165.817 327.188 165.647 C 327.108 169.863 325.768 173.715 323.315 176.71 L 326.37 179.765 Z M 313.709 171.591 C 311.75 173.966 310.576 176.763 310.159 179.652 C 313.458 179.554 316.461 178.531 318.816 176.697 L 313.709 171.591 Z M 331.667 185.062 C 334.655 182.614 338.509 181.275 342.73 181.189 C 342.56 177.766 341.339 174.388 339.03 171.591 L 328.612 182.007 L 331.667 185.062 Z M 326.37 184.25 L 315.953 194.669 C 318.75 196.97 322.127 198.198 325.551 198.369 C 325.636 194.147 326.976 190.294 329.424 187.306 L 326.37 184.25 Z M 339.03 192.425 C 340.989 190.05 342.163 187.253 342.579 184.364 C 339.274 184.469 336.278 185.491 333.923 187.318 L 339.03 192.425 Z M 321.072 178.953 C 318.076 181.407 314.224 182.753 310.008 182.826 C 310.179 186.25 311.4 189.627 313.709 192.425 L 324.127 182.007 L 321.072 178.953 Z M 328.725 198.218 C 331.615 197.801 334.411 196.627 336.786 194.669 L 331.679 189.561 C 329.853 191.917 328.83 194.919 328.725 198.218 Z" style="paint-order: fill; fill-rule: evenodd; stroke: url(#color-1); stroke-width: 5px; vector-effect: non-scaling-stroke; fill: rgb(236, 235, 245); stroke-opacity: 0.1;"/>
    <path d="M 266.376 139.629 L 261.393 139.629 L 260.009 136.167 C 258.586 132.607 255.189 130.308 251.355 130.308 L 240.786 130.308 C 236.953 130.308 233.555 132.607 232.132 136.167 L 230.748 139.629 L 225.765 139.629 C 225.115 139.629 224.638 140.24 224.797 140.869 L 225.296 142.867 C 225.407 143.312 225.806 143.624 226.265 143.624 L 227.935 143.624 C 226.817 144.6 226.098 146.019 226.098 147.618 L 226.098 151.612 C 226.098 152.954 226.61 154.165 227.429 155.102 L 227.429 159.603 C 227.429 161.073 228.621 162.266 230.092 162.266 L 232.755 162.266 C 234.226 162.266 235.418 161.073 235.418 159.603 L 235.418 156.939 L 256.723 156.939 L 256.723 159.603 C 256.723 161.073 257.916 162.266 259.386 162.266 L 262.05 162.266 C 263.52 162.266 264.712 161.073 264.712 159.603 L 264.712 155.102 C 265.531 154.167 266.044 152.955 266.044 151.612 L 266.044 147.618 C 266.044 146.019 265.324 144.6 264.208 143.624 L 265.877 143.624 C 266.337 143.624 266.736 143.312 266.847 142.867 L 267.346 140.869 C 267.503 140.24 267.026 139.629 266.376 139.629 Z M 237.077 138.145 C 237.683 136.629 239.152 135.634 240.786 135.634 L 251.355 135.634 C 252.99 135.634 254.458 136.629 255.065 138.145 L 256.723 142.292 L 235.418 142.292 L 237.077 138.145 Z M 232.755 151.597 C 231.157 151.597 230.092 150.534 230.092 148.942 C 230.092 147.348 231.157 146.287 232.755 146.287 C 234.353 146.287 236.75 148.676 236.75 150.269 C 236.75 151.862 234.353 151.597 232.755 151.597 Z M 259.386 151.597 C 257.788 151.597 255.392 151.862 255.392 150.269 C 255.392 148.676 257.788 146.287 259.386 146.287 C 260.983 146.287 262.05 147.348 262.05 148.942 C 262.05 150.534 260.983 151.597 259.386 151.597 Z" style="paint-order: fill; fill-rule: evenodd; stroke: url(#color-1); stroke-width: 5px; vector-effect: non-scaling-stroke; fill: rgb(236, 235, 245); stroke-opacity: 0.1;"/>
    <path d="M 447.729 153.6 C 447.743 153.478 447.78 153.362 447.78 153.24 C 447.78 150.965 445.931 149.116 443.657 149.116 C 442.844 149.116 442.096 149.361 441.459 149.76 C 440.325 147.26 437.819 145.507 434.893 145.507 C 430.91 145.507 427.676 148.735 427.676 152.724 C 427.676 152.917 427.721 153.098 427.734 153.284 C 424.537 153.523 422.004 156.166 422.004 159.426 C 422.004 162.841 424.775 165.612 428.191 165.612 L 445.718 165.612 C 449.134 165.612 451.904 162.841 451.904 159.426 C 451.904 156.713 450.152 154.438 447.729 153.6 Z M 419.995 152.144 C 417.179 149.329 417.179 144.753 419.995 141.944 C 422.811 139.128 427.386 139.128 430.201 141.944 C 430.827 142.569 431.291 143.291 431.639 144.052 C 432.271 143.813 432.935 143.665 433.617 143.568 L 435.537 137.839 C 435.794 137.072 435.067 136.351 434.3 136.602 L 428.642 138.49 L 425.968 133.155 C 425.614 132.434 424.584 132.434 424.222 133.155 L 421.554 138.49 L 415.89 136.602 C 415.129 136.351 414.401 137.079 414.652 137.839 L 416.54 143.497 L 411.205 146.171 C 410.484 146.531 410.484 147.557 411.205 147.917 L 416.54 150.586 L 414.652 156.243 C 414.395 157.009 415.123 157.73 415.89 157.481 L 420.794 155.849 C 421.187 155.05 421.696 154.321 422.315 153.691 C 421.47 153.342 420.679 152.827 419.995 152.144 Z M 419.685 147.041 C 419.685 149.67 421.573 151.861 424.061 152.344 C 424.577 152.042 425.111 151.778 425.685 151.59 C 426.032 148.735 427.682 146.275 430.028 144.824 C 429.177 142.95 427.289 141.635 425.098 141.635 C 422.115 141.635 419.685 144.058 419.685 147.041 Z" style="paint-order: fill; fill-rule: evenodd; stroke: url(#color-1); stroke-width: 5px; vector-effect: non-scaling-stroke; fill: rgb(236, 235, 245); stroke-opacity: 0.1;"/>
    <path d="M 84.81 331.017 C 84.81 339.537 77.904 346.443 69.384 346.443 C 60.865 346.443 53.959 339.537 53.959 331.017 C 53.959 322.497 60.865 315.591 69.384 315.591 C 77.904 315.591 84.81 322.497 84.81 331.017 Z M 81.824 331.017 L 81.824 331 L 80.203 332.413 L 76.305 328.775 L 77.328 323.528 L 79.462 323.718 C 77.913 321.592 75.729 319.982 73.197 319.17 L 74.047 321.157 L 69.384 323.739 L 64.722 321.157 L 65.572 319.17 C 63.045 319.98 60.858 321.587 59.308 323.718 L 61.457 323.528 L 62.464 328.775 L 58.567 332.413 L 56.945 331 L 56.945 331.017 C 56.945 333.692 57.784 336.239 59.338 338.356 L 59.817 336.247 L 65.112 336.897 L 67.37 341.738 L 65.51 342.844 C 68.011 343.66 70.753 343.662 73.259 342.844 L 71.399 341.738 L 73.657 336.897 L 78.952 336.247 L 79.431 338.356 C 80.985 336.239 81.824 333.692 81.824 331.017 Z M 66.392 335.344 L 64.533 329.664 L 69.384 326.148 L 74.236 329.664 L 72.394 335.344 L 66.392 335.344 Z" style="paint-order: fill; fill-rule: evenodd; stroke: url(#color-1); stroke-width: 5px; vector-effect: non-scaling-stroke; fill: rgb(236, 235, 245); stroke-opacity: 0.1;"/>
    <path d="M 81.62 244.644 L 76.94 233.642 C 75.942 230.883 73.564 228.888 70.711 228.339 C 71.917 227.628 73.813 225.934 73.001 222.828 C 72.914 222.491 72.526 222.297 72.199 222.418 L 58.657 227.487 C 49.885 230.642 47.48 238.377 47.48 249.084 L 47.48 254.522 C 47.48 255.708 48.438 256.665 49.623 256.665 L 65.442 256.665 C 67.034 256.665 68.073 254.991 67.356 253.564 L 64.624 248.093 L 64.624 248.048 C 61.57 247.811 58.959 245.992 57.639 243.385 C 57.532 243.178 57.579 242.924 57.747 242.762 L 58.557 241.952 C 58.818 241.691 59.267 241.772 59.421 242.114 C 60.412 244.37 62.648 245.957 65.274 245.957 C 66.425 245.957 67.483 245.616 68.407 245.073 L 71.488 249.351 C 71.89 249.914 72.539 250.244 73.23 250.244 L 76.598 250.244 C 77.167 250.244 77.71 250.014 78.111 249.614 L 81.145 246.948 C 81.74 246.338 81.929 245.435 81.62 244.644 Z M 69.446 237.378 C 68.555 237.378 67.839 236.663 67.839 235.771 C 67.839 234.881 68.555 234.164 69.446 234.164 C 70.336 234.164 71.053 234.881 71.053 235.771 C 71.053 236.663 70.336 237.378 69.446 237.378 Z" style="paint-order: fill; fill-rule: evenodd; stroke: url(#color-1); stroke-width: 5px; vector-effect: non-scaling-stroke; fill: rgb(236, 235, 245); stroke-opacity: 0.1;"/>
    <path d="M 83.793 159.58 L 83.152 159.071 C 82.677 158.692 81.981 158.768 81.603 159.244 L 80.914 160.104 C 80.535 160.579 80.61 161.274 81.087 161.654 L 81.727 162.163 C 82.133 162.486 82.36 162.969 82.36 163.485 C 82.36 164.421 81.603 165.179 80.666 165.179 L 44.905 165.179 C 44.3 165.179 43.804 165.675 43.804 166.281 L 43.804 167.382 C 43.804 167.99 44.3 168.484 44.905 168.484 L 80.44 168.484 C 83.124 168.484 85.514 166.467 85.666 163.782 C 85.762 162.142 85.067 160.593 83.793 159.58 Z M 43.804 150.856 C 43.804 154.96 46.619 158.376 50.414 159.361 L 50.414 162.976 L 54.823 162.976 L 54.823 159.67 L 68.044 159.67 L 68.044 162.976 L 72.451 162.976 L 72.451 159.67 C 76.1 159.67 79.062 156.709 79.062 153.059 L 79.062 146.449 C 80.281 146.449 81.266 145.464 81.266 144.244 C 81.266 143.025 80.281 142.041 79.062 142.041 L 72.451 142.041 L 72.451 146.449 C 72.451 148.879 70.475 150.856 68.044 150.856 L 66.617 150.856 C 62.086 150.856 57.949 148.294 55.924 144.244 C 53.9 140.195 49.753 137.633 45.229 137.633 L 43.804 137.633 C 42.585 137.633 41.6 138.618 41.6 139.838 C 41.6 141.056 42.585 142.041 43.804 142.041 L 43.804 150.856 Z" style="paint-order: fill; fill-rule: evenodd; stroke: url(#color-1); stroke-width: 5px; vector-effect: non-scaling-stroke; fill: rgb(236, 235, 245); stroke-opacity: 0.1;"/>
    <path d="M 179.355 244.739 C 181.049 244.739 182.423 243.364 182.423 241.671 C 182.423 239.976 181.049 238.602 179.355 238.602 C 177.662 238.602 176.287 239.976 176.287 241.671 C 176.287 243.364 177.662 244.739 179.355 244.739 Z M 184.022 267.501 C 183.42 266.9 182.448 266.9 181.855 267.501 C 181.081 268.275 179.904 268.486 178.972 268.057 L 170.291 263.57 L 173.436 258.853 C 174.247 257.638 174.088 256.008 173.051 254.978 L 170.47 252.39 L 163.63 248.995 C 163.444 250.268 163.847 251.553 164.761 252.473 L 169.562 257.28 L 166.628 261.679 L 153.978 255.138 C 153.23 254.756 152.303 255.043 151.913 255.797 C 151.524 256.551 151.818 257.478 152.571 257.861 L 177.624 270.805 C 178.383 271.157 179.189 271.324 179.995 271.324 C 181.477 271.324 182.934 270.749 184.022 269.662 C 184.615 269.067 184.615 268.096 184.022 267.501 Z M 159.412 244.457 L 158.675 245.895 C 159.597 246.363 160.67 246.209 161.412 245.589 L 164.43 247.085 C 164.423 247.091 164.423 247.097 164.417 247.104 L 171.735 250.734 L 173.806 249.903 L 174.215 251.125 C 174.471 251.898 175.022 252.53 175.751 252.895 L 179.464 254.748 C 180.481 255.253 181.701 254.844 182.206 253.835 C 182.711 252.825 182.302 251.597 181.292 251.092 L 177.962 249.425 L 176.869 246.151 C 176.351 244.604 174.254 242.533 171.467 243.645 L 166.276 245.723 L 162.281 243.741 C 162.301 242.814 161.821 241.913 160.946 241.466 L 160.236 242.853 L 160.223 242.853 L 158.024 242.406 C 157.909 242.381 157.787 242.418 157.705 242.513 C 157.583 242.655 157.596 242.865 157.737 242.988 L 159.412 244.457 Z" style="paint-order: fill; fill-rule: evenodd; stroke: url(#color-1); stroke-width: 5px; vector-effect: non-scaling-stroke; fill: rgb(236, 235, 245); stroke-opacity: 0.1;"/>
    <path d="M 167.076 183.012 L 167.076 177.279 L 163.706 175.731 C 159.969 180.178 158.571 191.762 149.521 191.762 C 146.766 191.762 145.045 194.744 146.422 197.13 C 147.063 198.238 148.244 198.92 149.521 198.92 C 163.113 198.92 173.212 191.067 176.314 185.476 L 173.945 183.012 Z M 175.456 174.808 C 177.511 170.984 176.441 167.887 175.255 166.388 C 175.064 166.15 174.707 166.132 174.492 166.35 L 173.029 167.819 C 172.856 167.996 172.832 168.27 172.973 168.474 C 173.41 169.136 174.062 170.717 172.883 173.095 C 171.73 172.592 170.486 172.332 169.229 172.332 C 167.44 172.332 165.777 172.877 164.35 173.776 L 169.122 175.968 L 169.122 180.967 L 174.816 180.967 L 178.312 184.604 C 178.52 183.796 178.667 182.966 178.667 182.091 C 178.669 179.319 177.503 176.676 175.456 174.808 Z" style="paint-order: fill; fill-rule: evenodd; stroke: url(#color-1); stroke-width: 5px; vector-effect: non-scaling-stroke; fill: rgb(236, 235, 245); stroke-opacity: 0.1;"/>
    <path d="M 147.767 342.834 C 142.3 342.834 134.546 351.287 134.546 356.623 C 134.546 359.027 136.392 360.463 139.486 360.463 C 142.85 360.463 145.07 358.736 147.767 358.736 C 150.489 358.736 152.715 360.463 156.049 360.463 C 159.142 360.463 160.989 359.027 160.989 356.623 C 160.989 351.287 153.236 342.834 147.767 342.834 Z M 137.626 341.966 C 136.91 339.58 134.703 338.034 132.698 338.514 C 130.693 338.994 129.648 341.316 130.364 343.702 C 131.08 346.088 133.287 347.634 135.292 347.154 C 137.297 346.674 138.341 344.352 137.626 341.966 Z M 143.46 340.536 C 145.59 339.973 146.656 337.096 145.841 334.107 C 145.025 331.116 142.638 329.147 140.507 329.709 C 138.376 330.268 137.31 333.147 138.126 336.137 C 138.941 339.126 141.329 341.096 143.46 340.536 Z M 162.837 338.515 C 160.832 338.035 158.626 339.581 157.909 341.967 C 157.193 344.353 158.237 346.675 160.243 347.155 C 162.248 347.635 164.453 346.089 165.171 343.702 C 165.886 341.317 164.842 338.994 162.837 338.515 Z M 152.075 340.536 C 154.206 341.095 156.593 339.126 157.41 336.137 C 158.225 333.147 157.158 330.269 155.028 329.709 C 152.898 329.146 150.509 331.116 149.694 334.107 C 148.879 337.096 149.946 339.973 152.075 340.536 Z" style="paint-order: fill; fill-rule: evenodd; stroke: url(#color-1); stroke-width: 5px; vector-effect: non-scaling-stroke; fill: rgb(236, 235, 245); stroke-opacity: 0.1;"/>
    <path d="M 338.528 239.49 L 336.482 239.49 L 335.635 238.644 C 334.868 237.876 333.827 237.444 332.743 237.445 L 331.433 237.445 C 330.721 237.445 330.023 237.63 329.403 237.984 L 319.61 243.58 L 316.03 243.58 C 309.253 243.58 303.759 249.073 303.759 255.85 L 303.759 255.955 C 303.759 258.048 302.737 259.925 301.232 261.38 C 300.07 262.502 299.436 264.172 299.751 265.967 C 300.182 268.447 302.491 270.167 305.008 270.167 L 311.941 270.167 C 313.069 270.167 313.985 269.25 313.985 268.121 C 313.985 266.992 313.069 266.076 311.941 266.076 L 304.781 266.076 C 304.217 266.076 303.759 265.618 303.759 265.055 C 303.759 264.489 304.217 264.031 304.781 264.031 L 319.098 264.031 C 319.664 264.031 320.121 263.573 320.121 263.009 L 320.121 261.986 C 320.121 260.856 319.204 259.941 318.074 259.941 L 313.985 259.941 L 323.54 254.795 L 328.302 264.031 L 333.414 264.031 C 333.978 264.031 334.437 263.573 334.437 263.009 L 334.437 261.986 C 334.437 260.856 333.52 259.941 332.392 259.941 L 330.588 259.941 L 327.066 252.898 L 332.975 249.716 L 334.437 249.716 C 337.825 249.716 340.572 246.968 340.572 243.58 L 340.572 241.535 C 340.572 240.405 339.656 239.49 338.528 239.49 Z M 332.392 240.513 C 332.957 240.513 333.414 240.971 333.414 241.535 C 333.414 242.1 332.957 242.557 332.392 242.557 C 331.827 242.557 331.368 242.1 331.368 241.535 C 331.368 240.971 331.827 240.513 332.392 240.513 Z M 334.437 246.647 L 332.202 246.647 L 325.694 250.154 L 324.814 248.391 L 332.392 244.602 L 337.316 244.602 C 336.894 245.79 335.768 246.647 334.437 246.647 Z" style="paint-order: fill; fill-rule: evenodd; stroke: url(#color-1); stroke-width: 5px; vector-effect: non-scaling-stroke; fill: rgb(236, 235, 245); stroke-opacity: 0.1;"/>
    <path d="M 230.567 316.395 L 228.89 316.395 C 228.426 316.395 228.051 316.77 228.051 317.234 L 228.051 324.786 L 231.407 324.786 L 231.407 317.234 C 231.407 316.77 231.031 316.395 230.567 316.395 Z M 235.602 316.395 L 233.924 316.395 C 233.46 316.395 233.085 316.77 233.085 317.234 L 233.085 324.786 L 236.442 324.786 L 236.442 317.234 C 236.442 316.77 236.066 316.395 235.602 316.395 Z M 245.672 316.395 L 243.993 316.395 C 243.53 316.395 243.154 316.77 243.154 317.234 L 243.154 324.786 L 246.51 324.786 L 246.51 317.234 C 246.51 316.77 246.134 316.395 245.672 316.395 Z M 250.706 316.395 L 249.027 316.395 C 248.564 316.395 248.189 316.77 248.189 317.234 L 248.189 324.786 L 251.544 324.786 L 251.544 317.234 C 251.544 316.77 251.169 316.395 250.706 316.395 Z M 254.901 314.717 C 255.827 314.717 256.579 313.966 256.579 313.039 C 256.579 312.113 254.901 309.683 254.901 309.683 C 254.901 309.683 253.222 312.113 253.222 313.039 C 253.222 313.966 253.974 314.717 254.901 314.717 Z M 249.866 314.717 C 250.793 314.717 251.544 313.966 251.544 313.039 C 251.544 312.113 249.866 309.683 249.866 309.683 C 249.866 309.683 248.189 312.113 248.189 313.039 C 248.189 313.966 248.94 314.717 249.866 314.717 Z M 244.832 314.717 C 245.759 314.717 246.51 313.966 246.51 313.039 C 246.51 312.113 244.832 309.683 244.832 309.683 C 244.832 309.683 243.154 312.113 243.154 313.039 C 243.154 313.966 243.906 314.717 244.832 314.717 Z M 239.797 314.717 C 240.725 314.717 241.476 313.966 241.476 313.039 C 241.476 312.113 239.797 309.683 239.797 309.683 C 239.797 309.683 238.119 312.113 238.119 313.039 C 238.119 313.966 238.871 314.717 239.797 314.717 Z M 234.763 314.717 C 235.69 314.717 236.442 313.966 236.442 313.039 C 236.442 312.113 234.763 309.683 234.763 309.683 C 234.763 309.683 233.085 312.113 233.085 313.039 C 233.085 313.966 233.836 314.717 234.763 314.717 Z M 229.728 314.717 C 230.656 314.717 231.407 313.966 231.407 313.039 C 231.407 312.113 229.728 309.683 229.728 309.683 C 229.728 309.683 228.051 312.113 228.051 313.039 C 228.051 313.966 228.802 314.717 229.728 314.717 Z M 224.694 314.717 C 225.621 314.717 226.373 313.966 226.373 313.039 C 226.373 312.113 224.694 309.683 224.694 309.683 C 224.694 309.683 223.016 312.113 223.016 313.039 C 223.016 313.966 223.768 314.717 224.694 314.717 Z M 253.222 324.786 C 253.222 325.713 252.471 326.464 251.544 326.464 L 241.476 326.464 L 241.476 317.234 C 241.476 316.77 241.1 316.395 240.636 316.395 L 238.959 316.395 C 238.495 316.395 238.119 316.77 238.119 317.234 L 238.119 326.464 L 228.051 326.464 C 227.124 326.464 226.373 325.713 226.373 324.786 L 226.373 317.234 C 226.373 316.77 225.997 316.395 225.533 316.395 L 223.855 316.395 C 223.392 316.395 223.016 316.77 223.016 317.234 L 223.016 324.786 C 223.016 327.567 225.27 329.821 228.051 329.821 L 238.119 329.821 L 238.119 333.176 L 228.89 333.176 C 228.426 333.176 228.051 333.552 228.051 334.016 L 228.051 335.694 C 228.051 336.158 228.426 336.533 228.89 336.533 L 250.706 336.533 C 251.169 336.533 251.544 336.158 251.544 335.694 L 251.544 334.016 C 251.544 333.552 251.169 333.176 250.706 333.176 L 241.476 333.176 L 241.476 329.821 L 251.544 329.821 C 254.324 329.821 256.579 327.567 256.579 324.786 L 256.579 317.234 C 256.579 316.77 256.203 316.395 255.74 316.395 L 254.061 316.395 C 253.598 316.395 253.222 316.77 253.222 317.234 L 253.222 324.786 Z" style="paint-order: fill; fill-rule: evenodd; stroke: url(#color-1); stroke-width: 5px; vector-effect: non-scaling-stroke; fill: rgb(236, 235, 245); stroke-opacity: 0.1;"/>
    <path d="M 444.759 230.402 L 444.68 230.402 C 445.737 221.195 436.431 214.297 427.93 217.984 C 423.067 220.094 420.156 225.136 420.761 230.402 L 420.682 230.402 C 417.592 230.402 415.663 233.747 417.207 236.421 C 417.924 237.664 419.249 238.428 420.682 238.428 L 444.759 238.428 C 447.848 238.428 449.778 235.083 448.233 232.408 C 447.517 231.167 446.192 230.402 444.759 230.402 Z M 430.328 258.298 C 431.177 260.14 433.703 260.371 434.873 258.714 C 434.966 258.583 435.046 258.444 435.113 258.298 L 443.421 241.103 L 422.019 241.103 Z" style="paint-order: fill; fill-rule: evenodd; stroke: url(#color-1); stroke-width: 5px; vector-effect: non-scaling-stroke; fill: rgb(236, 235, 245); stroke-opacity: 0.1;"/>
    <path d="M 322.941 342.175 L 317.42 338.725 C 316.885 338.39 316.154 338.58 315.893 339.154 C 315.035 341.031 314.527 343.048 314.396 345.106 C 314.356 345.713 314.865 346.221 315.472 346.221 L 321.947 346.221 C 322.478 346.221 322.887 345.804 322.949 345.277 C 323.021 344.655 323.165 344.055 323.364 343.481 C 323.535 342.992 323.381 342.45 322.941 342.175 Z M 335.63 329.687 C 334.285 329.342 332.879 329.154 331.427 329.154 C 329.976 329.154 328.569 329.342 327.225 329.687 C 326.613 329.843 326.297 330.527 326.532 331.113 L 329.03 338.048 C 329.182 338.471 329.584 338.754 330.034 338.755 L 332.82 338.755 C 333.27 338.755 333.671 338.472 333.824 338.048 L 336.322 331.113 C 336.557 330.527 336.24 329.844 335.63 329.687 Z M 321.826 348.355 L 315.426 348.355 C 314.836 348.355 314.359 348.832 314.359 349.422 L 314.359 353.688 C 314.359 354.277 314.836 354.755 315.426 354.755 L 321.826 354.755 C 322.416 354.755 322.893 354.277 322.893 353.688 L 322.893 349.422 C 322.893 348.832 322.416 348.355 321.826 348.355 Z M 321.826 356.888 L 315.426 356.888 C 314.836 356.888 314.359 357.366 314.359 357.956 L 314.359 362.222 C 314.359 362.811 314.836 363.289 315.426 363.289 L 321.826 363.289 C 322.416 363.289 322.893 362.811 322.893 362.222 L 322.893 357.956 C 322.893 357.366 322.416 356.888 321.826 356.888 Z M 326.981 337.977 L 324.559 331.922 C 324.324 331.334 323.618 331.056 323.064 331.368 C 321.243 332.397 319.625 333.751 318.29 335.362 C 317.887 335.85 318.034 336.593 318.572 336.93 L 324.1 340.384 C 324.535 340.656 325.078 340.56 325.441 340.199 C 325.787 339.856 326.161 339.542 326.56 339.262 C 326.979 338.968 327.17 338.451 326.981 337.977 Z M 340.906 346.221 L 347.382 346.221 C 347.989 346.221 348.498 345.713 348.458 345.106 C 348.326 343.048 347.819 341.031 346.961 339.154 C 346.699 338.58 345.969 338.39 345.433 338.725 L 339.912 342.175 C 339.472 342.45 339.319 342.992 339.49 343.481 C 339.69 344.055 339.833 344.656 339.905 345.277 C 339.967 345.804 340.376 346.221 340.906 346.221 Z M 344.563 335.362 C 343.228 333.751 341.611 332.397 339.789 331.368 C 339.236 331.056 338.53 331.334 338.294 331.922 L 335.872 337.977 C 335.682 338.451 335.874 338.968 336.292 339.261 C 336.693 339.542 337.067 339.854 337.411 340.199 C 337.775 340.559 338.318 340.655 338.752 340.384 L 344.282 336.929 C 344.82 336.593 344.967 335.85 344.563 335.362 Z M 347.427 348.355 L 341.027 348.355 C 340.437 348.355 339.96 348.832 339.96 349.422 L 339.96 353.688 C 339.96 354.277 340.437 354.755 341.027 354.755 L 347.427 354.755 C 348.017 354.755 348.494 354.277 348.494 353.688 L 348.494 349.422 C 348.494 348.832 348.017 348.355 347.427 348.355 Z M 347.427 356.888 L 341.027 356.888 C 340.437 356.888 339.96 357.366 339.96 357.956 L 339.96 362.222 C 339.96 362.811 340.437 363.289 341.027 363.289 L 347.427 363.289 C 348.017 363.289 348.494 362.811 348.494 362.222 L 348.494 357.956 C 348.494 357.366 348.017 356.888 347.427 356.888 Z M 330.36 340.996 L 330.36 360.622 C 330.36 360.917 330.598 361.156 330.893 361.156 L 331.961 361.156 C 332.255 361.156 332.494 360.917 332.494 360.622 L 332.494 340.996 C 332.145 340.936 331.792 340.888 331.427 340.888 C 331.062 340.888 330.709 340.936 330.36 340.996 Z M 326.093 343.763 L 326.093 360.622 C 326.093 360.917 326.332 361.156 326.627 361.156 L 327.693 361.156 C 327.988 361.156 328.226 360.917 328.226 360.622 L 328.226 341.778 C 327.375 342.275 326.637 342.943 326.093 343.763 Z M 334.627 341.778 L 334.627 360.622 C 334.627 360.917 334.865 361.156 335.161 361.156 L 336.227 361.156 C 336.521 361.156 336.76 360.917 336.76 360.622 L 336.76 343.763 C 336.217 342.943 335.479 342.275 334.627 341.778 Z" style="paint-order: fill; fill-rule: evenodd; stroke: url(#color-1); stroke-width: 5px; vector-effect: non-scaling-stroke; fill: rgb(236, 235, 245); stroke-opacity: 0.1;"/>
    <path d="M 429.536 319.901 L 429.536 318.596 L 430.662 318.596 C 431.285 318.596 431.788 318.091 431.788 317.468 L 431.788 316.342 C 431.788 315.719 431.285 315.215 430.662 315.215 L 423.902 315.215 C 423.28 315.215 422.776 315.719 422.776 316.342 L 422.776 317.468 C 422.776 318.091 423.28 318.596 423.902 318.596 L 425.029 318.596 L 425.029 319.901 C 417.387 320.997 411.509 327.55 411.509 335.494 L 443.054 335.494 C 443.054 327.55 437.176 320.997 429.536 319.901 Z M 444.182 337.747 L 410.383 337.747 C 409.76 337.747 409.256 338.252 409.256 338.874 L 409.256 341.128 C 409.256 341.75 409.76 342.255 410.383 342.255 L 444.182 342.255 C 444.804 342.255 445.308 341.75 445.308 341.128 L 445.308 338.874 C 445.308 338.252 444.804 337.747 444.182 337.747 Z" style="paint-order: fill; fill-rule: evenodd; stroke: url(#color-1); stroke-width: 5px; vector-effect: non-scaling-stroke; fill: rgb(236, 235, 245); stroke-opacity: 0.1;"/>
  </g>
</svg>