<svg viewBox="0 0 500 400">
  <defs>
    <linearGradient gradientUnits="userSpaceOnUse" x1="255.749" y1="9.873" x2="255.749" y2="26.443" id="gradient-3">
      <stop offset="0" style="stop-color: rgba(216, 216, 216, 1)"/>
      <stop offset="1" style="stop-color: rgba(165, 165, 165, 1)"/>
    </linearGradient>
    <linearGradient gradientUnits="userSpaceOnUse" x1="255.749" y1="9.873" x2="255.749" y2="26.443" id="gradient-1">
      <stop offset="0" style="stop-color: rgba(216, 216, 216, 1)"/>
      <stop offset="1" style="stop-color: rgba(165, 165, 165, 1)"/>
    </linearGradient>
    <linearGradient gradientUnits="userSpaceOnUse" x1="251.421" y1="31.076" x2="251.421" y2="379.279" id="gradient-2">
      <stop offset="0" style="stop-color: rgba(99, 242, 106, 1)"/>
      <stop offset="1" style="stop-color: rgba(18, 221, 29, 1)"/>
    </linearGradient>
    <linearGradient gradientUnits="userSpaceOnUse" x1="297.154" y1="46.664" x2="297.154" y2="87.417" id="gradient-4" gradientTransform="matrix(0.908835, 0, 0, 0.908835, 36.916006, 4.253869)">
      <stop offset="0" style="stop-color: rgba(96, 51, 242, 1)"/>
      <stop offset="1" style="stop-color: rgba(51, 11, 180, 1)"/>
    </linearGradient>
    <linearGradient gradientUnits="userSpaceOnUse" x1="177.421" y1="47.301" x2="177.421" y2="86.814" id="gradient-5" gradientTransform="matrix(0.908835, 0, 0, 0.908835, 24.684212, 3.675181)">
      <stop offset="0" style="stop-color: rgba(96, 51, 242, 1)"/>
      <stop offset="1" style="stop-color: rgba(51, 11, 180, 1)"/>
    </linearGradient>
    <linearGradient gradientUnits="userSpaceOnUse" x1="38.406" y1="191.591" x2="38.406" y2="249.478" id="gradient-6" gradientTransform="matrix(0.639828, 0, 0, 0.639828, 303.93438, 40.377266)">
      <stop offset="0" style="stop-color: rgba(96, 51, 242, 1)"/>
      <stop offset="1" style="stop-color: rgba(51, 11, 180, 1)"/>
    </linearGradient>
    <linearGradient gradientUnits="userSpaceOnUse" x1="346.799" y1="441.089" x2="346.799" y2="474.483" id="gradient-8" gradientTransform="matrix(0.908835, 0, 0, 0.908835, 113.281979, -78.726618)">
      <stop offset="0" style="stop-color: rgba(96, 51, 242, 1)"/>
      <stop offset="1" style="stop-color: rgba(51, 11, 180, 1)"/>
    </linearGradient>
    <linearGradient gradientUnits="userSpaceOnUse" x1="281.221" y1="442.814" x2="281.221" y2="480.373" id="gradient-9" gradientTransform="matrix(0.908835, 0, 0, 0.908835, 75.843945, -73.291002)">
      <stop offset="0" style="stop-color: rgba(96, 51, 242, 1)"/>
      <stop offset="1" style="stop-color: rgba(51, 11, 180, 1)"/>
    </linearGradient>
    <linearGradient gradientUnits="userSpaceOnUse" x1="188.45" y1="445.474" x2="188.45" y2="475.719" id="gradient-10" gradientTransform="matrix(1.187854, 0, 0, 1.187854, 20.00216, -220.446376)">
      <stop offset="0" style="stop-color: rgba(96, 51, 242, 1)"/>
      <stop offset="1" style="stop-color: rgba(51, 11, 180, 1)"/>
    </linearGradient>
    <linearGradient gradientUnits="userSpaceOnUse" x1="190.802" y1="389.892" x2="190.802" y2="423.898" id="gradient-11" gradientTransform="matrix(1.089144, 0, 0, 1.089144, 108.965075, -182.696767)">
      <stop offset="0" style="stop-color: rgba(96, 51, 242, 1)"/>
      <stop offset="1" style="stop-color: rgba(51, 11, 180, 1)"/>
    </linearGradient>
    <linearGradient gradientUnits="userSpaceOnUse" x1="270.095" y1="387.62" x2="270.095" y2="440.548" id="gradient-12" gradientTransform="matrix(0.908835, 0, 0, 0.908835, 185.096222, -126.817867)">
      <stop offset="0" style="stop-color: rgba(96, 51, 242, 1)"/>
      <stop offset="1" style="stop-color: rgba(51, 11, 180, 1)"/>
    </linearGradient>
    <linearGradient gradientUnits="userSpaceOnUse" x1="118.162" y1="388.071" x2="118.162" y2="424.387" id="gradient-13" gradientTransform="matrix(1.019873, 0, 0, 1.019873, 41.466247, -232.819855)">
      <stop offset="0" style="stop-color: rgba(96, 51, 242, 1)"/>
      <stop offset="1" style="stop-color: rgba(51, 11, 180, 1)"/>
    </linearGradient>
    <linearGradient gradientUnits="userSpaceOnUse" x1="120.95" y1="442.372" x2="120.95" y2="479.036" id="gradient-14" gradientTransform="matrix(1.010196, 0, 0, 1.010196, 29.284222, -118.215036)">
      <stop offset="0" style="stop-color: rgba(96, 51, 242, 1)"/>
      <stop offset="1" style="stop-color: rgba(51, 11, 180, 1)"/>
    </linearGradient>
    <linearGradient gradientUnits="userSpaceOnUse" x1="36.48" y1="450.888" x2="36.48" y2="487.539" id="gradient-15" gradientTransform="matrix(1.010552, 0, 0, 1.010552, 134.018217, -210.10209)">
      <stop offset="0" style="stop-color: rgba(96, 51, 242, 1)"/>
      <stop offset="1" style="stop-color: rgba(51, 11, 180, 1)"/>
    </linearGradient>
    <linearGradient gradientUnits="userSpaceOnUse" x1="43.482" y1="400" x2="43.482" y2="432.694" id="gradient-16" gradientTransform="matrix(1.132861, 0, 0, 1.132861, 15.054854, -317.618145)">
      <stop offset="0" style="stop-color: rgba(96, 51, 242, 1)"/>
      <stop offset="1" style="stop-color: rgba(51, 11, 180, 1)"/>
    </linearGradient>
    <linearGradient gradientUnits="userSpaceOnUse" x1="38.474" y1="347.945" x2="38.474" y2="383.096" id="gradient-17" gradientTransform="matrix(1.170859, 0, 0, 1.170859, 20.722277, -181.115867)">
      <stop offset="0" style="stop-color: rgba(96, 51, 242, 1)"/>
      <stop offset="1" style="stop-color: rgba(51, 11, 180, 1)"/>
    </linearGradient>
    <linearGradient gradientUnits="userSpaceOnUse" x1="31.326" y1="300" x2="31.326" y2="338.163" id="gradient-18" gradientTransform="matrix(0.970515, 0, 0, 0.970515, 41.548001, 23.677003)">
      <stop offset="0" style="stop-color: rgba(96, 51, 242, 1)"/>
      <stop offset="1" style="stop-color: rgba(51, 11, 180, 1)"/>
    </linearGradient>
    <linearGradient gradientUnits="userSpaceOnUse" x1="30.509" y1="244.73" x2="30.509" y2="283.827" id="gradient-19" gradientTransform="matrix(0.94733, 0, 0, 0.94733, 405.489101, -101.973471)">
      <stop offset="0" style="stop-color: rgba(96, 51, 242, 1)"/>
      <stop offset="1" style="stop-color: rgba(51, 11, 180, 1)"/>
    </linearGradient>
    <linearGradient gradientUnits="userSpaceOnUse" x1="31.169" y1="194.321" x2="31.169" y2="234.588" id="gradient-20" gradientTransform="matrix(0.908835, 0, 0, 0.908835, 221.055132, -48.858772)">
      <stop offset="0" style="stop-color: rgba(96, 51, 242, 1)"/>
      <stop offset="1" style="stop-color: rgba(51, 11, 180, 1)"/>
    </linearGradient>
    <linearGradient gradientUnits="userSpaceOnUse" x1="122.727" y1="46.664" x2="122.727" y2="87.417" id="gradient-7" gradientTransform="matrix(0.908835, 0, 0, 0.908835, -39.979623, 4.254106)">
      <stop offset="0" style="stop-color: rgba(96, 51, 242, 1)"/>
      <stop offset="1" style="stop-color: rgba(51, 11, 180, 1)"/>
    </linearGradient>
    <linearGradient gradientUnits="userSpaceOnUse" x1="395.54" y1="46.664" x2="395.54" y2="87.417" id="gradient-21" gradientTransform="matrix(0.908835, 0, 0, 0.908835, 56.978791, 4.254107)">
      <stop offset="0" style="stop-color: rgba(96, 51, 242, 1)"/>
      <stop offset="1" style="stop-color: rgba(51, 11, 180, 1)"/>
    </linearGradient>
    <linearGradient gradientUnits="userSpaceOnUse" x1="250.154" y1="24.152" x2="250.154" y2="106.709" id="gradient-0">
      <stop offset="0" style="stop-color: rgba(166, 96, 35, 1)"/>
      <stop offset="1" style="stop-color: rgba(82, 47, 17, 1)"/>
    </linearGradient>
    <linearGradient gradientUnits="userSpaceOnUse" x1="250.154" y1="24.152" x2="250.154" y2="106.709" id="gradient-22">
      <stop offset="0" style="stop-color: #bada55"/>
      <stop offset="1" style="stop-color: #758d29"/>
    </linearGradient>
  </defs>
  <path style="stroke: rgb(0, 0, 0); paint-order: stroke; fill: url(#gradient-2);" d="M 244.902 290.818 C 244.902 290.818 260.221 303.304 298.108 311.634 C 354.015 266.289 362.624 227.955 362.624 194.945 C 362.624 132.166 295.349 118.919 249.265 118.772 C 203.181 118.625 121.459 127.848 121.459 195.297 C 121.459 261.983 173.36 307.729 173.36 307.729 C 173.36 307.729 242.422 375.699 319.098 377.337 C 395.774 378.975 416.313 377.706 431.724 377.592 C 447.135 377.478 472.488 364.282 472.159 328.727 C 471.83 293.172 465.668 148.003 470.965 89.586 C 476.262 31.169 442.372 30.824 408.877 31.41 C 375.382 31.996 109.694 32.294 93.499 31.169 C 77.304 30.044 32.194 38.644 31.226 81.712 C 30.258 124.78 36.941 285.327 31.226 328.404 C 25.511 371.481 66.124 377.72 85.896 378.911 C 105.668 380.102 156.087 378.051 165.016 377.716 C 173.945 377.381 211.014 377.716 242.222 358.789 C 216.562 344.523 203.416 337.022 177.887 314.831 C 127.017 314.831 90.298 325.793 100 280.25 C 105.976 221.989 100 153.869 100 132.939 C 100 115.824 100 100 138.013 100 C 183.189 100 308.615 100 369.365 100 C 400 100 402.724 126.38 402.746 131.998 C 402.87 163.648 400 236.385 400 280.444 C 400 324.503 332.885 319.672 303.68 314.831 C 274.475 309.99 248.051 297.399 233.843 285.622 C 219.635 273.845 194.982 253.594 194.982 216.473 C 194.982 198.676 204.338 168.135 249.265 168.135 C 294.853 168.135 303.042 194.575 303.042 216.597 C 303.042 276.34 242.113 288.899 244.902 290.818 Z"/>
  <path d="M 167.974 80.009 C 167.974 81.429 169.121 82.575 170.54 82.575 L 201.32 82.575 C 202.739 82.575 203.885 81.429 203.885 80.009 L 203.885 56.924 L 167.974 56.924 L 167.974 80.009 Z M 180.8 63.016 C 180.8 62.487 181.233 62.054 181.761 62.054 L 190.098 62.054 C 190.627 62.054 191.06 62.487 191.06 63.016 L 191.06 63.657 C 191.06 64.186 190.627 64.619 190.098 64.619 L 181.761 64.619 C 181.233 64.619 180.8 64.186 180.8 63.657 L 180.8 63.016 Z M 203.885 46.664 L 167.974 46.664 C 166.556 46.664 165.41 47.81 165.41 49.229 L 165.41 53.077 C 165.41 53.782 165.987 54.359 166.692 54.359 L 205.168 54.359 C 205.874 54.359 206.451 53.782 206.451 53.077 L 206.451 49.229 C 206.451 47.81 205.305 46.664 203.885 46.664 Z" style="vector-effect: non-scaling-stroke; stroke: rgb(186, 218, 85); fill: url(#gradient-5);"/>
  <rect x="242.485" y="24.152" width="15.338" height="82.557" style="paint-order: fill; fill: url(#gradient-0); stroke: url(#gradient-22);"/>
  <circle style="fill: url(#gradient-3); stroke: rgba(0, 0, 0, 0.57); stroke-width: 0px;" cx="255.749" cy="18.158" r="8.285" transform="matrix(1, 0, 0, 0.57525, -5.586909, 14.378909)"/>
  <circle style="fill: url(#gradient-1); stroke: rgba(0, 0, 0, 0.64); stroke-width: 0px;" cx="255.749" cy="18.158" r="8.285" transform="matrix(1, 0, 0, 0.57525, -5.911069, 95.791069)"/>
  <path d="M 298.937 47.895 C 298.119 46.607 296.246 46.246 295.031 47.215 C 291.016 50.419 288.463 55.201 288.463 60.554 L 306.981 60.554 L 298.937 47.895 Z M 324.342 53.609 L 320.869 53.609 C 318.316 53.609 316.24 55.685 316.24 58.239 L 316.24 62.869 L 288.463 62.869 C 288.463 66.528 290.127 69.842 292.824 72.323 C 290.322 72.967 288.463 75.216 288.463 77.914 C 288.463 81.113 291.052 83.702 294.249 83.702 C 297.447 83.702 300.037 81.113 300.037 77.914 C 300.037 77.271 299.907 76.67 299.719 76.091 C 301.281 76.518 302.945 76.757 304.666 76.757 C 306.388 76.757 308.058 76.518 309.613 76.091 C 309.419 76.67 309.295 77.271 309.295 77.914 C 309.295 81.113 311.885 83.702 315.083 83.702 C 318.28 83.702 320.869 81.113 320.869 77.914 C 320.869 75.216 319.011 72.967 316.508 72.323 C 319.205 69.842 320.869 66.528 320.869 62.869 L 320.869 58.239 L 324.342 58.239 C 324.978 58.239 325.499 57.718 325.499 57.081 L 325.499 54.767 C 325.499 54.13 324.978 53.609 324.342 53.609 Z M 294.249 80.229 C 292.976 80.229 291.935 79.188 291.935 77.914 C 291.935 76.641 292.976 75.6 294.249 75.6 C 295.523 75.6 296.564 76.641 296.564 77.914 C 296.564 79.188 295.523 80.229 294.249 80.229 Z M 317.397 77.914 C 317.397 79.188 316.356 80.229 315.083 80.229 C 313.809 80.229 312.768 79.188 312.768 77.914 C 312.768 76.641 313.809 75.6 315.083 75.6 C 316.356 75.6 317.397 76.641 317.397 77.914 Z" style="paint-order: fill; stroke: rgb(186, 218, 85); fill: url(#gradient-4);"/>
  <path d="M 411.829 70.97 L 411.828 70.97 C 411.828 69.799 411.924 70.338 405.675 57.84 C 404.398 55.287 400.742 55.282 399.463 57.84 C 393.161 70.446 393.311 69.837 393.311 70.97 L 393.311 70.97 C 393.311 74.166 397.456 76.757 402.57 76.757 C 407.684 76.757 411.829 74.166 411.829 70.97 Z M 402.57 59.396 L 407.778 69.813 L 397.361 69.813 L 402.57 59.396 Z M 439.606 70.97 C 439.606 69.799 439.703 70.338 433.454 57.84 C 432.177 55.287 428.521 55.282 427.242 57.84 C 420.94 70.446 421.09 69.837 421.09 70.97 L 421.089 70.97 C 421.089 74.166 425.234 76.757 430.348 76.757 C 435.461 76.757 439.607 74.166 439.607 70.97 L 439.606 70.97 Z M 425.14 69.813 L 430.348 59.396 L 435.557 69.813 L 425.14 69.813 Z M 431.505 79.072 L 418.773 79.072 L 418.773 57.75 C 420.475 57.006 421.752 55.472 422.13 53.608 L 431.505 53.608 C 432.145 53.608 432.663 53.09 432.663 52.451 L 432.663 50.137 C 432.663 49.497 432.145 48.979 431.505 48.979 L 421.063 48.979 C 420.007 47.581 418.346 46.664 416.459 46.664 C 414.572 46.664 412.911 47.581 411.855 48.979 L 401.412 48.979 C 400.773 48.979 400.255 49.497 400.255 50.137 L 400.255 52.451 C 400.255 53.09 400.773 53.608 401.412 53.608 L 410.788 53.608 C 411.166 55.472 412.442 57.006 414.144 57.75 L 414.144 79.072 L 401.412 79.072 C 400.773 79.072 400.255 79.59 400.255 80.229 L 400.255 82.544 C 400.255 83.184 400.773 83.702 401.412 83.702 L 431.505 83.702 C 432.145 83.702 432.663 83.184 432.663 82.544 L 432.663 80.229 C 432.663 79.59 432.145 79.072 431.505 79.072 Z" style="stroke: rgb(186, 218, 85); fill: url(#gradient-21);"/>
  <path d="M 87.763 72.59 L 87.763 48.515 C 87.763 47.358 87.068 46.664 85.91 46.664 L 62.299 46.664 C 58.364 46.664 55.354 49.673 55.354 53.608 L 55.354 76.757 C 55.354 80.693 58.364 83.702 62.299 83.702 L 85.91 83.702 C 86.836 83.702 87.763 83.007 87.763 81.85 L 87.763 80.693 C 87.763 80.23 87.531 79.767 87.068 79.304 C 86.836 78.146 86.836 74.905 87.068 73.98 C 87.531 73.748 87.763 73.285 87.763 72.59 Z M 65.771 57.081 C 65.771 56.441 66.29 55.923 66.928 55.923 L 70.401 55.923 L 70.401 52.451 C 70.401 51.812 70.919 51.294 71.559 51.294 L 73.874 51.294 C 74.513 51.294 75.031 51.812 75.031 52.451 L 75.031 55.923 L 78.503 55.923 C 79.142 55.923 79.661 56.441 79.661 57.081 L 79.661 59.396 C 79.661 60.036 79.142 60.553 78.503 60.553 L 75.031 60.553 L 75.031 68.655 C 75.031 69.295 74.513 69.813 73.874 69.813 L 71.559 69.813 C 70.919 69.813 70.401 69.295 70.401 68.655 L 70.401 60.553 L 66.928 60.553 C 66.29 60.553 65.771 60.036 65.771 59.396 L 65.771 57.081 Z M 82.901 79.072 L 62.299 79.072 C 60.91 79.072 59.984 78.146 59.984 76.757 C 59.984 75.369 61.142 74.443 62.299 74.443 L 82.901 74.443 L 82.901 79.072 Z" style="stroke: rgb(186, 218, 85); fill: url(#gradient-7);"/>
  <path d="M 325.842 163.134 C 322.571 163.605 319.405 164.934 316.717 167.151 L 322.496 172.932 C 324.572 170.258 325.73 166.868 325.842 163.134 Z M 328.508 178.943 L 340.298 167.151 C 337.132 164.538 333.309 163.156 329.434 162.963 C 329.344 167.735 327.827 172.095 325.05 175.485 L 328.508 178.943 Z M 314.178 169.691 C 311.96 172.379 310.631 175.545 310.16 178.815 C 313.894 178.704 317.292 177.546 319.958 175.47 L 314.178 169.691 Z M 334.504 184.939 C 337.886 182.168 342.248 180.652 347.026 180.555 C 346.833 176.68 345.451 172.857 342.838 169.691 L 331.046 181.481 L 334.504 184.939 Z M 328.508 184.02 L 316.717 195.812 C 319.883 198.417 323.706 199.807 327.581 200 C 327.678 195.222 329.194 190.86 331.965 187.478 L 328.508 184.02 Z M 342.838 193.272 C 345.055 190.584 346.384 187.418 346.855 184.148 C 343.114 184.267 339.723 185.424 337.057 187.492 L 342.838 193.272 Z M 322.512 178.024 C 319.121 180.801 314.761 182.325 309.989 182.408 C 310.182 186.283 311.564 190.106 314.178 193.272 L 325.969 181.481 L 322.512 178.024 Z M 331.174 199.829 C 334.445 199.358 337.61 198.029 340.298 195.812 L 334.518 190.031 C 332.451 192.697 331.293 196.095 331.174 199.829 Z" style="stroke: rgb(186, 218, 85); fill: url(#gradient-6);"/>
  <path d="M 272.634 138.42 L 266.928 138.42 L 265.343 134.456 C 263.713 130.379 259.824 127.747 255.433 127.747 L 243.33 127.747 C 238.941 127.747 235.05 130.379 233.42 134.456 L 231.835 138.42 L 226.129 138.42 C 225.385 138.42 224.839 139.12 225.02 139.841 L 225.592 142.129 C 225.719 142.638 226.176 142.995 226.702 142.995 L 228.614 142.995 C 227.334 144.113 226.51 145.738 226.51 147.569 L 226.51 152.143 C 226.51 153.68 227.097 155.066 228.034 156.139 L 228.034 161.293 C 228.034 162.977 229.4 164.343 231.084 164.343 L 234.134 164.343 C 235.818 164.343 237.183 162.977 237.183 161.293 L 237.183 158.243 L 261.58 158.243 L 261.58 161.293 C 261.58 162.977 262.946 164.343 264.63 164.343 L 267.68 164.343 C 269.364 164.343 270.729 162.977 270.729 161.293 L 270.729 156.139 C 271.667 155.068 272.254 153.681 272.254 152.143 L 272.254 147.569 C 272.254 145.738 271.43 144.113 270.151 142.995 L 272.063 142.995 C 272.589 142.995 273.046 142.638 273.173 142.129 L 273.745 139.841 C 273.925 139.12 273.378 138.42 272.634 138.42 Z M 239.083 136.721 C 239.777 134.985 241.459 133.846 243.33 133.846 L 255.433 133.846 C 257.305 133.846 258.986 134.985 259.681 136.721 L 261.58 141.47 L 237.183 141.47 L 239.083 136.721 Z M 234.134 152.125 C 232.304 152.125 231.084 150.908 231.084 149.085 C 231.084 147.26 232.304 146.045 234.134 146.045 C 235.963 146.045 238.708 148.781 238.708 150.605 C 238.708 152.429 235.963 152.125 234.134 152.125 Z M 264.63 152.125 C 262.8 152.125 260.056 152.429 260.056 150.605 C 260.056 148.781 262.8 146.045 264.63 146.045 C 266.459 146.045 267.68 147.26 267.68 149.085 C 267.68 150.908 266.459 152.125 264.63 152.125 Z" style="stroke: rgb(186, 218, 85); fill: url(#gradient-20);"/>
  <path d="M 452.849 153.421 C 452.865 153.284 452.907 153.154 452.907 153.017 C 452.907 150.464 450.831 148.388 448.279 148.388 C 447.367 148.388 446.527 148.663 445.812 149.111 C 444.539 146.305 441.726 144.338 438.442 144.338 C 433.972 144.338 430.342 147.961 430.342 152.438 C 430.342 152.655 430.392 152.858 430.407 153.067 C 426.819 153.335 423.976 156.301 423.976 159.96 C 423.976 163.794 427.086 166.904 430.92 166.904 L 450.592 166.904 C 454.427 166.904 457.536 163.794 457.536 159.96 C 457.536 156.915 455.569 154.362 452.849 153.421 Z M 421.72 151.787 C 418.56 148.627 418.56 143.491 421.72 140.338 C 424.881 137.178 430.016 137.178 433.176 140.338 C 433.878 141.04 434.399 141.85 434.79 142.704 C 435.499 142.436 436.244 142.27 437.01 142.161 L 439.165 135.731 C 439.454 134.87 438.638 134.061 437.777 134.342 L 431.426 136.462 L 428.425 130.473 C 428.027 129.664 426.871 129.664 426.465 130.473 L 423.47 136.462 L 417.113 134.342 C 416.259 134.061 415.442 134.878 415.724 135.731 L 417.843 142.081 L 411.854 145.083 C 411.045 145.487 411.045 146.638 411.854 147.043 L 417.843 150.038 L 415.724 156.388 C 415.435 157.248 416.252 158.057 417.113 157.777 L 422.617 155.946 C 423.058 155.049 423.63 154.231 424.324 153.523 C 423.376 153.132 422.488 152.554 421.72 151.787 Z M 421.373 146.059 C 421.373 149.01 423.492 151.469 426.284 152.012 C 426.863 151.672 427.463 151.376 428.107 151.165 C 428.497 147.961 430.349 145.199 432.982 143.571 C 432.027 141.467 429.907 139.992 427.448 139.992 C 424.1 139.992 421.373 142.711 421.373 146.059 Z" style="stroke: rgb(186, 218, 85); fill: url(#gradient-19);"/>
  <path d="M 90.469 333.35 C 90.469 343.578 82.178 351.869 71.95 351.869 C 61.722 351.869 53.432 343.578 53.432 333.35 C 53.432 323.122 61.722 314.831 71.95 314.831 C 82.178 314.831 90.469 323.122 90.469 333.35 Z M 86.884 333.35 L 86.884 333.33 L 84.938 335.026 L 80.258 330.659 L 81.487 324.359 L 84.048 324.588 C 82.189 322.035 79.567 320.102 76.527 319.127 L 77.547 321.513 L 71.95 324.613 L 66.353 321.513 L 67.373 319.127 C 64.339 320.1 61.714 322.029 59.853 324.588 L 62.433 324.359 L 63.642 330.659 L 58.963 335.026 L 57.016 333.33 L 57.016 333.35 C 57.016 336.562 58.023 339.619 59.889 342.161 L 60.464 339.629 L 66.821 340.409 L 69.532 346.221 L 67.299 347.549 C 70.301 348.528 73.593 348.531 76.602 347.549 L 74.369 346.221 L 77.079 340.409 L 83.436 339.629 L 84.011 342.161 C 85.877 339.619 86.884 336.562 86.884 333.35 Z M 68.358 338.545 L 66.126 331.726 L 71.95 327.505 L 77.774 331.726 L 75.563 338.545 L 68.358 338.545 Z" style="stroke: rgb(186, 218, 85); fill: url(#gradient-18);"/>
  <path d="M 86.175 253.005 L 80.556 239.797 C 79.358 236.484 76.503 234.089 73.078 233.43 C 74.526 232.577 76.802 230.543 75.827 226.814 C 75.723 226.41 75.257 226.177 74.864 226.322 L 58.607 232.408 C 48.076 236.195 45.189 245.481 45.189 258.335 L 45.189 264.864 C 45.189 266.287 46.339 267.436 47.761 267.436 L 66.752 267.436 C 68.664 267.436 69.911 265.427 69.05 263.714 L 65.77 257.146 L 65.77 257.091 C 62.104 256.807 58.969 254.623 57.385 251.494 C 57.256 251.245 57.313 250.94 57.515 250.746 L 58.487 249.773 C 58.8 249.46 59.339 249.557 59.524 249.967 C 60.714 252.676 63.398 254.581 66.551 254.581 C 67.933 254.581 69.203 254.172 70.312 253.52 L 74.011 258.656 C 74.494 259.332 75.273 259.728 76.102 259.728 L 80.146 259.728 C 80.829 259.728 81.48 259.452 81.962 258.971 L 85.604 255.771 C 86.319 255.039 86.545 253.955 86.175 253.005 Z M 71.559 244.282 C 70.49 244.282 69.63 243.423 69.63 242.353 C 69.63 241.284 70.49 240.423 71.559 240.423 C 72.628 240.423 73.489 241.284 73.489 242.353 C 73.489 243.423 72.628 244.282 71.559 244.282 Z" style="stroke: rgb(186, 218, 85); fill: url(#gradient-17);"/>
  <path d="M 88.511 161.873 L 87.741 161.262 C 87.171 160.807 86.335 160.898 85.882 161.469 L 85.055 162.502 C 84.6 163.072 84.69 163.907 85.262 164.363 L 86.03 164.974 C 86.518 165.362 86.791 165.941 86.791 166.561 C 86.791 167.685 85.882 168.595 84.757 168.595 L 41.825 168.595 C 41.098 168.595 40.503 169.19 40.503 169.918 L 40.503 171.24 C 40.503 171.969 41.098 172.563 41.825 172.563 L 84.485 172.563 C 87.708 172.563 90.577 170.141 90.759 166.917 C 90.875 164.949 90.04 163.089 88.511 161.873 Z M 40.503 151.399 C 40.503 156.326 43.883 160.427 48.439 161.61 L 48.439 165.95 L 53.731 165.95 L 53.731 161.981 L 69.604 161.981 L 69.604 165.95 L 74.895 165.95 L 74.895 161.981 C 79.275 161.981 82.831 158.426 82.831 154.044 L 82.831 146.109 C 84.294 146.109 85.477 144.926 85.477 143.462 C 85.477 141.998 84.294 140.817 82.831 140.817 L 74.895 140.817 L 74.895 146.109 C 74.895 149.026 72.522 151.399 69.604 151.399 L 67.891 151.399 C 62.451 151.399 57.484 148.324 55.053 143.462 C 52.623 138.601 47.645 135.525 42.214 135.525 L 40.503 135.525 C 39.039 135.525 37.857 136.708 37.857 138.172 C 37.857 139.634 39.039 140.817 40.503 140.817 L 40.503 151.399 Z" style="stroke: rgb(186, 218, 85); fill: url(#gradient-16);"/>
  <path d="M 183.619 252.49 C 185.536 252.49 187.091 250.934 187.091 249.017 C 187.091 247.099 185.536 245.544 183.619 245.544 C 181.702 245.544 180.146 247.099 180.146 249.017 C 180.146 250.934 181.702 252.49 183.619 252.49 Z M 188.901 278.254 C 188.22 277.574 187.12 277.574 186.448 278.254 C 185.573 279.13 184.24 279.369 183.185 278.883 L 173.359 273.805 L 176.919 268.465 C 177.837 267.09 177.657 265.245 176.484 264.08 L 173.562 261.15 L 165.82 257.308 C 165.61 258.748 166.066 260.203 167.1 261.244 L 172.534 266.685 L 169.213 271.664 L 154.895 264.261 C 154.049 263.828 152.999 264.153 152.558 265.007 C 152.117 265.86 152.45 266.909 153.303 267.343 L 181.659 281.994 C 182.519 282.392 183.431 282.581 184.343 282.581 C 186.021 282.581 187.67 281.93 188.901 280.7 C 189.573 280.027 189.573 278.927 188.901 278.254 Z M 161.046 252.171 L 160.212 253.799 C 161.255 254.328 162.47 254.154 163.31 253.452 L 166.725 255.145 C 166.718 255.152 166.718 255.159 166.711 255.167 L 174.994 259.276 L 177.338 258.335 L 177.801 259.718 C 178.091 260.593 178.714 261.309 179.539 261.722 L 183.742 263.819 C 184.893 264.391 186.274 263.928 186.846 262.786 C 187.417 261.642 186.954 260.253 185.811 259.681 L 182.042 257.794 L 180.805 254.088 C 180.219 252.337 177.845 249.993 174.691 251.252 L 168.815 253.604 L 164.293 251.36 C 164.316 250.311 163.773 249.292 162.782 248.785 L 161.978 250.355 L 161.964 250.355 L 159.475 249.849 C 159.344 249.821 159.207 249.863 159.114 249.971 C 158.975 250.131 158.99 250.369 159.15 250.508 L 161.046 252.171 Z" style="stroke: rgb(186, 218, 85); fill: url(#gradient-15);"/>
  <path d="M 167.38 181.995 L 167.38 175.505 L 163.565 173.753 C 159.335 178.787 157.753 191.898 147.51 191.898 C 144.391 191.898 142.443 195.274 144.002 197.974 C 144.727 199.229 146.064 200 147.51 200 C 162.894 200 174.325 191.112 177.836 184.784 L 175.155 181.995 Z M 176.865 172.709 C 179.191 168.38 177.98 164.875 176.637 163.178 C 176.421 162.909 176.017 162.888 175.774 163.135 L 174.118 164.798 C 173.922 164.998 173.895 165.308 174.054 165.539 C 174.549 166.288 175.287 168.078 173.953 170.77 C 172.648 170.2 171.24 169.906 169.817 169.906 C 167.792 169.906 165.91 170.523 164.294 171.54 L 169.696 174.021 L 169.696 179.68 L 176.141 179.68 L 180.098 183.796 C 180.333 182.882 180.499 181.942 180.499 180.952 C 180.502 177.815 179.182 174.823 176.865 172.709 Z" style="stroke: rgb(186, 218, 85); fill: url(#gradient-13);"/>
  <path d="M 151.468 344.541 C 144.904 344.541 135.595 354.69 135.595 361.096 C 135.595 363.982 137.812 365.706 141.526 365.706 C 145.564 365.706 148.23 363.632 151.468 363.632 C 154.735 363.632 157.408 365.706 161.41 365.706 C 165.124 365.706 167.341 363.982 167.341 361.096 C 167.341 354.69 158.033 344.541 151.468 344.541 Z M 139.293 343.499 C 138.433 340.635 135.784 338.779 133.377 339.355 C 130.97 339.931 129.715 342.719 130.575 345.583 C 131.435 348.448 134.084 350.304 136.491 349.728 C 138.898 349.152 140.152 346.364 139.293 343.499 Z M 146.297 341.782 C 148.854 341.107 150.134 337.653 149.155 334.064 C 148.176 330.474 145.31 328.11 142.752 328.784 C 140.194 329.456 138.914 332.912 139.893 336.501 C 140.872 340.09 143.739 342.455 146.297 341.782 Z M 169.559 339.356 C 167.152 338.78 164.504 340.636 163.643 343.5 C 162.784 346.365 164.037 349.153 166.445 349.729 C 168.852 350.305 171.5 348.449 172.361 345.583 C 173.22 342.72 171.967 339.931 169.559 339.356 Z M 156.64 341.782 C 159.198 342.454 162.064 340.09 163.044 336.501 C 164.023 332.912 162.742 329.457 160.185 328.784 C 157.627 328.109 154.76 330.474 153.781 334.064 C 152.802 337.653 154.083 341.107 156.64 341.782 Z" style="stroke: rgb(186, 218, 85); fill: url(#gradient-14);"/>
  <path d="M 337.612 244.267 L 335.296 244.267 L 334.337 243.309 C 333.469 242.44 332.291 241.951 331.064 241.952 L 329.581 241.952 C 328.776 241.952 327.985 242.162 327.284 242.563 L 316.199 248.896 L 312.147 248.896 C 304.476 248.896 298.258 255.114 298.258 262.785 L 298.258 262.903 C 298.258 265.272 297.101 267.397 295.397 269.044 C 294.082 270.314 293.365 272.204 293.721 274.236 C 294.209 277.043 296.823 278.99 299.671 278.99 L 307.519 278.99 C 308.796 278.99 309.832 277.952 309.832 276.674 C 309.832 275.396 308.796 274.359 307.519 274.359 L 299.414 274.359 C 298.776 274.359 298.258 273.841 298.258 273.203 C 298.258 272.563 298.776 272.045 299.414 272.045 L 315.62 272.045 C 316.26 272.045 316.778 271.526 316.778 270.888 L 316.778 269.73 C 316.778 268.451 315.74 267.415 314.461 267.415 L 309.832 267.415 L 320.647 261.591 L 326.037 272.045 L 331.824 272.045 C 332.462 272.045 332.981 271.526 332.981 270.888 L 332.981 269.73 C 332.981 268.451 331.944 267.415 330.667 267.415 L 328.625 267.415 L 324.639 259.443 L 331.327 255.842 L 332.981 255.842 C 336.816 255.842 339.926 252.731 339.926 248.896 L 339.926 246.582 C 339.926 245.303 338.889 244.267 337.612 244.267 Z M 330.667 245.425 C 331.306 245.425 331.824 245.943 331.824 246.582 C 331.824 247.221 331.306 247.739 330.667 247.739 C 330.027 247.739 329.508 247.221 329.508 246.582 C 329.508 245.943 330.027 245.425 330.667 245.425 Z M 332.981 252.368 L 330.452 252.368 L 323.085 256.337 L 322.089 254.342 L 330.667 250.053 L 336.24 250.053 C 335.762 251.398 334.488 252.368 332.981 252.368 Z" style="stroke: rgb(186, 218, 85); fill: url(#gradient-11);"/>
  <path d="M 231.503 317.694 L 229.258 317.694 C 228.638 317.694 228.136 318.196 228.136 318.816 L 228.136 328.922 L 232.627 328.922 L 232.627 318.816 C 232.627 318.196 232.124 317.694 231.503 317.694 Z M 238.239 317.694 L 235.994 317.694 C 235.374 317.694 234.872 318.196 234.872 318.816 L 234.872 328.922 L 239.363 328.922 L 239.363 318.816 C 239.363 318.196 238.861 317.694 238.239 317.694 Z M 251.713 317.694 L 249.467 317.694 C 248.847 317.694 248.344 318.196 248.344 318.816 L 248.344 328.922 L 252.835 328.922 L 252.835 318.816 C 252.835 318.196 252.332 317.694 251.713 317.694 Z M 258.449 317.694 L 256.203 317.694 C 255.583 317.694 255.081 318.196 255.081 318.816 L 255.081 328.922 L 259.571 328.922 L 259.571 318.816 C 259.571 318.196 259.069 317.694 258.449 317.694 Z M 264.062 315.449 C 265.302 315.449 266.308 314.444 266.308 313.204 C 266.308 311.964 264.062 308.713 264.062 308.713 C 264.062 308.713 261.816 311.964 261.816 313.204 C 261.816 314.444 262.822 315.449 264.062 315.449 Z M 257.326 315.449 C 258.566 315.449 259.571 314.444 259.571 313.204 C 259.571 311.964 257.326 308.713 257.326 308.713 C 257.326 308.713 255.081 311.964 255.081 313.204 C 255.081 314.444 256.086 315.449 257.326 315.449 Z M 250.589 315.449 C 251.83 315.449 252.835 314.444 252.835 313.204 C 252.835 311.964 250.589 308.713 250.589 308.713 C 250.589 308.713 248.344 311.964 248.344 313.204 C 248.344 314.444 249.35 315.449 250.589 315.449 Z M 243.853 315.449 C 245.094 315.449 246.099 314.444 246.099 313.204 C 246.099 311.964 243.853 308.713 243.853 308.713 C 243.853 308.713 241.608 311.964 241.608 313.204 C 241.608 314.444 242.613 315.449 243.853 315.449 Z M 237.117 315.449 C 238.357 315.449 239.363 314.444 239.363 313.204 C 239.363 311.964 237.117 308.713 237.117 308.713 C 237.117 308.713 234.872 311.964 234.872 313.204 C 234.872 314.444 235.877 315.449 237.117 315.449 Z M 230.38 315.449 C 231.621 315.449 232.627 314.444 232.627 313.204 C 232.627 311.964 230.38 308.713 230.38 308.713 C 230.38 308.713 228.136 311.964 228.136 313.204 C 228.136 314.444 229.141 315.449 230.38 315.449 Z M 223.644 315.449 C 224.885 315.449 225.891 314.444 225.891 313.204 C 225.891 311.964 223.644 308.713 223.644 308.713 C 223.644 308.713 221.399 311.964 221.399 313.204 C 221.399 314.444 222.405 315.449 223.644 315.449 Z M 261.816 328.922 C 261.816 330.162 260.811 331.166 259.571 331.166 L 246.099 331.166 L 246.099 318.816 C 246.099 318.196 245.596 317.694 244.975 317.694 L 242.731 317.694 C 242.111 317.694 241.608 318.196 241.608 318.816 L 241.608 331.166 L 228.136 331.166 C 226.896 331.166 225.891 330.162 225.891 328.922 L 225.891 318.816 C 225.891 318.196 225.388 317.694 224.767 317.694 L 222.522 317.694 C 221.902 317.694 221.399 318.196 221.399 318.816 L 221.399 328.922 C 221.399 332.642 224.415 335.658 228.136 335.658 L 241.608 335.658 L 241.608 340.148 L 229.258 340.148 C 228.638 340.148 228.136 340.651 228.136 341.272 L 228.136 343.517 C 228.136 344.137 228.638 344.639 229.258 344.639 L 258.449 344.639 C 259.069 344.639 259.571 344.137 259.571 343.517 L 259.571 341.272 C 259.571 340.651 259.069 340.148 258.449 340.148 L 246.099 340.148 L 246.099 335.658 L 259.571 335.658 C 263.291 335.658 266.308 332.642 266.308 328.922 L 266.308 318.816 C 266.308 318.196 265.805 317.694 265.185 317.694 L 262.939 317.694 C 262.319 317.694 261.816 318.196 261.816 318.816 L 261.816 328.922 Z" style="stroke: rgb(186, 218, 85); fill: url(#gradient-10);"/>
  <path d="M 444.081 240.54 L 443.993 240.54 C 445.179 230.206 434.734 222.463 425.192 226.602 C 419.734 228.97 416.466 234.629 417.145 240.54 L 417.057 240.54 C 413.589 240.54 411.423 244.294 413.156 247.295 C 413.961 248.69 415.448 249.548 417.057 249.548 L 444.081 249.548 C 447.548 249.548 449.715 245.794 447.981 242.791 C 447.177 241.398 445.69 240.54 444.081 240.54 Z M 427.884 271.85 C 428.837 273.918 431.672 274.177 432.985 272.317 C 433.089 272.17 433.179 272.014 433.254 271.85 L 442.579 252.55 L 418.558 252.55 Z" style="stroke: rgb(186, 218, 85); fill: url(#gradient-12);"/>
  <path d="M 322.941 342.175 L 317.42 338.725 C 316.885 338.39 316.154 338.58 315.893 339.154 C 315.035 341.031 314.527 343.048 314.396 345.106 C 314.356 345.713 314.865 346.221 315.472 346.221 L 321.947 346.221 C 322.478 346.221 322.887 345.804 322.949 345.277 C 323.021 344.655 323.165 344.055 323.364 343.481 C 323.535 342.992 323.381 342.45 322.941 342.175 Z M 335.63 329.687 C 334.285 329.342 332.879 329.154 331.427 329.154 C 329.976 329.154 328.569 329.342 327.225 329.687 C 326.613 329.843 326.297 330.527 326.532 331.113 L 329.03 338.048 C 329.182 338.471 329.584 338.754 330.034 338.755 L 332.82 338.755 C 333.27 338.755 333.671 338.472 333.824 338.048 L 336.322 331.113 C 336.557 330.527 336.24 329.844 335.63 329.687 Z M 321.826 348.355 L 315.426 348.355 C 314.836 348.355 314.359 348.832 314.359 349.422 L 314.359 353.688 C 314.359 354.277 314.836 354.755 315.426 354.755 L 321.826 354.755 C 322.416 354.755 322.893 354.277 322.893 353.688 L 322.893 349.422 C 322.893 348.832 322.416 348.355 321.826 348.355 Z M 321.826 356.888 L 315.426 356.888 C 314.836 356.888 314.359 357.366 314.359 357.956 L 314.359 362.222 C 314.359 362.811 314.836 363.289 315.426 363.289 L 321.826 363.289 C 322.416 363.289 322.893 362.811 322.893 362.222 L 322.893 357.956 C 322.893 357.366 322.416 356.888 321.826 356.888 Z M 326.981 337.977 L 324.559 331.922 C 324.324 331.334 323.618 331.056 323.064 331.368 C 321.243 332.397 319.625 333.751 318.29 335.362 C 317.887 335.85 318.034 336.593 318.572 336.93 L 324.1 340.384 C 324.535 340.656 325.078 340.56 325.441 340.199 C 325.787 339.856 326.161 339.542 326.56 339.262 C 326.979 338.968 327.17 338.451 326.981 337.977 Z M 340.906 346.221 L 347.382 346.221 C 347.989 346.221 348.498 345.713 348.458 345.106 C 348.326 343.048 347.819 341.031 346.961 339.154 C 346.699 338.58 345.969 338.39 345.433 338.725 L 339.912 342.175 C 339.472 342.45 339.319 342.992 339.49 343.481 C 339.69 344.055 339.833 344.656 339.905 345.277 C 339.967 345.804 340.376 346.221 340.906 346.221 Z M 344.563 335.362 C 343.228 333.751 341.611 332.397 339.789 331.368 C 339.236 331.056 338.53 331.334 338.294 331.922 L 335.872 337.977 C 335.682 338.451 335.874 338.968 336.292 339.261 C 336.693 339.542 337.067 339.854 337.411 340.199 C 337.775 340.559 338.318 340.655 338.752 340.384 L 344.282 336.929 C 344.82 336.593 344.967 335.85 344.563 335.362 Z M 347.427 348.355 L 341.027 348.355 C 340.437 348.355 339.96 348.832 339.96 349.422 L 339.96 353.688 C 339.96 354.277 340.437 354.755 341.027 354.755 L 347.427 354.755 C 348.017 354.755 348.494 354.277 348.494 353.688 L 348.494 349.422 C 348.494 348.832 348.017 348.355 347.427 348.355 Z M 347.427 356.888 L 341.027 356.888 C 340.437 356.888 339.96 357.366 339.96 357.956 L 339.96 362.222 C 339.96 362.811 340.437 363.289 341.027 363.289 L 347.427 363.289 C 348.017 363.289 348.494 362.811 348.494 362.222 L 348.494 357.956 C 348.494 357.366 348.017 356.888 347.427 356.888 Z M 330.36 340.996 L 330.36 360.622 C 330.36 360.917 330.598 361.156 330.893 361.156 L 331.961 361.156 C 332.255 361.156 332.494 360.917 332.494 360.622 L 332.494 340.996 C 332.145 340.936 331.792 340.888 331.427 340.888 C 331.062 340.888 330.709 340.936 330.36 340.996 Z M 326.093 343.763 L 326.093 360.622 C 326.093 360.917 326.332 361.156 326.627 361.156 L 327.693 361.156 C 327.988 361.156 328.226 360.917 328.226 360.622 L 328.226 341.778 C 327.375 342.275 326.637 342.943 326.093 343.763 Z M 334.627 341.778 L 334.627 360.622 C 334.627 360.917 334.865 361.156 335.161 361.156 L 336.227 361.156 C 336.521 361.156 336.76 360.917 336.76 360.622 L 336.76 343.763 C 336.217 342.943 335.479 342.275 334.627 341.778 Z" style="stroke: rgb(186, 218, 85); fill: url(#gradient-9);"/>
  <path d="M 430.995 327.411 L 430.995 325.946 L 432.259 325.946 C 432.958 325.946 433.523 325.379 433.523 324.68 L 433.523 323.416 C 433.523 322.717 432.958 322.151 432.259 322.151 L 424.671 322.151 C 423.973 322.151 423.407 322.717 423.407 323.416 L 423.407 324.68 C 423.407 325.379 423.973 325.946 424.671 325.946 L 425.936 325.946 L 425.936 327.411 C 417.359 328.641 410.761 335.996 410.761 344.913 L 446.168 344.913 C 446.168 335.996 439.57 328.641 430.995 327.411 Z M 447.434 347.442 L 409.497 347.442 C 408.798 347.442 408.232 348.008 408.232 348.707 L 408.232 351.237 C 408.232 351.935 408.798 352.501 409.497 352.501 L 447.434 352.501 C 448.132 352.501 448.698 351.935 448.698 351.237 L 448.698 348.707 C 448.698 348.008 448.132 347.442 447.434 347.442 Z" style="stroke: rgb(186, 218, 85); fill: url(#gradient-8);"/>
</svg>