<svg viewBox="0 0 500 400"   >
  <defs>
    <linearGradient id="color-1">
      <title>Pal - 1 - #43419E</title>
      <stop style="stop-color: rgb(67, 65, 158);"/>
    </linearGradient>
    <linearGradient id="color-3">
      <title>Pal - 1 - #E44E2B</title>
      <stop style="stop-color: rgb(228, 77, 43);"/>
    </linearGradient>
    <linearGradient id="color-4">
      <title>freehand</title>
      <stop style="stop-color: rgba(228, 77, 43, 0.32);"/>
    </linearGradient>
    <pattern x="0" y="0" width="25" height="25" patternUnits="userSpaceOnUse" viewBox="0 0 100 100" id="pattern-0">
      <rect x="0" y="0" width="50" height="100" style="fill: black;"/>
    </pattern>
    <pattern id="pattern-0-0" patternTransform="matrix(0.147196, -0.108119, 0.035687, 0.048585, 232.059814, 62.396038)"/>
    <radialGradient gradientUnits="userSpaceOnUse" cx="255.749" cy="18.158" r="8.285" id="gradient-0">
      <stop offset="0" style="stop-color: rgba(67, 65, 158, 1)"/>
      <stop offset="1" style="stop-color: rgba(36, 35, 86, 1)"/>
    </radialGradient>
    <radialGradient gradientUnits="userSpaceOnUse" cx="255.749" cy="18.158" r="8.285" id="gradient-1">
      <stop offset="0" style="stop-color: rgba(67, 65, 158, 1)"/>
      <stop offset="1" style="stop-color: rgba(36, 35, 86, 1)"/>
    </radialGradient>
    <linearGradient gradientUnits="userSpaceOnUse" x1="249.534" y1="23.792" x2="249.534" y2="106.349" id="gradient-3" gradientTransform="matrix(0, -0.108991, 0.108991, 0, 242.163162, 88.468613)">
      <stop offset="0" style="stop-color: #bada55"/>
      <stop offset="1" style="stop-color: #758d29"/>
    </linearGradient>
    <linearGradient gradientUnits="userSpaceOnUse" x1="251.421" y1="31.076" x2="251.421" y2="379.279" id="gradient-21" gradientTransform="matrix(0.797726, -0.60302, 0.815129, 1.078323, -89.589706, 152.237051)">
      <stop offset="0" style="stop-color: rgba(248, 183, 41, 1)"/>
      <stop offset="1" style="stop-color: rgba(181, 126, 6, 1)"/>
    </linearGradient>
    <linearGradient id="color-0" >
      <title>White</title>
      <stop style="stop-color: rgb(255, 255, 255);"/>
    </linearGradient>
  </defs>
  <g style="pointer-events: none; visibility: hidden;">
    <path style="stroke: rgb(0, 0, 0); fill: none;" d="M 32.226 81.181 C 30.907 60.825 54.662 29.352 87.874 31.169 C 178.139 36.106 334.72 32.703 425.231 31.169 C 456.432 30.64 473.555 54.297 471.748 88.218 C 467.279 172.138 469.908 248.063 471.748 331.836 C 472.36 359.707 450.378 377.716 421.979 377.716 C 371.268 377.716 358.612 377.716 330.47 377.716 C 287.772 377.716 270.364 372.823 250.265 360.607 C 213.068 337.998 176.553 314.831 150.747 280.263 C 133.506 257.167 122.667 221.691 122.859 200 C 123.388 140.168 176.778 119.421 250.265 119.185 C 322.539 118.952 365.729 135.944 363.914 200 C 362.463 251.205 353.574 270.532 339.803 287.382 C 317.228 315.004 298.741 322.215 242.734 357.841 C 222.696 370.587 186.99 377.716 154.883 377.716 C 133.88 377.716 108.153 377.716 85.034 377.716 C 62.192 377.716 29.062 367.546 32.226 329.468 C 41.417 218.844 30.267 167.452 32.226 81.181 Z"/>
    <path style="stroke: rgb(0, 0, 0); fill: none;" d="M 100 134.445 C 99.052 122.792 105.675 98.96 129.529 100 C 194.362 102.825 296.506 100.877 361.515 100 C 383.924 99.696 401.298 108.969 400 128.386 C 396.791 176.423 400 225.083 400 273.054 C 400 303.35 391.219 314.831 366.962 314.831 C 346.657 314.831 343.515 314.831 324.54 314.831 C 307.226 314.831 286.198 309.414 262.238 300 C 228.397 286.704 214.79 268.999 200 238.884 C 193.104 224.844 197.062 209.514 200 200 C 205.159 183.294 228.897 167.921 250.265 167.921 C 270.806 167.921 293.396 184.198 300 200 C 305.519 213.204 303.44 226.676 300 236.822 C 288.897 269.571 265.808 280.647 238.708 294.667 C 213.222 307.852 183.806 314.916 167.075 314.831 C 152.006 314.754 136.233 314.831 122.276 314.831 C 94.732 314.831 98.212 293.846 100 272.022 C 104.192 220.878 98.593 183.828 100 134.445 Z"/>
  </g>
  <path style="paint-order: stroke; fill: url(#gradient-21); stroke: url(#color-3); stroke-width: 7px;" d="M 244.902 290.818 C 244.902 290.818 260.221 303.304 298.108 311.634 C 354.015 266.289 362.624 227.955 362.624 194.945 C 362.624 132.166 295.349 118.919 249.265 118.772 C 203.181 118.625 121.459 127.848 121.459 195.297 C 121.459 261.983 173.36 307.729 173.36 307.729 C 173.36 307.729 242.422 375.699 319.098 377.337 C 395.774 378.975 416.313 377.706 431.724 377.592 C 447.135 377.478 472.488 364.282 472.159 328.727 C 471.83 293.172 465.668 148.003 470.965 89.586 C 476.262 31.169 442.372 30.824 408.877 31.41 C 375.382 31.996 109.694 32.294 93.499 31.169 C 77.304 30.044 32.194 38.644 31.226 81.712 C 30.258 124.78 36.941 285.327 31.226 328.404 C 25.511 371.481 66.124 377.72 85.896 378.911 C 105.668 380.102 156.087 378.051 165.016 377.716 C 173.945 377.381 211.014 377.716 242.222 358.789 C 216.562 344.523 203.416 337.022 177.887 314.831 C 127.017 314.831 90.298 325.793 100 280.25 C 105.976 221.989 100 153.869 100 132.939 C 100 115.824 100 100 138.013 100 C 183.189 100 308.615 100 369.365 100 C 400 100 402.724 126.38 402.746 131.998 C 402.87 163.648 400 236.385 400 280.444 C 400 324.503 332.885 319.672 303.68 314.831 C 274.475 309.99 248.051 297.399 233.843 285.622 C 219.635 273.845 194.982 253.594 194.982 216.473 C 194.982 198.676 204.338 168.135 249.265 168.135 C 294.853 168.135 303.042 194.575 303.042 216.597 C 303.042 276.34 242.113 288.899 244.902 290.818 Z">
    <title>Track</title>
  </path>
  <path style="fill: none; stroke-linecap: round; stroke-dashoffset: 18px; stroke-width: 3px; stroke-dasharray: 23; stroke: url(#color-0); stroke-opacity: 0.62;" d="M 249.245 64.583 C 321.659 67.374 390.807 55.661 412.279 63.389 C 425.346 68.092 440.522 86.547 440.889 110.822 C 441.673 162.668 443.419 266.486 438.555 297.975 C 432.916 334.48 417.433 343.415 401.698 347.066 C 371.411 354.094 331.234 352.661 307.701 347.883 C 276.906 341.631 231.023 323.85 183.606 273.631 C 136.189 223.412 155.424 141.691 244.174 140.101 C 332.924 138.511 335.487 187.832 334.128 206.212 C 332.769 224.592 321.695 312.105 182.989 346.609 C 128.911 360.061 90.269 348.839 73.649 335.457 C 47.642 314.515 63.171 280.018 62.782 263.122 C 62.145 235.429 60.765 155.137 62.681 117.504 C 63.748 96.537 69.946 70.113 100.107 64.213 C 137.907 56.818 203.864 62.834 249.245 64.583 Z"/>
  <g style="pointer-events: none;">
    <title>Finish line</title>
    <rect x="246.286" y="23.792" width="6.496" height="82.557" style="paint-order: fill; fill: url(#gradient-3);"/>
    <rect x="246.286" y="23.792" width="6.496" height="82.557" style="paint-order: fill; fill: url(#pattern-0-0); fill-opacity: 0.47;"/>
    <circle style="stroke: rgba(0, 0, 0, 0.57); stroke-width: 0px; fill: url(#gradient-0);" cx="255.749" cy="18.158" r="8.285" transform="matrix(0.521637, 0, 0, 0.404544, 115.973495, 18.532839)"/>
    <circle style="stroke: rgba(0, 0, 0, 0.64); stroke-width: 0px; fill: url(#gradient-1);" cx="255.749" cy="18.158" r="8.285" transform="matrix(0.521637, 0, 0, 0.40796, 115.804405, 99.854668)"/>
  </g>
  <g style="pointer-events: none; visibility: hidden;">
    <title>Track lines</title>
    <path d="M 277.717 89.105 C 291.635 91.644 301.887 84.841 316.022 84.841 C 320.632 84.841 335.549 87.043 340.15 87.204 C 350.104 87.551 364.749 85.005 364.749 85.415" style="fill: none; stroke: url(#color-4); stroke-linecap: round; stroke-miterlimit: 3; stroke-width: 4px; stroke-opacity: 0.6; stroke-dasharray: 30px; stroke-dashoffset: -24px;"/>
    <path d="M 303.768 63.736 C 316.924 64.282 330.038 63.138 343.14 63.138" style="fill: none; stroke: url(#color-4); stroke-linecap: round; stroke-miterlimit: 3; stroke-width: 4px; stroke-opacity: 0.6; stroke-dasharray: 30px; stroke-dashoffset: -24px;"/>
    <path d="M 316.999 40.415 C 334.752 38.345 357.946 45.445 369.197 45.14 C 374.626 44.993 385.581 43.374 390.506 40.546" style="fill: none; stroke: url(#color-4); stroke-linecap: round; stroke-miterlimit: 3; stroke-width: 4px; stroke-opacity: 0.6; stroke-dasharray: 30px; stroke-dashoffset: -24px;"/>
    <path d="M 413.387 41.911 C 421.679 44.057 425.353 46.394 431.035 52.784 C 432.294 54.199 433.943 55.729 434.948 57.331 C 435.209 57.746 436.323 61.487 436.697 61.487" style="fill: none; stroke: url(#color-4); stroke-linecap: round; stroke-miterlimit: 3; stroke-width: 4px; stroke-opacity: 0.6; stroke-dasharray: 30px; stroke-dashoffset: -24px;"/>
    <path d="M 413.251 69.199 C 421.604 74.773 432.271 83.011 432.271 94.37" style="fill: none; stroke: url(#color-4); stroke-linecap: round; stroke-miterlimit: 3; stroke-width: 4px; stroke-opacity: 0.6; stroke-dasharray: 30px; stroke-dashoffset: -24px;"/>
    <path d="M 412.104 88.425 C 418.316 95.613 424.883 101.724 428.827 110.577 C 430.316 113.922 429.008 129.749 430.522 132.777" style="fill: none; stroke: url(#color-4); stroke-linecap: round; stroke-miterlimit: 3; stroke-width: 4px; stroke-opacity: 0.6; stroke-dasharray: 30px; stroke-dashoffset: -24px;"/>
    <path d="M 420.222 140.766 C 420.222 155.249 421.786 170.049 421.786 184.35" style="fill: none; stroke: url(#color-4); stroke-linecap: round; stroke-miterlimit: 3; stroke-width: 4px; stroke-opacity: 0.6; stroke-dasharray: 30px; stroke-dashoffset: -24px;"/>
    <path d="M 436.544 147.732 C 436.544 162.681 436.44 177.664 436.44 192.586" style="fill: none; stroke: url(#color-4); stroke-linecap: round; stroke-miterlimit: 3; stroke-width: 4px; stroke-opacity: 0.6; stroke-dasharray: 30px; stroke-dashoffset: -24px;"/>
    <path d="M 450.901 152.241 C 451.924 164.737 450.158 177.991 452.611 190.3 C 453.211 193.309 455.638 198.596 453.02 201.168" style="fill: none; stroke: url(#color-4); stroke-linecap: round; stroke-miterlimit: 3; stroke-width: 4px; stroke-opacity: 0.6; stroke-dasharray: 30px; stroke-dashoffset: -24px;"/>
    <path d="M 416.882 210.737 C 417.246 217.691 419.26 224.114 418.85 231.213 C 418.352 239.807 414.914 248.308 414.914 256.883" style="fill: none; stroke: url(#color-4); stroke-linecap: round; stroke-miterlimit: 3; stroke-width: 4px; stroke-opacity: 0.6; stroke-dasharray: 30px; stroke-dashoffset: -24px;"/>
    <path d="M 440.759 214.977 C 441.654 222.495 442.158 230.584 439.968 237.981 C 437.906 244.947 432.263 251.763 432.263 258.902" style="fill: none; stroke: url(#color-4); stroke-linecap: round; stroke-miterlimit: 3; stroke-width: 4px; stroke-opacity: 0.6; stroke-dasharray: 30px; stroke-dashoffset: -24px;"/>
    <path d="M 455.723 239.61 C 457.578 252.642 459.986 266.815 455.719 279.637 C 455.229 281.112 453.514 291.563 453.04 291.324" style="fill: none; stroke: url(#color-4); stroke-linecap: round; stroke-miterlimit: 3; stroke-width: 4px; stroke-opacity: 0.6; stroke-dasharray: 30px; stroke-dashoffset: -24px;"/>
    <path d="M 429.682 286.17 C 429.277 289.532 428.849 292.932 428.252 296.269 C 427.4 301.026 425.857 305.661 425.458 310.503 C 424.979 316.31 428.189 328.57 419.654 328.57" style="fill: none; stroke: url(#color-4); stroke-linecap: round; stroke-miterlimit: 3; stroke-width: 4px; stroke-opacity: 0.6; stroke-dasharray: 30px; stroke-dashoffset: -24px;"/>
    <path d="M 454.321 322.014 C 452.96 335.141 455.851 355.726 437.071 355.726" style="fill: none; stroke: url(#color-4); stroke-linecap: round; stroke-miterlimit: 3; stroke-width: 4px; stroke-opacity: 0.6; stroke-dasharray: 30px; stroke-dashoffset: -24px;"/>
    <path d="M 425.022 362.122 C 410.945 364.96 398.335 360.697 384.714 360.697" style="fill: none; stroke: url(#color-4); stroke-linecap: round; stroke-miterlimit: 3; stroke-width: 4px; stroke-opacity: 0.6; stroke-dasharray: 30px; stroke-dashoffset: -24px;"/>
    <path d="M 448.315 323.861 C 445.98 330.325 444.116 337.815 440.594 343.762 C 433.05 356.501 413.779 351.985 401.744 351.985" style="fill: none; stroke: url(#color-4); stroke-linecap: round; stroke-miterlimit: 3; stroke-width: 4px; stroke-opacity: 0.6; stroke-dasharray: 30px; stroke-dashoffset: -24px;"/>
    <path d="M 323.255 367.884 C 308.754 367.884 296.597 356.857 282.266 353.96" style="fill: none; stroke: url(#color-4); stroke-linecap: round; stroke-miterlimit: 3; stroke-width: 4px; stroke-opacity: 0.6; stroke-dasharray: 30px; stroke-dashoffset: -24px;"/>
    <path d="M 364.816 347.475 C 349.691 347.475 336.224 342.093 321.559 340.074 C 315.6 339.254 309.504 340.057 303.535 339.257 C 303.054 339.192 298.523 338.738 298.523 338.468" style="fill: none; stroke: url(#color-4); stroke-linecap: round; stroke-miterlimit: 3; stroke-width: 4px; stroke-opacity: 0.6; stroke-dasharray: 30px; stroke-dashoffset: -24px;"/>
    <path d="M 287.488 331.267 C 282.15 330.807 270.961 332.501 266.278 329.852 C 264.485 328.838 252.247 312.875 250.155 312.875" style="fill: none; stroke: url(#color-4); stroke-linecap: round; stroke-miterlimit: 3; stroke-width: 4px; stroke-opacity: 0.6; stroke-dasharray: 30px; stroke-dashoffset: -24px;"/>
    <path d="M 236.874 331.23 C 230.742 329.61 225.458 325.4 220.256 321.942" style="fill: none; stroke: url(#color-4); stroke-linecap: round; stroke-miterlimit: 3; stroke-width: 4px; stroke-opacity: 0.6; stroke-dasharray: 30px; stroke-dashoffset: -24px;"/>
    <path d="M 221.44 309.336 C 210.289 304.283 203.1 294.016 199.446 290.363" style="fill: none; stroke: url(#color-4); stroke-linecap: round; stroke-miterlimit: 3; stroke-width: 4px; stroke-opacity: 0.6; stroke-dasharray: 30px; stroke-dashoffset: -24px;"/>
    <path d="M 229.642 298.947 C 224.304 294.457 213.196 276.587 207.256 273.006" style="fill: none; stroke: url(#color-4); stroke-linecap: round; stroke-miterlimit: 3; stroke-width: 4px; stroke-opacity: 0.6; stroke-dasharray: 30px; stroke-dashoffset: -24px;"/>
    <path d="M 358.236 321.141 C 353.185 321.296 348.135 321.445 343.084 321.445" style="fill: none; stroke: url(#color-4); stroke-linecap: round; stroke-miterlimit: 3; stroke-width: 4px; stroke-opacity: 0.6; stroke-dasharray: 30px; stroke-dashoffset: -24px;"/>
    <path d="M 390.214 314.2 C 388.954 314.98 385.255 317.746 383.951 317.746" style="fill: none; stroke: url(#color-4); stroke-linecap: round; stroke-miterlimit: 3; stroke-width: 4px; stroke-opacity: 0.6; stroke-dasharray: 30px; stroke-dashoffset: -24px;"/>
    <path d="M 203.081 313.62 C 196.272 308.286 186.146 304.264 181.128 297.126 C 177.88 292.506 171.049 284.902 166.93 280.783" style="fill: none; stroke: url(#color-4); stroke-linecap: round; stroke-miterlimit: 3; stroke-width: 4px; stroke-opacity: 0.6; stroke-dasharray: 30px; stroke-dashoffset: -24px;"/>
    <path d="M 194.169 274.553 C 189.888 270.075 187.109 255.979 183.135 251.286 C 179.551 247.054 181.212 229.968 180.548 224.699" style="fill: none; stroke: url(#color-4); stroke-linecap: round; stroke-miterlimit: 3; stroke-width: 4px; stroke-opacity: 0.6; stroke-dasharray: 30px; stroke-dashoffset: -24px;"/>
    <path d="M 162.764 270.724 C 157.802 259.907 147.006 260.411 138.889 240.205 C 134.815 230.062 144.657 209.738 142.886 193.68" style="fill: none; stroke: url(#color-4); stroke-linecap: round; stroke-miterlimit: 3; stroke-width: 4px; stroke-opacity: 0.6; stroke-dasharray: 30px; stroke-dashoffset: -24px;"/>
    <path d="M 146.421 177.378 C 149.148 172.097 152.345 166.408 158.025 163.741 C 159.995 162.816 180.672 154.707 182.616 153.871" style="fill: none; stroke: url(#color-4); stroke-linecap: round; stroke-miterlimit: 3; stroke-width: 4px; stroke-opacity: 0.6; stroke-dasharray: 30px; stroke-dashoffset: -24px;"/>
    <path d="M 159.747 184.547 C 171.559 160.155 186.449 176.716 200.562 157.21" style="fill: none; stroke: url(#color-4); stroke-linecap: round; stroke-miterlimit: 3; stroke-width: 4px; stroke-opacity: 0.6; stroke-dasharray: 30px; stroke-dashoffset: -24px;"/>
    <path d="M 180.07 195.656 C 187.658 184.559 200.251 178.372 210.388 170.051 C 212.547 168.278 213.444 164.112 215.394 162.808" style="fill: none; stroke: url(#color-4); stroke-linecap: round; stroke-miterlimit: 3; stroke-width: 4px; stroke-opacity: 0.6; stroke-dasharray: 30px; stroke-dashoffset: -24px;"/>
    <path d="M 220.373 135.342 C 240.53 128.755 259.172 128.022 276.656 130.577 C 277.571 130.711 298.928 135.143 298.928 137.644" style="fill: none; stroke: url(#color-4); stroke-linecap: round; stroke-miterlimit: 3; stroke-width: 4px; stroke-opacity: 0.6; stroke-dasharray: 30px; stroke-dashoffset: -24px;"/>
    <path d="M 231.39 146.196 C 263.804 142.715 276.797 149.926 299.453 151.162" style="fill: none; stroke: url(#color-4); stroke-linecap: round; stroke-miterlimit: 3; stroke-width: 4px; stroke-opacity: 0.6; stroke-dasharray: 30px; stroke-dashoffset: -24px;"/>
    <path d="M 247.276 159.116 C 265.34 157.204 283.341 171.311 288.98 163.165" style="fill: none; stroke: url(#color-4); stroke-linecap: round; stroke-miterlimit: 3; stroke-width: 4px; stroke-opacity: 0.6; stroke-dasharray: 30px; stroke-dashoffset: -24px;"/>
    <path d="M 328.502 146.224 C 336.479 152.785 345.18 160.04 349.531 169.675 C 353.934 179.425 354.625 190.817 354.625 201.386" style="fill: none; stroke: url(#color-4); stroke-linecap: round; stroke-miterlimit: 3; stroke-width: 4px; stroke-opacity: 0.6; stroke-dasharray: 30px; stroke-dashoffset: -24px;"/>
    <path d="M 310.574 168.656 C 322.068 181.55 327.468 195.82 327.468 213.174" style="fill: none; stroke: url(#color-4); stroke-linecap: round; stroke-miterlimit: 3; stroke-width: 4px; stroke-opacity: 0.6; stroke-dasharray: 30px; stroke-dashoffset: -24px;"/>
    <path d="M 339.793 212.352 C 340.299 224.05 337.226 231.035 331.357 240.657 C 329.863 243.106 327.499 248.532 324.754 249.893" style="fill: none; stroke: url(#color-4); stroke-linecap: round; stroke-miterlimit: 3; stroke-width: 4px; stroke-opacity: 0.6; stroke-dasharray: 30px; stroke-dashoffset: -24px;"/>
    <path d="M 311.958 269.553 C 305.942 278.518 297.463 281.646 290.405 288.581" style="fill: none; stroke: url(#color-4); stroke-linecap: round; stroke-miterlimit: 3; stroke-width: 4px; stroke-opacity: 0.6; stroke-dasharray: 30px; stroke-dashoffset: -24px;"/>
    <path d="M 270.478 289.47 C 265.011 296.203 263.226 297.264 254.42 297.264" style="fill: none; stroke: url(#color-4); stroke-linecap: round; stroke-miterlimit: 3; stroke-width: 4px; stroke-opacity: 0.6; stroke-dasharray: 30px; stroke-dashoffset: -24px;"/>
    <path d="M 309.827 296.778 C 296.007 307.581 308.314 303.295 290.987 307.588" style="fill: none; stroke: url(#color-4); stroke-linecap: round; stroke-miterlimit: 3; stroke-width: 4px; stroke-opacity: 0.6; stroke-dasharray: 30px; stroke-dashoffset: -24px;"/>
    <path d="M 336.597 248.703 C 331.018 258.086 322.343 268.678 314.58 276.304" style="fill: none; stroke: url(#color-4); stroke-linecap: round; stroke-miterlimit: 3; stroke-width: 4px; stroke-opacity: 0.6; stroke-dasharray: 30px; stroke-dashoffset: -24px;"/>
    <path d="M 177.463 329.962 C 161.824 333.26 148.324 335.018 132.199 333.406" style="fill: none; stroke: url(#color-4); stroke-linecap: round; stroke-miterlimit: 3; stroke-width: 4px; stroke-opacity: 0.6; stroke-dasharray: 30px; stroke-dashoffset: -24px;"/>
    <path d="M 183.351 343.119 C 173.629 348.047 163.044 349.796 152.244 350.822 C 147.891 351.236 140.505 350.303 136.474 352.3" style="fill: none; stroke: url(#color-4); stroke-linecap: round; stroke-miterlimit: 3; stroke-width: 4px; stroke-opacity: 0.6; stroke-dasharray: 30px; stroke-dashoffset: -24px;"/>
    <path d="M 208.019 360.065 C 178.711 378.756 174.506 363.258 139.252 368.545" style="fill: none; stroke: url(#color-4); stroke-linecap: round; stroke-miterlimit: 3; stroke-width: 4px; stroke-opacity: 0.6; stroke-dasharray: 30px; stroke-dashoffset: -24px;"/>
    <path d="M 108.135 367.952 C 85.384 371.606 82.994 360.966 64.353 359.293" style="fill: none; stroke: url(#color-4); stroke-linecap: round; stroke-miterlimit: 3; stroke-width: 4px; stroke-opacity: 0.6; stroke-dasharray: 30px; stroke-dashoffset: -24px;"/>
    <path d="M 102.605 344.836 C 82.105 347.711 65.777 340.479 62.868 325.961 C 61.994 321.601 60.454 316.174 60.454 311.735 C 60.454 310.485 61.228 306.256 60.45 305.478" style="fill: none; stroke: url(#color-4); stroke-linecap: round; stroke-miterlimit: 3; stroke-width: 4px; stroke-opacity: 0.6; stroke-dasharray: 30px; stroke-dashoffset: -24px;"/>
    <path d="M 83.983 309.128 C 78.882 295.706 91.884 277.152 90.998 260.373" style="fill: none; stroke: url(#color-4); stroke-linecap: round; stroke-miterlimit: 3; stroke-width: 4px; stroke-opacity: 0.6; stroke-dasharray: 30px; stroke-dashoffset: -24px;"/>
    <path d="M 64.23 283.261 C 63.127 265.958 75.528 252.893 72.771 228.849" style="fill: none; stroke: url(#color-4); stroke-linecap: round; stroke-miterlimit: 3; stroke-width: 4px; stroke-opacity: 0.6; stroke-dasharray: 30px; stroke-dashoffset: -24px;"/>
    <path d="M 49.087 275.596 C 51.108 255.456 41.704 247.314 41.704 231.35 C 41.704 223.866 50.284 207.771 47.811 189.477" style="fill: none; stroke: url(#color-4); stroke-linecap: round; stroke-miterlimit: 3; stroke-width: 4px; stroke-opacity: 0.6; stroke-dasharray: 30px; stroke-dashoffset: -24px;"/>
    <path d="M 63.49 219.793 C 63.935 207.508 72.164 203.766 72.787 185.66 C 73.238 172.545 67.616 163.82 66.802 163.82" style="fill: none; stroke: url(#color-4); stroke-linecap: round; stroke-miterlimit: 3; stroke-width: 4px; stroke-opacity: 0.6; stroke-dasharray: 30px; stroke-dashoffset: -24px;"/>
    <path d="M 88.049 181.251 C 85.388 166.291 85.8 152.92 86.146 137.848 C 86.253 133.162 88.508 126.428 88.756 121.751 C 88.774 121.412 89.178 117.676 88.678 117.676" style="fill: none; stroke: url(#color-4); stroke-linecap: round; stroke-miterlimit: 3; stroke-width: 4px; stroke-opacity: 0.6; stroke-dasharray: 30px; stroke-dashoffset: -24px;"/>
    <path d="M 45.889 162.353 C 45.675 154.399 52.107 146.8 51.199 138.979 C 48.943 119.561 57.642 109.537 59.101 97.165" style="fill: none; stroke: url(#color-4); stroke-linecap: round; stroke-miterlimit: 3; stroke-width: 4px; stroke-opacity: 0.6; stroke-dasharray: 30px; stroke-dashoffset: -24px;"/>
    <path d="M 47.528 93.985 C 47.528 88.316 48.684 83.071 49.684 77.524 C 51.232 68.942 51.411 65.074 57.103 58.544 C 60.345 54.825 70.894 51.065 75.275 50.846 C 87.145 50.251 99.112 48.82 111.003 48.82" style="fill: none; stroke: url(#color-4); stroke-linecap: round; stroke-miterlimit: 3; stroke-width: 4px; stroke-opacity: 0.6; stroke-dasharray: 30px; stroke-dashoffset: -24px;"/>
    <path d="M 71.766 94.809 C 87.824 87.594 94.529 68.877 118.637 70.877" style="fill: none; stroke: url(#color-4); stroke-linecap: round; stroke-miterlimit: 3; stroke-width: 4px; stroke-opacity: 0.6; stroke-dasharray: 30px; stroke-dashoffset: -24px;"/>
    <path d="M 113.299 87.114 C 125.482 82.326 132.594 82.367 151.963 84.765" style="fill: none; stroke: url(#color-4); stroke-linecap: round; stroke-miterlimit: 3; stroke-width: 4px; stroke-opacity: 0.6; stroke-dasharray: 30px; stroke-dashoffset: -24px;"/>
    <path d="M 177.898 82.235 C 187.794 81.524 197.569 81.368 207.504 81.667 C 209.68 81.733 214.533 80.775 216.362 82.604" style="fill: none; stroke: url(#color-4); stroke-linecap: round; stroke-miterlimit: 3; stroke-width: 4px; stroke-opacity: 0.6; stroke-dasharray: 30px; stroke-dashoffset: -24px;"/>
    <path d="M 175.825 49.167 C 189.687 49.167 203.21 42.443 216.809 45.221 C 231.01 48.122 234.012 54.903 240.338 51.684" style="fill: none; stroke: url(#color-4); stroke-linecap: round; stroke-miterlimit: 3; stroke-width: 4px; stroke-opacity: 0.6; stroke-dasharray: 30px; stroke-dashoffset: -24px;"/>
    <path d="M 205.738 66.813 C 220.862 64.588 235.237 68.501 249.907 68.501" style="fill: none; stroke: url(#color-4); stroke-linecap: round; stroke-miterlimit: 3; stroke-width: 4px; stroke-opacity: 0.6; stroke-dasharray: 30px; stroke-dashoffset: -24px;"/>
  </g>
  <g transform="matrix(1, 0, 0, 1, 35.909649, -4.976672)" style="">
    <title>Icons-shadow</title>
    <path d="M 130.208 85.903 C 130.208 87.108 131.182 88.082 132.387 88.082 L 158.518 88.082 C 159.722 88.082 160.695 87.108 160.695 85.903 L 160.695 66.304 L 130.208 66.304 L 130.208 85.903 Z M 141.097 71.476 C 141.097 71.028 141.465 70.66 141.913 70.66 L 148.99 70.66 C 149.44 70.66 149.807 71.028 149.807 71.476 L 149.807 72.02 C 149.807 72.469 149.44 72.837 148.99 72.837 L 141.913 72.837 C 141.465 72.837 141.097 72.469 141.097 72.02 L 141.097 71.476 Z M 160.695 57.594 L 130.208 57.594 C 129.004 57.594 128.031 58.567 128.031 59.772 L 128.031 63.039 C 128.031 63.637 128.521 64.126 129.119 64.126 L 161.784 64.126 C 162.383 64.126 162.873 63.637 162.873 63.039 L 162.873 59.772 C 162.873 58.567 161.9 57.594 160.695 57.594 Z" style="paint-order: fill; fill-rule: evenodd; stroke: url(#color-1); stroke-width: 5px; vector-effect: non-scaling-stroke; stroke-opacity: 0.1;"/>
    <path d="M 265.653 53.99 C 264.912 52.823 263.216 52.497 262.116 53.374 C 258.481 56.275 256.169 60.605 256.169 65.452 L 272.936 65.452 L 265.653 53.99 Z M 288.655 59.163 L 285.511 59.163 C 283.199 59.163 281.32 61.043 281.32 63.355 L 281.32 67.548 L 256.169 67.548 C 256.169 70.861 257.676 73.861 260.118 76.108 C 257.852 76.691 256.169 78.727 256.169 81.17 C 256.169 84.067 258.513 86.411 261.408 86.411 C 264.304 86.411 266.649 84.067 266.649 81.17 C 266.649 80.588 266.531 80.044 266.361 79.519 C 267.775 79.906 269.282 80.122 270.84 80.122 C 272.399 80.122 273.911 79.906 275.319 79.519 C 275.144 80.044 275.031 80.588 275.031 81.17 C 275.031 84.067 277.376 86.411 280.272 86.411 C 283.167 86.411 285.511 84.067 285.511 81.17 C 285.511 78.727 283.829 76.691 281.562 76.108 C 284.004 73.861 285.511 70.861 285.511 67.548 L 285.511 63.355 L 288.655 63.355 C 289.231 63.355 289.703 62.884 289.703 62.307 L 289.703 60.212 C 289.703 59.635 289.231 59.163 288.655 59.163 Z M 261.408 83.266 C 260.255 83.266 259.313 82.324 259.313 81.17 C 259.313 80.017 260.255 79.075 261.408 79.075 C 262.562 79.075 263.504 80.017 263.504 81.17 C 263.504 82.324 262.562 83.266 261.408 83.266 Z M 282.367 81.17 C 282.367 82.324 281.425 83.266 280.272 83.266 C 279.118 83.266 278.176 82.324 278.176 81.17 C 278.176 80.017 279.118 79.075 280.272 79.075 C 281.425 79.075 282.367 80.017 282.367 81.17 Z" style="paint-order: fill; fill-rule: evenodd; stroke: url(#color-1); stroke-width: 5px; vector-effect: non-scaling-stroke; stroke-opacity: 0.1;"/>
    <path d="M 381.291 77.493 L 381.29 77.493 C 381.29 76.45 381.376 76.93 375.808 65.795 C 374.671 63.521 371.413 63.516 370.274 65.795 C 364.659 77.026 364.793 76.484 364.793 77.493 L 364.793 77.493 C 364.793 80.341 368.486 82.649 373.042 82.649 C 377.598 82.649 381.291 80.341 381.291 77.493 Z M 373.042 67.181 L 377.682 76.462 L 368.401 76.462 L 373.042 67.181 Z M 406.039 77.493 C 406.039 76.45 406.125 76.93 400.558 65.795 C 399.42 63.521 396.163 63.516 395.023 65.795 C 389.409 77.026 389.542 76.484 389.542 77.493 L 389.541 77.493 C 389.541 80.341 393.234 82.649 397.791 82.649 C 402.346 82.649 406.04 80.341 406.04 77.493 L 406.039 77.493 Z M 393.151 76.462 L 397.791 67.181 L 402.431 76.462 L 393.151 76.462 Z M 398.821 84.711 L 387.478 84.711 L 387.478 65.715 C 388.994 65.052 390.132 63.685 390.469 62.025 L 398.821 62.025 C 399.392 62.025 399.853 61.563 399.853 60.994 L 399.853 58.932 C 399.853 58.362 399.392 57.901 398.821 57.901 L 389.518 57.901 C 388.577 56.655 387.098 55.838 385.416 55.838 C 383.735 55.838 382.255 56.655 381.314 57.901 L 372.01 57.901 C 371.441 57.901 370.98 58.362 370.98 58.932 L 370.98 60.994 C 370.98 61.563 371.441 62.025 372.01 62.025 L 380.364 62.025 C 380.701 63.685 381.837 65.052 383.354 65.715 L 383.354 84.711 L 372.01 84.711 C 371.441 84.711 370.98 85.173 370.98 85.742 L 370.98 87.805 C 370.98 88.375 371.441 88.837 372.01 88.837 L 398.821 88.837 C 399.392 88.837 399.853 88.375 399.853 87.805 L 399.853 85.742 C 399.853 85.173 399.392 84.711 398.821 84.711 Z" style="paint-order: fill; fill-rule: evenodd; stroke: url(#color-1); stroke-width: 5px; vector-effect: non-scaling-stroke; stroke-opacity: 0.1;"/>
    <path d="M 61.792 82.027 L 61.792 61.143 C 61.792 60.139 61.19 59.537 60.185 59.537 L 39.703 59.537 C 36.29 59.537 33.679 62.147 33.679 65.561 L 33.679 85.641 C 33.679 89.056 36.29 91.666 39.703 91.666 L 60.185 91.666 C 60.988 91.666 61.792 91.063 61.792 90.059 L 61.792 89.056 C 61.792 88.654 61.591 88.252 61.19 87.851 C 60.988 86.846 60.988 84.035 61.19 83.232 C 61.591 83.031 61.792 82.63 61.792 82.027 Z M 42.715 68.573 C 42.715 68.018 43.166 67.569 43.719 67.569 L 46.732 67.569 L 46.732 64.557 C 46.732 64.003 47.181 63.553 47.736 63.553 L 49.744 63.553 C 50.299 63.553 50.748 64.003 50.748 64.557 L 50.748 67.569 L 53.76 67.569 C 54.314 67.569 54.764 68.018 54.764 68.573 L 54.764 70.581 C 54.764 71.137 54.314 71.585 53.76 71.585 L 50.748 71.585 L 50.748 78.613 C 50.748 79.168 50.299 79.618 49.744 79.618 L 47.736 79.618 C 47.181 79.618 46.732 79.168 46.732 78.613 L 46.732 71.585 L 43.719 71.585 C 43.166 71.585 42.715 71.137 42.715 70.581 L 42.715 68.573 Z M 57.575 87.65 L 39.703 87.65 C 38.499 87.65 37.695 86.846 37.695 85.641 C 37.695 84.437 38.7 83.634 39.703 83.634 L 57.575 83.634 L 57.575 87.65 Z" style="paint-order: fill; fill-rule: evenodd; stroke: url(#color-1); stroke-width: 5px; vector-effect: non-scaling-stroke; stroke-opacity: 0.1;"/>
    <path d="M 288.218 172.009 C 285.328 172.425 282.531 173.599 280.157 175.558 L 285.262 180.665 C 287.096 178.303 288.119 175.308 288.218 172.009 Z M 290.574 185.976 L 300.99 175.558 C 298.193 173.249 294.815 172.028 291.392 171.858 C 291.312 176.074 289.972 179.926 287.519 182.921 L 290.574 185.976 Z M 277.913 177.802 C 275.954 180.177 274.78 182.974 274.363 185.863 C 277.662 185.765 280.665 184.742 283.02 182.908 L 277.913 177.802 Z M 295.871 191.273 C 298.859 188.825 302.713 187.486 306.934 187.4 C 306.764 183.977 305.543 180.599 303.234 177.802 L 292.816 188.218 L 295.871 191.273 Z M 290.574 190.461 L 280.157 200.88 C 282.954 203.181 286.331 204.409 289.755 204.58 C 289.84 200.358 291.18 196.505 293.628 193.517 L 290.574 190.461 Z M 303.234 198.636 C 305.193 196.261 306.367 193.464 306.783 190.575 C 303.478 190.68 300.482 191.702 298.127 193.529 L 303.234 198.636 Z M 285.276 185.164 C 282.28 187.618 278.428 188.964 274.212 189.037 C 274.383 192.461 275.604 195.838 277.913 198.636 L 288.331 188.218 L 285.276 185.164 Z M 292.929 204.429 C 295.819 204.012 298.615 202.838 300.99 200.88 L 295.883 195.772 C 294.057 198.128 293.034 201.13 292.929 204.429 Z" style="paint-order: fill; fill-rule: evenodd; stroke: url(#color-1); stroke-width: 5px; vector-effect: non-scaling-stroke; stroke-opacity: 0.1;"/>
    <path d="M 230.58 145.84 L 225.597 145.84 L 224.213 142.378 C 222.79 138.818 219.393 136.519 215.559 136.519 L 204.99 136.519 C 201.157 136.519 197.759 138.818 196.336 142.378 L 194.952 145.84 L 189.969 145.84 C 189.319 145.84 188.842 146.451 189.001 147.08 L 189.5 149.078 C 189.611 149.523 190.01 149.835 190.469 149.835 L 192.139 149.835 C 191.021 150.811 190.302 152.23 190.302 153.829 L 190.302 157.823 C 190.302 159.165 190.814 160.376 191.633 161.313 L 191.633 165.814 C 191.633 167.284 192.825 168.477 194.296 168.477 L 196.959 168.477 C 198.43 168.477 199.622 167.284 199.622 165.814 L 199.622 163.15 L 220.927 163.15 L 220.927 165.814 C 220.927 167.284 222.12 168.477 223.59 168.477 L 226.254 168.477 C 227.724 168.477 228.916 167.284 228.916 165.814 L 228.916 161.313 C 229.735 160.378 230.248 159.166 230.248 157.823 L 230.248 153.829 C 230.248 152.23 229.528 150.811 228.412 149.835 L 230.081 149.835 C 230.541 149.835 230.94 149.523 231.051 149.078 L 231.55 147.08 C 231.707 146.451 231.23 145.84 230.58 145.84 Z M 201.281 144.356 C 201.887 142.84 203.356 141.845 204.99 141.845 L 215.559 141.845 C 217.194 141.845 218.662 142.84 219.269 144.356 L 220.927 148.503 L 199.622 148.503 L 201.281 144.356 Z M 196.959 157.808 C 195.361 157.808 194.296 156.745 194.296 155.153 C 194.296 153.559 195.361 152.498 196.959 152.498 C 198.557 152.498 200.954 154.887 200.954 156.48 C 200.954 158.073 198.557 157.808 196.959 157.808 Z M 223.59 157.808 C 221.992 157.808 219.596 158.073 219.596 156.48 C 219.596 154.887 221.992 152.498 223.59 152.498 C 225.187 152.498 226.254 153.559 226.254 155.153 C 226.254 156.745 225.187 157.808 223.59 157.808 Z" style="paint-order: fill; fill-rule: evenodd; stroke: url(#color-1); stroke-width: 5px; vector-effect: non-scaling-stroke; stroke-opacity: 0.1;"/>
    <path d="M 411.933 159.811 C 411.947 159.689 411.984 159.573 411.984 159.451 C 411.984 157.176 410.135 155.327 407.861 155.327 C 407.048 155.327 406.3 155.572 405.663 155.971 C 404.529 153.471 402.023 151.718 399.097 151.718 C 395.114 151.718 391.88 154.946 391.88 158.935 C 391.88 159.128 391.925 159.309 391.938 159.495 C 388.741 159.734 386.208 162.377 386.208 165.637 C 386.208 169.052 388.979 171.823 392.395 171.823 L 409.922 171.823 C 413.338 171.823 416.108 169.052 416.108 165.637 C 416.108 162.924 414.356 160.649 411.933 159.811 Z M 384.199 158.355 C 381.383 155.54 381.383 150.964 384.199 148.155 C 387.015 145.339 391.59 145.339 394.405 148.155 C 395.031 148.78 395.495 149.502 395.843 150.263 C 396.475 150.024 397.139 149.876 397.821 149.779 L 399.741 144.05 C 399.998 143.283 399.271 142.562 398.504 142.813 L 392.846 144.701 L 390.172 139.366 C 389.818 138.645 388.788 138.645 388.426 139.366 L 385.758 144.701 L 380.094 142.813 C 379.333 142.562 378.605 143.29 378.856 144.05 L 380.744 149.708 L 375.409 152.382 C 374.688 152.742 374.688 153.768 375.409 154.128 L 380.744 156.797 L 378.856 162.454 C 378.599 163.22 379.327 163.941 380.094 163.692 L 384.998 162.06 C 385.391 161.261 385.9 160.532 386.519 159.902 C 385.674 159.553 384.883 159.038 384.199 158.355 Z M 383.889 153.252 C 383.889 155.881 385.777 158.072 388.265 158.555 C 388.781 158.253 389.315 157.989 389.889 157.801 C 390.236 154.946 391.886 152.486 394.232 151.035 C 393.381 149.161 391.493 147.846 389.302 147.846 C 386.319 147.846 383.889 150.269 383.889 153.252 Z" style="paint-order: fill; fill-rule: evenodd; stroke: url(#color-1); stroke-width: 5px; vector-effect: non-scaling-stroke; stroke-opacity: 0.1;"/>
    <path d="M 49.014 337.228 C 49.014 345.748 42.108 352.654 33.588 352.654 C 25.069 352.654 18.163 345.748 18.163 337.228 C 18.163 328.708 25.069 321.802 33.588 321.802 C 42.108 321.802 49.014 328.708 49.014 337.228 Z M 46.028 337.228 L 46.028 337.211 L 44.407 338.624 L 40.509 334.986 L 41.532 329.739 L 43.666 329.929 C 42.117 327.803 39.933 326.193 37.401 325.381 L 38.251 327.368 L 33.588 329.95 L 28.926 327.368 L 29.776 325.381 C 27.249 326.191 25.062 327.798 23.512 329.929 L 25.661 329.739 L 26.668 334.986 L 22.771 338.624 L 21.149 337.211 L 21.149 337.228 C 21.149 339.903 21.988 342.45 23.542 344.567 L 24.021 342.458 L 29.316 343.108 L 31.574 347.949 L 29.714 349.055 C 32.215 349.871 34.957 349.873 37.463 349.055 L 35.603 347.949 L 37.861 343.108 L 43.156 342.458 L 43.635 344.567 C 45.189 342.45 46.028 339.903 46.028 337.228 Z M 30.596 341.555 L 28.737 335.875 L 33.588 332.359 L 38.44 335.875 L 36.598 341.555 L 30.596 341.555 Z" style="paint-order: fill; fill-rule: evenodd; stroke: url(#color-1); stroke-width: 5px; vector-effect: non-scaling-stroke; stroke-opacity: 0.1;"/>
    <path d="M 45.824 250.855 L 41.144 239.853 C 40.146 237.094 37.768 235.099 34.915 234.55 C 36.121 233.839 38.017 232.145 37.205 229.039 C 37.118 228.702 36.73 228.508 36.403 228.629 L 22.861 233.698 C 14.089 236.853 11.684 244.588 11.684 255.295 L 11.684 260.733 C 11.684 261.919 12.642 262.876 13.827 262.876 L 29.646 262.876 C 31.238 262.876 32.277 261.202 31.56 259.775 L 28.828 254.304 L 28.828 254.259 C 25.774 254.022 23.163 252.203 21.843 249.596 C 21.736 249.389 21.783 249.135 21.951 248.973 L 22.761 248.163 C 23.022 247.902 23.471 247.983 23.625 248.325 C 24.616 250.581 26.852 252.168 29.478 252.168 C 30.629 252.168 31.687 251.827 32.611 251.284 L 35.692 255.562 C 36.094 256.125 36.743 256.455 37.434 256.455 L 40.802 256.455 C 41.371 256.455 41.914 256.225 42.315 255.825 L 45.349 253.159 C 45.944 252.549 46.133 251.646 45.824 250.855 Z M 33.65 243.589 C 32.759 243.589 32.043 242.874 32.043 241.982 C 32.043 241.092 32.759 240.375 33.65 240.375 C 34.54 240.375 35.257 241.092 35.257 241.982 C 35.257 242.874 34.54 243.589 33.65 243.589 Z" style="paint-order: fill; fill-rule: evenodd; stroke: url(#color-1); stroke-width: 5px; vector-effect: non-scaling-stroke; stroke-opacity: 0.1;"/>
    <path d="M 47.997 165.791 L 47.356 165.282 C 46.881 164.903 46.185 164.979 45.807 165.455 L 45.118 166.315 C 44.739 166.79 44.814 167.485 45.291 167.865 L 45.931 168.374 C 46.337 168.697 46.564 169.18 46.564 169.696 C 46.564 170.632 45.807 171.39 44.87 171.39 L 9.109 171.39 C 8.504 171.39 8.008 171.886 8.008 172.492 L 8.008 173.593 C 8.008 174.201 8.504 174.695 9.109 174.695 L 44.644 174.695 C 47.328 174.695 49.718 172.678 49.87 169.993 C 49.966 168.353 49.271 166.804 47.997 165.791 Z M 8.008 157.067 C 8.008 161.171 10.823 164.587 14.618 165.572 L 14.618 169.187 L 19.027 169.187 L 19.027 165.881 L 32.248 165.881 L 32.248 169.187 L 36.655 169.187 L 36.655 165.881 C 40.304 165.881 43.266 162.92 43.266 159.27 L 43.266 152.66 C 44.485 152.66 45.47 151.675 45.47 150.455 C 45.47 149.236 44.485 148.252 43.266 148.252 L 36.655 148.252 L 36.655 152.66 C 36.655 155.09 34.679 157.067 32.248 157.067 L 30.821 157.067 C 26.29 157.067 22.153 154.505 20.128 150.455 C 18.104 146.406 13.957 143.844 9.433 143.844 L 8.008 143.844 C 6.789 143.844 5.804 144.829 5.804 146.049 C 5.804 147.267 6.789 148.252 8.008 148.252 L 8.008 157.067 Z" style="paint-order: fill; fill-rule: evenodd; stroke: url(#color-1); stroke-width: 5px; vector-effect: non-scaling-stroke; stroke-opacity: 0.1;"/>
    <path d="M 143.559 250.95 C 145.253 250.95 146.627 249.575 146.627 247.882 C 146.627 246.187 145.253 244.813 143.559 244.813 C 141.866 244.813 140.491 246.187 140.491 247.882 C 140.491 249.575 141.866 250.95 143.559 250.95 Z M 148.226 273.712 C 147.624 273.111 146.652 273.111 146.059 273.712 C 145.285 274.486 144.108 274.697 143.176 274.268 L 134.495 269.781 L 137.64 265.064 C 138.451 263.849 138.292 262.219 137.255 261.189 L 134.674 258.601 L 127.834 255.206 C 127.648 256.479 128.051 257.764 128.965 258.684 L 133.766 263.491 L 130.832 267.89 L 118.182 261.349 C 117.434 260.967 116.507 261.254 116.117 262.008 C 115.728 262.762 116.022 263.689 116.775 264.072 L 141.828 277.016 C 142.587 277.368 143.393 277.535 144.199 277.535 C 145.681 277.535 147.138 276.96 148.226 275.873 C 148.819 275.278 148.819 274.307 148.226 273.712 Z M 123.616 250.668 L 122.879 252.106 C 123.801 252.574 124.874 252.42 125.616 251.8 L 128.634 253.296 C 128.627 253.302 128.627 253.308 128.621 253.315 L 135.939 256.945 L 138.01 256.114 L 138.419 257.336 C 138.675 258.109 139.226 258.741 139.955 259.106 L 143.668 260.959 C 144.685 261.464 145.905 261.055 146.41 260.046 C 146.915 259.036 146.506 257.808 145.496 257.303 L 142.166 255.636 L 141.073 252.362 C 140.555 250.815 138.458 248.744 135.671 249.856 L 130.48 251.934 L 126.485 249.952 C 126.505 249.025 126.025 248.124 125.15 247.677 L 124.44 249.064 L 124.427 249.064 L 122.228 248.617 C 122.113 248.592 121.991 248.629 121.909 248.724 C 121.787 248.866 121.8 249.076 121.941 249.199 L 123.616 250.668 Z" style="paint-order: fill; fill-rule: evenodd; stroke: url(#color-1); stroke-width: 5px; vector-effect: non-scaling-stroke; stroke-opacity: 0.1;"/>
    <path d="M 131.28 189.223 L 131.28 183.49 L 127.91 181.942 C 124.173 186.389 122.775 197.973 113.725 197.973 C 110.97 197.973 109.249 200.955 110.626 203.341 C 111.267 204.449 112.448 205.131 113.725 205.131 C 127.317 205.131 137.416 197.278 140.518 191.687 L 138.149 189.223 Z M 139.66 181.019 C 141.715 177.195 140.645 174.098 139.459 172.599 C 139.268 172.361 138.911 172.343 138.696 172.561 L 137.233 174.03 C 137.06 174.207 137.036 174.481 137.177 174.685 C 137.614 175.347 138.266 176.928 137.087 179.306 C 135.934 178.803 134.69 178.543 133.433 178.543 C 131.644 178.543 129.981 179.088 128.554 179.987 L 133.326 182.179 L 133.326 187.178 L 139.02 187.178 L 142.516 190.815 C 142.724 190.007 142.871 189.177 142.871 188.302 C 142.873 185.53 141.707 182.887 139.66 181.019 Z" style="paint-order: fill; fill-rule: evenodd; stroke: url(#color-1); stroke-width: 5px; vector-effect: non-scaling-stroke; stroke-opacity: 0.1;"/>
    <path d="M 111.971 349.045 C 106.504 349.045 98.75 357.498 98.75 362.834 C 98.75 365.238 100.596 366.674 103.69 366.674 C 107.054 366.674 109.274 364.947 111.971 364.947 C 114.693 364.947 116.919 366.674 120.253 366.674 C 123.346 366.674 125.193 365.238 125.193 362.834 C 125.193 357.498 117.44 349.045 111.971 349.045 Z M 101.83 348.177 C 101.114 345.791 98.907 344.245 96.902 344.725 C 94.897 345.205 93.852 347.527 94.568 349.913 C 95.284 352.299 97.491 353.845 99.496 353.365 C 101.501 352.885 102.545 350.563 101.83 348.177 Z M 107.664 346.747 C 109.794 346.184 110.86 343.307 110.045 340.318 C 109.229 337.327 106.842 335.358 104.711 335.92 C 102.58 336.479 101.514 339.358 102.33 342.348 C 103.145 345.337 105.533 347.307 107.664 346.747 Z M 127.041 344.726 C 125.036 344.246 122.83 345.792 122.113 348.178 C 121.397 350.564 122.441 352.886 124.447 353.366 C 126.452 353.846 128.657 352.3 129.375 349.913 C 130.09 347.528 129.046 345.205 127.041 344.726 Z M 116.279 346.747 C 118.41 347.306 120.797 345.337 121.614 342.348 C 122.429 339.358 121.362 336.48 119.232 335.92 C 117.102 335.357 114.713 337.327 113.898 340.318 C 113.083 343.307 114.15 346.184 116.279 346.747 Z" style="paint-order: fill; fill-rule: evenodd; stroke: url(#color-1); stroke-width: 5px; vector-effect: non-scaling-stroke; stroke-opacity: 0.1;"/>
    <path d="M 302.732 245.701 L 300.686 245.701 L 299.839 244.855 C 299.072 244.087 298.031 243.655 296.947 243.656 L 295.637 243.656 C 294.925 243.656 294.227 243.841 293.607 244.195 L 283.814 249.791 L 280.234 249.791 C 273.457 249.791 267.963 255.284 267.963 262.061 L 267.963 262.166 C 267.963 264.259 266.941 266.136 265.436 267.591 C 264.274 268.713 263.64 270.383 263.955 272.178 C 264.386 274.658 266.695 276.378 269.212 276.378 L 276.145 276.378 C 277.273 276.378 278.189 275.461 278.189 274.332 C 278.189 273.203 277.273 272.287 276.145 272.287 L 268.985 272.287 C 268.421 272.287 267.963 271.829 267.963 271.266 C 267.963 270.7 268.421 270.242 268.985 270.242 L 283.302 270.242 C 283.868 270.242 284.325 269.784 284.325 269.22 L 284.325 268.197 C 284.325 267.067 283.408 266.152 282.278 266.152 L 278.189 266.152 L 287.744 261.006 L 292.506 270.242 L 297.618 270.242 C 298.182 270.242 298.641 269.784 298.641 269.22 L 298.641 268.197 C 298.641 267.067 297.724 266.152 296.596 266.152 L 294.792 266.152 L 291.27 259.109 L 297.179 255.927 L 298.641 255.927 C 302.029 255.927 304.776 253.179 304.776 249.791 L 304.776 247.746 C 304.776 246.616 303.86 245.701 302.732 245.701 Z M 296.596 246.724 C 297.161 246.724 297.618 247.182 297.618 247.746 C 297.618 248.311 297.161 248.768 296.596 248.768 C 296.031 248.768 295.572 248.311 295.572 247.746 C 295.572 247.182 296.031 246.724 296.596 246.724 Z M 298.641 252.858 L 296.406 252.858 L 289.898 256.365 L 289.018 254.602 L 296.596 250.813 L 301.52 250.813 C 301.098 252.001 299.972 252.858 298.641 252.858 Z" style="paint-order: fill; fill-rule: evenodd; stroke: url(#color-1); stroke-width: 5px; vector-effect: non-scaling-stroke; stroke-opacity: 0.1;"/>
    <path d="M 194.771 322.606 L 193.094 322.606 C 192.63 322.606 192.255 322.981 192.255 323.445 L 192.255 330.997 L 195.611 330.997 L 195.611 323.445 C 195.611 322.981 195.235 322.606 194.771 322.606 Z M 199.806 322.606 L 198.128 322.606 C 197.664 322.606 197.289 322.981 197.289 323.445 L 197.289 330.997 L 200.646 330.997 L 200.646 323.445 C 200.646 322.981 200.27 322.606 199.806 322.606 Z M 209.876 322.606 L 208.197 322.606 C 207.734 322.606 207.358 322.981 207.358 323.445 L 207.358 330.997 L 210.714 330.997 L 210.714 323.445 C 210.714 322.981 210.338 322.606 209.876 322.606 Z M 214.91 322.606 L 213.231 322.606 C 212.768 322.606 212.393 322.981 212.393 323.445 L 212.393 330.997 L 215.748 330.997 L 215.748 323.445 C 215.748 322.981 215.373 322.606 214.91 322.606 Z M 219.105 320.928 C 220.031 320.928 220.783 320.177 220.783 319.25 C 220.783 318.324 219.105 315.894 219.105 315.894 C 219.105 315.894 217.426 318.324 217.426 319.25 C 217.426 320.177 218.178 320.928 219.105 320.928 Z M 214.07 320.928 C 214.997 320.928 215.748 320.177 215.748 319.25 C 215.748 318.324 214.07 315.894 214.07 315.894 C 214.07 315.894 212.393 318.324 212.393 319.25 C 212.393 320.177 213.144 320.928 214.07 320.928 Z M 209.036 320.928 C 209.963 320.928 210.714 320.177 210.714 319.25 C 210.714 318.324 209.036 315.894 209.036 315.894 C 209.036 315.894 207.358 318.324 207.358 319.25 C 207.358 320.177 208.11 320.928 209.036 320.928 Z M 204.001 320.928 C 204.929 320.928 205.68 320.177 205.68 319.25 C 205.68 318.324 204.001 315.894 204.001 315.894 C 204.001 315.894 202.323 318.324 202.323 319.25 C 202.323 320.177 203.075 320.928 204.001 320.928 Z M 198.967 320.928 C 199.894 320.928 200.646 320.177 200.646 319.25 C 200.646 318.324 198.967 315.894 198.967 315.894 C 198.967 315.894 197.289 318.324 197.289 319.25 C 197.289 320.177 198.04 320.928 198.967 320.928 Z M 193.932 320.928 C 194.86 320.928 195.611 320.177 195.611 319.25 C 195.611 318.324 193.932 315.894 193.932 315.894 C 193.932 315.894 192.255 318.324 192.255 319.25 C 192.255 320.177 193.006 320.928 193.932 320.928 Z M 188.898 320.928 C 189.825 320.928 190.577 320.177 190.577 319.25 C 190.577 318.324 188.898 315.894 188.898 315.894 C 188.898 315.894 187.22 318.324 187.22 319.25 C 187.22 320.177 187.972 320.928 188.898 320.928 Z M 217.426 330.997 C 217.426 331.924 216.675 332.675 215.748 332.675 L 205.68 332.675 L 205.68 323.445 C 205.68 322.981 205.304 322.606 204.84 322.606 L 203.163 322.606 C 202.699 322.606 202.323 322.981 202.323 323.445 L 202.323 332.675 L 192.255 332.675 C 191.328 332.675 190.577 331.924 190.577 330.997 L 190.577 323.445 C 190.577 322.981 190.201 322.606 189.737 322.606 L 188.059 322.606 C 187.596 322.606 187.22 322.981 187.22 323.445 L 187.22 330.997 C 187.22 333.778 189.474 336.032 192.255 336.032 L 202.323 336.032 L 202.323 339.387 L 193.094 339.387 C 192.63 339.387 192.255 339.763 192.255 340.227 L 192.255 341.905 C 192.255 342.369 192.63 342.744 193.094 342.744 L 214.91 342.744 C 215.373 342.744 215.748 342.369 215.748 341.905 L 215.748 340.227 C 215.748 339.763 215.373 339.387 214.91 339.387 L 205.68 339.387 L 205.68 336.032 L 215.748 336.032 C 218.528 336.032 220.783 333.778 220.783 330.997 L 220.783 323.445 C 220.783 322.981 220.407 322.606 219.944 322.606 L 218.265 322.606 C 217.802 322.606 217.426 322.981 217.426 323.445 L 217.426 330.997 Z" style="paint-order: fill; fill-rule: evenodd; stroke: url(#color-1); stroke-width: 5px; vector-effect: non-scaling-stroke; stroke-opacity: 0.1;"/>
    <path d="M 408.963 236.613 L 408.884 236.613 C 409.941 227.406 400.635 220.508 392.134 224.195 C 387.271 226.305 384.36 231.347 384.965 236.613 L 384.886 236.613 C 381.796 236.613 379.867 239.958 381.411 242.632 C 382.128 243.875 383.453 244.639 384.886 244.639 L 408.963 244.639 C 412.052 244.639 413.982 241.294 412.437 238.619 C 411.721 237.378 410.396 236.613 408.963 236.613 Z M 394.532 264.509 C 395.381 266.351 397.907 266.582 399.077 264.925 C 399.17 264.794 399.25 264.655 399.317 264.509 L 407.625 247.314 L 386.223 247.314 Z" style="paint-order: fill; fill-rule: evenodd; stroke: url(#color-1); stroke-width: 5px; vector-effect: non-scaling-stroke; stroke-opacity: 0.1;"/>
    <path d="M 287.145 348.386 L 281.624 344.936 C 281.089 344.601 280.358 344.791 280.097 345.365 C 279.239 347.242 278.731 349.259 278.6 351.317 C 278.56 351.924 279.069 352.432 279.676 352.432 L 286.151 352.432 C 286.682 352.432 287.091 352.015 287.153 351.488 C 287.225 350.866 287.369 350.266 287.568 349.692 C 287.739 349.203 287.585 348.661 287.145 348.386 Z M 299.834 335.898 C 298.489 335.553 297.083 335.365 295.631 335.365 C 294.18 335.365 292.773 335.553 291.429 335.898 C 290.817 336.054 290.501 336.738 290.736 337.324 L 293.234 344.259 C 293.386 344.682 293.788 344.965 294.238 344.966 L 297.024 344.966 C 297.474 344.966 297.875 344.683 298.028 344.259 L 300.526 337.324 C 300.761 336.738 300.444 336.055 299.834 335.898 Z M 286.03 354.566 L 279.63 354.566 C 279.04 354.566 278.563 355.043 278.563 355.633 L 278.563 359.899 C 278.563 360.488 279.04 360.966 279.63 360.966 L 286.03 360.966 C 286.62 360.966 287.097 360.488 287.097 359.899 L 287.097 355.633 C 287.097 355.043 286.62 354.566 286.03 354.566 Z M 286.03 363.099 L 279.63 363.099 C 279.04 363.099 278.563 363.577 278.563 364.167 L 278.563 368.433 C 278.563 369.022 279.04 369.5 279.63 369.5 L 286.03 369.5 C 286.62 369.5 287.097 369.022 287.097 368.433 L 287.097 364.167 C 287.097 363.577 286.62 363.099 286.03 363.099 Z M 291.185 344.188 L 288.763 338.133 C 288.528 337.545 287.822 337.267 287.268 337.579 C 285.447 338.608 283.829 339.962 282.494 341.573 C 282.091 342.061 282.238 342.804 282.776 343.141 L 288.304 346.595 C 288.739 346.867 289.282 346.771 289.645 346.41 C 289.991 346.067 290.365 345.753 290.764 345.473 C 291.183 345.179 291.374 344.662 291.185 344.188 Z M 305.11 352.432 L 311.586 352.432 C 312.193 352.432 312.702 351.924 312.662 351.317 C 312.53 349.259 312.023 347.242 311.165 345.365 C 310.903 344.791 310.173 344.601 309.637 344.936 L 304.116 348.386 C 303.676 348.661 303.523 349.203 303.694 349.692 C 303.894 350.266 304.037 350.867 304.109 351.488 C 304.171 352.015 304.58 352.432 305.11 352.432 Z M 308.767 341.573 C 307.432 339.962 305.815 338.608 303.993 337.579 C 303.44 337.267 302.734 337.545 302.498 338.133 L 300.076 344.188 C 299.886 344.662 300.078 345.179 300.496 345.472 C 300.897 345.753 301.271 346.065 301.615 346.41 C 301.979 346.77 302.522 346.866 302.956 346.595 L 308.486 343.14 C 309.024 342.804 309.171 342.061 308.767 341.573 Z M 311.631 354.566 L 305.231 354.566 C 304.641 354.566 304.164 355.043 304.164 355.633 L 304.164 359.899 C 304.164 360.488 304.641 360.966 305.231 360.966 L 311.631 360.966 C 312.221 360.966 312.698 360.488 312.698 359.899 L 312.698 355.633 C 312.698 355.043 312.221 354.566 311.631 354.566 Z M 311.631 363.099 L 305.231 363.099 C 304.641 363.099 304.164 363.577 304.164 364.167 L 304.164 368.433 C 304.164 369.022 304.641 369.5 305.231 369.5 L 311.631 369.5 C 312.221 369.5 312.698 369.022 312.698 368.433 L 312.698 364.167 C 312.698 363.577 312.221 363.099 311.631 363.099 Z M 294.564 347.207 L 294.564 366.833 C 294.564 367.128 294.802 367.367 295.097 367.367 L 296.165 367.367 C 296.459 367.367 296.698 367.128 296.698 366.833 L 296.698 347.207 C 296.349 347.147 295.996 347.099 295.631 347.099 C 295.266 347.099 294.913 347.147 294.564 347.207 Z M 290.297 349.974 L 290.297 366.833 C 290.297 367.128 290.536 367.367 290.831 367.367 L 291.897 367.367 C 292.192 367.367 292.43 367.128 292.43 366.833 L 292.43 347.989 C 291.579 348.486 290.841 349.154 290.297 349.974 Z M 298.831 347.989 L 298.831 366.833 C 298.831 367.128 299.069 367.367 299.365 367.367 L 300.431 367.367 C 300.725 367.367 300.964 367.128 300.964 366.833 L 300.964 349.974 C 300.421 349.154 299.683 348.486 298.831 347.989 Z" style="paint-order: fill; fill-rule: evenodd; stroke: url(#color-1); stroke-width: 5px; vector-effect: non-scaling-stroke; stroke-opacity: 0.1;"/>
    <path d="M 393.74 326.112 L 393.74 324.807 L 394.866 324.807 C 395.489 324.807 395.992 324.302 395.992 323.679 L 395.992 322.553 C 395.992 321.93 395.489 321.426 394.866 321.426 L 388.106 321.426 C 387.484 321.426 386.98 321.93 386.98 322.553 L 386.98 323.679 C 386.98 324.302 387.484 324.807 388.106 324.807 L 389.233 324.807 L 389.233 326.112 C 381.591 327.208 375.713 333.761 375.713 341.705 L 407.258 341.705 C 407.258 333.761 401.38 327.208 393.74 326.112 Z M 408.386 343.958 L 374.587 343.958 C 373.964 343.958 373.46 344.463 373.46 345.085 L 373.46 347.339 C 373.46 347.961 373.964 348.466 374.587 348.466 L 408.386 348.466 C 409.008 348.466 409.512 347.961 409.512 347.339 L 409.512 345.085 C 409.512 344.463 409.008 343.958 408.386 343.958 Z" style="paint-order: fill; fill-rule: evenodd; stroke: url(#color-1); stroke-width: 5px; vector-effect: non-scaling-stroke; stroke-opacity: 0.1;"/>
  </g>
  <g style="">
    <title>Icons</title>
    <path d="M 166.004 79.692 C 166.004 80.897 166.978 81.871 168.183 81.871 L 194.314 81.871 C 195.518 81.871 196.491 80.897 196.491 79.692 L 196.491 60.093 L 166.004 60.093 L 166.004 79.692 Z M 176.893 65.265 C 176.893 64.817 177.261 64.449 177.709 64.449 L 184.786 64.449 C 185.236 64.449 185.603 64.817 185.603 65.265 L 185.603 65.809 C 185.603 66.258 185.236 66.626 184.786 66.626 L 177.709 66.626 C 177.261 66.626 176.893 66.258 176.893 65.809 L 176.893 65.265 Z M 196.491 51.383 L 166.004 51.383 C 164.8 51.383 163.827 52.356 163.827 53.561 L 163.827 56.828 C 163.827 57.426 164.317 57.915 164.915 57.915 L 197.58 57.915 C 198.179 57.915 198.669 57.426 198.669 56.828 L 198.669 53.561 C 198.669 52.356 197.696 51.383 196.491 51.383 Z" style="paint-order: fill; fill-rule: evenodd; stroke: url(#color-1); stroke-width: 5px; vector-effect: non-scaling-stroke; fill: url(#color-0); stroke-opacity: 0.1;"/>
    <path d="M 301.449 47.779 C 300.708 46.612 299.012 46.286 297.912 47.163 C 294.277 50.064 291.965 54.394 291.965 59.241 L 308.732 59.241 L 301.449 47.779 Z M 324.451 52.952 L 321.307 52.952 C 318.995 52.952 317.116 54.832 317.116 57.144 L 317.116 61.337 L 291.965 61.337 C 291.965 64.65 293.472 67.65 295.914 69.897 C 293.648 70.48 291.965 72.516 291.965 74.959 C 291.965 77.856 294.309 80.2 297.204 80.2 C 300.1 80.2 302.445 77.856 302.445 74.959 C 302.445 74.377 302.327 73.833 302.157 73.308 C 303.571 73.695 305.078 73.911 306.636 73.911 C 308.195 73.911 309.707 73.695 311.115 73.308 C 310.94 73.833 310.827 74.377 310.827 74.959 C 310.827 77.856 313.172 80.2 316.068 80.2 C 318.963 80.2 321.307 77.856 321.307 74.959 C 321.307 72.516 319.625 70.48 317.358 69.897 C 319.8 67.65 321.307 64.65 321.307 61.337 L 321.307 57.144 L 324.451 57.144 C 325.027 57.144 325.499 56.673 325.499 56.096 L 325.499 54.001 C 325.499 53.424 325.027 52.952 324.451 52.952 Z M 297.204 77.055 C 296.051 77.055 295.109 76.113 295.109 74.959 C 295.109 73.806 296.051 72.864 297.204 72.864 C 298.358 72.864 299.3 73.806 299.3 74.959 C 299.3 76.113 298.358 77.055 297.204 77.055 Z M 318.163 74.959 C 318.163 76.113 317.221 77.055 316.068 77.055 C 314.914 77.055 313.972 76.113 313.972 74.959 C 313.972 73.806 314.914 72.864 316.068 72.864 C 317.221 72.864 318.163 73.806 318.163 74.959 Z" style="paint-order: fill; fill-rule: evenodd; stroke: url(#color-1); stroke-width: 5px; vector-effect: non-scaling-stroke; fill: url(#color-0); stroke-opacity: 0.1;"/>
    <path d="M 417.087 71.282 L 417.086 71.282 C 417.086 70.239 417.172 70.719 411.604 59.584 C 410.467 57.31 407.209 57.305 406.07 59.584 C 400.455 70.815 400.589 70.273 400.589 71.282 L 400.589 71.282 C 400.589 74.13 404.282 76.438 408.838 76.438 C 413.394 76.438 417.087 74.13 417.087 71.282 Z M 408.838 60.97 L 413.478 70.251 L 404.197 70.251 L 408.838 60.97 Z M 441.835 71.282 C 441.835 70.239 441.921 70.719 436.354 59.584 C 435.216 57.31 431.959 57.305 430.819 59.584 C 425.205 70.815 425.338 70.273 425.338 71.282 L 425.337 71.282 C 425.337 74.13 429.03 76.438 433.587 76.438 C 438.142 76.438 441.836 74.13 441.836 71.282 L 441.835 71.282 Z M 428.947 70.251 L 433.587 60.97 L 438.227 70.251 L 428.947 70.251 Z M 434.617 78.5 L 423.274 78.5 L 423.274 59.504 C 424.79 58.841 425.928 57.474 426.265 55.814 L 434.617 55.814 C 435.188 55.814 435.649 55.352 435.649 54.783 L 435.649 52.721 C 435.649 52.151 435.188 51.69 434.617 51.69 L 425.314 51.69 C 424.373 50.444 422.894 49.627 421.212 49.627 C 419.531 49.627 418.051 50.444 417.11 51.69 L 407.806 51.69 C 407.237 51.69 406.776 52.151 406.776 52.721 L 406.776 54.783 C 406.776 55.352 407.237 55.814 407.806 55.814 L 416.16 55.814 C 416.497 57.474 417.633 58.841 419.15 59.504 L 419.15 78.5 L 407.806 78.5 C 407.237 78.5 406.776 78.962 406.776 79.531 L 406.776 81.594 C 406.776 82.164 407.237 82.626 407.806 82.626 L 434.617 82.626 C 435.188 82.626 435.649 82.164 435.649 81.594 L 435.649 79.531 C 435.649 78.962 435.188 78.5 434.617 78.5 Z" style="paint-order: fill; fill-rule: evenodd; stroke: url(#color-1); stroke-width: 5px; vector-effect: non-scaling-stroke; fill: url(#color-0); stroke-opacity: 0.1;"/>
    <path d="M 97.588 75.816 L 97.588 54.932 C 97.588 53.928 96.986 53.326 95.981 53.326 L 75.499 53.326 C 72.086 53.326 69.475 55.936 69.475 59.35 L 69.475 79.43 C 69.475 82.845 72.086 85.455 75.499 85.455 L 95.981 85.455 C 96.784 85.455 97.588 84.852 97.588 83.848 L 97.588 82.845 C 97.588 82.443 97.387 82.041 96.986 81.64 C 96.784 80.635 96.784 77.824 96.986 77.021 C 97.387 76.82 97.588 76.419 97.588 75.816 Z M 78.511 62.362 C 78.511 61.807 78.962 61.358 79.515 61.358 L 82.528 61.358 L 82.528 58.346 C 82.528 57.792 82.977 57.342 83.532 57.342 L 85.54 57.342 C 86.095 57.342 86.544 57.792 86.544 58.346 L 86.544 61.358 L 89.556 61.358 C 90.11 61.358 90.56 61.807 90.56 62.362 L 90.56 64.37 C 90.56 64.926 90.11 65.374 89.556 65.374 L 86.544 65.374 L 86.544 72.402 C 86.544 72.957 86.095 73.407 85.54 73.407 L 83.532 73.407 C 82.977 73.407 82.528 72.957 82.528 72.402 L 82.528 65.374 L 79.515 65.374 C 78.962 65.374 78.511 64.926 78.511 64.37 L 78.511 62.362 Z M 93.371 81.439 L 75.499 81.439 C 74.295 81.439 73.491 80.635 73.491 79.43 C 73.491 78.226 74.496 77.423 75.499 77.423 L 93.371 77.423 L 93.371 81.439 Z" style="paint-order: fill; fill-rule: evenodd; stroke: url(#color-1); stroke-width: 5px; vector-effect: non-scaling-stroke; fill: url(#color-0); stroke-opacity: 0.1;"/>
    <path d="M 324.014 165.798 C 321.124 166.214 318.327 167.388 315.953 169.347 L 321.058 174.454 C 322.892 172.092 323.915 169.097 324.014 165.798 Z M 326.37 179.765 L 336.786 169.347 C 333.989 167.038 330.611 165.817 327.188 165.647 C 327.108 169.863 325.768 173.715 323.315 176.71 L 326.37 179.765 Z M 313.709 171.591 C 311.75 173.966 310.576 176.763 310.159 179.652 C 313.458 179.554 316.461 178.531 318.816 176.697 L 313.709 171.591 Z M 331.667 185.062 C 334.655 182.614 338.509 181.275 342.73 181.189 C 342.56 177.766 341.339 174.388 339.03 171.591 L 328.612 182.007 L 331.667 185.062 Z M 326.37 184.25 L 315.953 194.669 C 318.75 196.97 322.127 198.198 325.551 198.369 C 325.636 194.147 326.976 190.294 329.424 187.306 L 326.37 184.25 Z M 339.03 192.425 C 340.989 190.05 342.163 187.253 342.579 184.364 C 339.274 184.469 336.278 185.491 333.923 187.318 L 339.03 192.425 Z M 321.072 178.953 C 318.076 181.407 314.224 182.753 310.008 182.826 C 310.179 186.25 311.4 189.627 313.709 192.425 L 324.127 182.007 L 321.072 178.953 Z M 328.725 198.218 C 331.615 197.801 334.411 196.627 336.786 194.669 L 331.679 189.561 C 329.853 191.917 328.83 194.919 328.725 198.218 Z" style="paint-order: fill; fill-rule: evenodd; stroke: url(#color-1); stroke-width: 5px; vector-effect: non-scaling-stroke; fill: url(#color-0); stroke-opacity: 0.1;"/>
    <path d="M 266.376 139.629 L 261.393 139.629 L 260.009 136.167 C 258.586 132.607 255.189 130.308 251.355 130.308 L 240.786 130.308 C 236.953 130.308 233.555 132.607 232.132 136.167 L 230.748 139.629 L 225.765 139.629 C 225.115 139.629 224.638 140.24 224.797 140.869 L 225.296 142.867 C 225.407 143.312 225.806 143.624 226.265 143.624 L 227.935 143.624 C 226.817 144.6 226.098 146.019 226.098 147.618 L 226.098 151.612 C 226.098 152.954 226.61 154.165 227.429 155.102 L 227.429 159.603 C 227.429 161.073 228.621 162.266 230.092 162.266 L 232.755 162.266 C 234.226 162.266 235.418 161.073 235.418 159.603 L 235.418 156.939 L 256.723 156.939 L 256.723 159.603 C 256.723 161.073 257.916 162.266 259.386 162.266 L 262.05 162.266 C 263.52 162.266 264.712 161.073 264.712 159.603 L 264.712 155.102 C 265.531 154.167 266.044 152.955 266.044 151.612 L 266.044 147.618 C 266.044 146.019 265.324 144.6 264.208 143.624 L 265.877 143.624 C 266.337 143.624 266.736 143.312 266.847 142.867 L 267.346 140.869 C 267.503 140.24 267.026 139.629 266.376 139.629 Z M 237.077 138.145 C 237.683 136.629 239.152 135.634 240.786 135.634 L 251.355 135.634 C 252.99 135.634 254.458 136.629 255.065 138.145 L 256.723 142.292 L 235.418 142.292 L 237.077 138.145 Z M 232.755 151.597 C 231.157 151.597 230.092 150.534 230.092 148.942 C 230.092 147.348 231.157 146.287 232.755 146.287 C 234.353 146.287 236.75 148.676 236.75 150.269 C 236.75 151.862 234.353 151.597 232.755 151.597 Z M 259.386 151.597 C 257.788 151.597 255.392 151.862 255.392 150.269 C 255.392 148.676 257.788 146.287 259.386 146.287 C 260.983 146.287 262.05 147.348 262.05 148.942 C 262.05 150.534 260.983 151.597 259.386 151.597 Z" style="paint-order: fill; fill-rule: evenodd; stroke: url(#color-1); stroke-width: 5px; vector-effect: non-scaling-stroke; fill: url(#color-0); stroke-opacity: 0.1;"/>
    <path d="M 447.729 153.6 C 447.743 153.478 447.78 153.362 447.78 153.24 C 447.78 150.965 445.931 149.116 443.657 149.116 C 442.844 149.116 442.096 149.361 441.459 149.76 C 440.325 147.26 437.819 145.507 434.893 145.507 C 430.91 145.507 427.676 148.735 427.676 152.724 C 427.676 152.917 427.721 153.098 427.734 153.284 C 424.537 153.523 422.004 156.166 422.004 159.426 C 422.004 162.841 424.775 165.612 428.191 165.612 L 445.718 165.612 C 449.134 165.612 451.904 162.841 451.904 159.426 C 451.904 156.713 450.152 154.438 447.729 153.6 Z M 419.995 152.144 C 417.179 149.329 417.179 144.753 419.995 141.944 C 422.811 139.128 427.386 139.128 430.201 141.944 C 430.827 142.569 431.291 143.291 431.639 144.052 C 432.271 143.813 432.935 143.665 433.617 143.568 L 435.537 137.839 C 435.794 137.072 435.067 136.351 434.3 136.602 L 428.642 138.49 L 425.968 133.155 C 425.614 132.434 424.584 132.434 424.222 133.155 L 421.554 138.49 L 415.89 136.602 C 415.129 136.351 414.401 137.079 414.652 137.839 L 416.54 143.497 L 411.205 146.171 C 410.484 146.531 410.484 147.557 411.205 147.917 L 416.54 150.586 L 414.652 156.243 C 414.395 157.009 415.123 157.73 415.89 157.481 L 420.794 155.849 C 421.187 155.05 421.696 154.321 422.315 153.691 C 421.47 153.342 420.679 152.827 419.995 152.144 Z M 419.685 147.041 C 419.685 149.67 421.573 151.861 424.061 152.344 C 424.577 152.042 425.111 151.778 425.685 151.59 C 426.032 148.735 427.682 146.275 430.028 144.824 C 429.177 142.95 427.289 141.635 425.098 141.635 C 422.115 141.635 419.685 144.058 419.685 147.041 Z" style="paint-order: fill; fill-rule: evenodd; stroke: url(#color-1); stroke-width: 5px; vector-effect: non-scaling-stroke; fill: url(#color-0); stroke-opacity: 0.1;"/>
    <path d="M 84.81 331.017 C 84.81 339.537 77.904 346.443 69.384 346.443 C 60.865 346.443 53.959 339.537 53.959 331.017 C 53.959 322.497 60.865 315.591 69.384 315.591 C 77.904 315.591 84.81 322.497 84.81 331.017 Z M 81.824 331.017 L 81.824 331 L 80.203 332.413 L 76.305 328.775 L 77.328 323.528 L 79.462 323.718 C 77.913 321.592 75.729 319.982 73.197 319.17 L 74.047 321.157 L 69.384 323.739 L 64.722 321.157 L 65.572 319.17 C 63.045 319.98 60.858 321.587 59.308 323.718 L 61.457 323.528 L 62.464 328.775 L 58.567 332.413 L 56.945 331 L 56.945 331.017 C 56.945 333.692 57.784 336.239 59.338 338.356 L 59.817 336.247 L 65.112 336.897 L 67.37 341.738 L 65.51 342.844 C 68.011 343.66 70.753 343.662 73.259 342.844 L 71.399 341.738 L 73.657 336.897 L 78.952 336.247 L 79.431 338.356 C 80.985 336.239 81.824 333.692 81.824 331.017 Z M 66.392 335.344 L 64.533 329.664 L 69.384 326.148 L 74.236 329.664 L 72.394 335.344 L 66.392 335.344 Z" style="paint-order: fill; fill-rule: evenodd; stroke: url(#color-1); stroke-width: 5px; vector-effect: non-scaling-stroke; fill: url(#color-0); stroke-opacity: 0.1;"/>
    <path d="M 81.62 244.644 L 76.94 233.642 C 75.942 230.883 73.564 228.888 70.711 228.339 C 71.917 227.628 73.813 225.934 73.001 222.828 C 72.914 222.491 72.526 222.297 72.199 222.418 L 58.657 227.487 C 49.885 230.642 47.48 238.377 47.48 249.084 L 47.48 254.522 C 47.48 255.708 48.438 256.665 49.623 256.665 L 65.442 256.665 C 67.034 256.665 68.073 254.991 67.356 253.564 L 64.624 248.093 L 64.624 248.048 C 61.57 247.811 58.959 245.992 57.639 243.385 C 57.532 243.178 57.579 242.924 57.747 242.762 L 58.557 241.952 C 58.818 241.691 59.267 241.772 59.421 242.114 C 60.412 244.37 62.648 245.957 65.274 245.957 C 66.425 245.957 67.483 245.616 68.407 245.073 L 71.488 249.351 C 71.89 249.914 72.539 250.244 73.23 250.244 L 76.598 250.244 C 77.167 250.244 77.71 250.014 78.111 249.614 L 81.145 246.948 C 81.74 246.338 81.929 245.435 81.62 244.644 Z M 69.446 237.378 C 68.555 237.378 67.839 236.663 67.839 235.771 C 67.839 234.881 68.555 234.164 69.446 234.164 C 70.336 234.164 71.053 234.881 71.053 235.771 C 71.053 236.663 70.336 237.378 69.446 237.378 Z" style="paint-order: fill; fill-rule: evenodd; stroke: url(#color-1); stroke-width: 5px; vector-effect: non-scaling-stroke; fill: url(#color-0); stroke-opacity: 0.1;"/>
    <path d="M 83.793 159.58 L 83.152 159.071 C 82.677 158.692 81.981 158.768 81.603 159.244 L 80.914 160.104 C 80.535 160.579 80.61 161.274 81.087 161.654 L 81.727 162.163 C 82.133 162.486 82.36 162.969 82.36 163.485 C 82.36 164.421 81.603 165.179 80.666 165.179 L 44.905 165.179 C 44.3 165.179 43.804 165.675 43.804 166.281 L 43.804 167.382 C 43.804 167.99 44.3 168.484 44.905 168.484 L 80.44 168.484 C 83.124 168.484 85.514 166.467 85.666 163.782 C 85.762 162.142 85.067 160.593 83.793 159.58 Z M 43.804 150.856 C 43.804 154.96 46.619 158.376 50.414 159.361 L 50.414 162.976 L 54.823 162.976 L 54.823 159.67 L 68.044 159.67 L 68.044 162.976 L 72.451 162.976 L 72.451 159.67 C 76.1 159.67 79.062 156.709 79.062 153.059 L 79.062 146.449 C 80.281 146.449 81.266 145.464 81.266 144.244 C 81.266 143.025 80.281 142.041 79.062 142.041 L 72.451 142.041 L 72.451 146.449 C 72.451 148.879 70.475 150.856 68.044 150.856 L 66.617 150.856 C 62.086 150.856 57.949 148.294 55.924 144.244 C 53.9 140.195 49.753 137.633 45.229 137.633 L 43.804 137.633 C 42.585 137.633 41.6 138.618 41.6 139.838 C 41.6 141.056 42.585 142.041 43.804 142.041 L 43.804 150.856 Z" style="paint-order: fill; fill-rule: evenodd; stroke: url(#color-1); stroke-width: 5px; vector-effect: non-scaling-stroke; fill: url(#color-0); stroke-opacity: 0.1;"/>
    <path d="M 179.355 244.739 C 181.049 244.739 182.423 243.364 182.423 241.671 C 182.423 239.976 181.049 238.602 179.355 238.602 C 177.662 238.602 176.287 239.976 176.287 241.671 C 176.287 243.364 177.662 244.739 179.355 244.739 Z M 184.022 267.501 C 183.42 266.9 182.448 266.9 181.855 267.501 C 181.081 268.275 179.904 268.486 178.972 268.057 L 170.291 263.57 L 173.436 258.853 C 174.247 257.638 174.088 256.008 173.051 254.978 L 170.47 252.39 L 163.63 248.995 C 163.444 250.268 163.847 251.553 164.761 252.473 L 169.562 257.28 L 166.628 261.679 L 153.978 255.138 C 153.23 254.756 152.303 255.043 151.913 255.797 C 151.524 256.551 151.818 257.478 152.571 257.861 L 177.624 270.805 C 178.383 271.157 179.189 271.324 179.995 271.324 C 181.477 271.324 182.934 270.749 184.022 269.662 C 184.615 269.067 184.615 268.096 184.022 267.501 Z M 159.412 244.457 L 158.675 245.895 C 159.597 246.363 160.67 246.209 161.412 245.589 L 164.43 247.085 C 164.423 247.091 164.423 247.097 164.417 247.104 L 171.735 250.734 L 173.806 249.903 L 174.215 251.125 C 174.471 251.898 175.022 252.53 175.751 252.895 L 179.464 254.748 C 180.481 255.253 181.701 254.844 182.206 253.835 C 182.711 252.825 182.302 251.597 181.292 251.092 L 177.962 249.425 L 176.869 246.151 C 176.351 244.604 174.254 242.533 171.467 243.645 L 166.276 245.723 L 162.281 243.741 C 162.301 242.814 161.821 241.913 160.946 241.466 L 160.236 242.853 L 160.223 242.853 L 158.024 242.406 C 157.909 242.381 157.787 242.418 157.705 242.513 C 157.583 242.655 157.596 242.865 157.737 242.988 L 159.412 244.457 Z" style="paint-order: fill; fill-rule: evenodd; stroke: url(#color-1); stroke-width: 5px; vector-effect: non-scaling-stroke; fill: url(#color-0); stroke-opacity: 0.1;"/>
    <path d="M 167.076 183.012 L 167.076 177.279 L 163.706 175.731 C 159.969 180.178 158.571 191.762 149.521 191.762 C 146.766 191.762 145.045 194.744 146.422 197.13 C 147.063 198.238 148.244 198.92 149.521 198.92 C 163.113 198.92 173.212 191.067 176.314 185.476 L 173.945 183.012 Z M 175.456 174.808 C 177.511 170.984 176.441 167.887 175.255 166.388 C 175.064 166.15 174.707 166.132 174.492 166.35 L 173.029 167.819 C 172.856 167.996 172.832 168.27 172.973 168.474 C 173.41 169.136 174.062 170.717 172.883 173.095 C 171.73 172.592 170.486 172.332 169.229 172.332 C 167.44 172.332 165.777 172.877 164.35 173.776 L 169.122 175.968 L 169.122 180.967 L 174.816 180.967 L 178.312 184.604 C 178.52 183.796 178.667 182.966 178.667 182.091 C 178.669 179.319 177.503 176.676 175.456 174.808 Z" style="paint-order: fill; fill-rule: evenodd; stroke: url(#color-1); stroke-width: 5px; vector-effect: non-scaling-stroke; fill: url(#color-0); stroke-opacity: 0.1;"/>
    <path d="M 147.767 342.834 C 142.3 342.834 134.546 351.287 134.546 356.623 C 134.546 359.027 136.392 360.463 139.486 360.463 C 142.85 360.463 145.07 358.736 147.767 358.736 C 150.489 358.736 152.715 360.463 156.049 360.463 C 159.142 360.463 160.989 359.027 160.989 356.623 C 160.989 351.287 153.236 342.834 147.767 342.834 Z M 137.626 341.966 C 136.91 339.58 134.703 338.034 132.698 338.514 C 130.693 338.994 129.648 341.316 130.364 343.702 C 131.08 346.088 133.287 347.634 135.292 347.154 C 137.297 346.674 138.341 344.352 137.626 341.966 Z M 143.46 340.536 C 145.59 339.973 146.656 337.096 145.841 334.107 C 145.025 331.116 142.638 329.147 140.507 329.709 C 138.376 330.268 137.31 333.147 138.126 336.137 C 138.941 339.126 141.329 341.096 143.46 340.536 Z M 162.837 338.515 C 160.832 338.035 158.626 339.581 157.909 341.967 C 157.193 344.353 158.237 346.675 160.243 347.155 C 162.248 347.635 164.453 346.089 165.171 343.702 C 165.886 341.317 164.842 338.994 162.837 338.515 Z M 152.075 340.536 C 154.206 341.095 156.593 339.126 157.41 336.137 C 158.225 333.147 157.158 330.269 155.028 329.709 C 152.898 329.146 150.509 331.116 149.694 334.107 C 148.879 337.096 149.946 339.973 152.075 340.536 Z" style="paint-order: fill; fill-rule: evenodd; stroke: url(#color-1); stroke-width: 5px; vector-effect: non-scaling-stroke; fill: url(#color-0); stroke-opacity: 0.1;"/>
    <path d="M 338.528 239.49 L 336.482 239.49 L 335.635 238.644 C 334.868 237.876 333.827 237.444 332.743 237.445 L 331.433 237.445 C 330.721 237.445 330.023 237.63 329.403 237.984 L 319.61 243.58 L 316.03 243.58 C 309.253 243.58 303.759 249.073 303.759 255.85 L 303.759 255.955 C 303.759 258.048 302.737 259.925 301.232 261.38 C 300.07 262.502 299.436 264.172 299.751 265.967 C 300.182 268.447 302.491 270.167 305.008 270.167 L 311.941 270.167 C 313.069 270.167 313.985 269.25 313.985 268.121 C 313.985 266.992 313.069 266.076 311.941 266.076 L 304.781 266.076 C 304.217 266.076 303.759 265.618 303.759 265.055 C 303.759 264.489 304.217 264.031 304.781 264.031 L 319.098 264.031 C 319.664 264.031 320.121 263.573 320.121 263.009 L 320.121 261.986 C 320.121 260.856 319.204 259.941 318.074 259.941 L 313.985 259.941 L 323.54 254.795 L 328.302 264.031 L 333.414 264.031 C 333.978 264.031 334.437 263.573 334.437 263.009 L 334.437 261.986 C 334.437 260.856 333.52 259.941 332.392 259.941 L 330.588 259.941 L 327.066 252.898 L 332.975 249.716 L 334.437 249.716 C 337.825 249.716 340.572 246.968 340.572 243.58 L 340.572 241.535 C 340.572 240.405 339.656 239.49 338.528 239.49 Z M 332.392 240.513 C 332.957 240.513 333.414 240.971 333.414 241.535 C 333.414 242.1 332.957 242.557 332.392 242.557 C 331.827 242.557 331.368 242.1 331.368 241.535 C 331.368 240.971 331.827 240.513 332.392 240.513 Z M 334.437 246.647 L 332.202 246.647 L 325.694 250.154 L 324.814 248.391 L 332.392 244.602 L 337.316 244.602 C 336.894 245.79 335.768 246.647 334.437 246.647 Z" style="paint-order: fill; fill-rule: evenodd; stroke: url(#color-1); stroke-width: 5px; vector-effect: non-scaling-stroke; fill: url(#color-0); stroke-opacity: 0.1;"/>
    <path d="M 230.567 316.395 L 228.89 316.395 C 228.426 316.395 228.051 316.77 228.051 317.234 L 228.051 324.786 L 231.407 324.786 L 231.407 317.234 C 231.407 316.77 231.031 316.395 230.567 316.395 Z M 235.602 316.395 L 233.924 316.395 C 233.46 316.395 233.085 316.77 233.085 317.234 L 233.085 324.786 L 236.442 324.786 L 236.442 317.234 C 236.442 316.77 236.066 316.395 235.602 316.395 Z M 245.672 316.395 L 243.993 316.395 C 243.53 316.395 243.154 316.77 243.154 317.234 L 243.154 324.786 L 246.51 324.786 L 246.51 317.234 C 246.51 316.77 246.134 316.395 245.672 316.395 Z M 250.706 316.395 L 249.027 316.395 C 248.564 316.395 248.189 316.77 248.189 317.234 L 248.189 324.786 L 251.544 324.786 L 251.544 317.234 C 251.544 316.77 251.169 316.395 250.706 316.395 Z M 254.901 314.717 C 255.827 314.717 256.579 313.966 256.579 313.039 C 256.579 312.113 254.901 309.683 254.901 309.683 C 254.901 309.683 253.222 312.113 253.222 313.039 C 253.222 313.966 253.974 314.717 254.901 314.717 Z M 249.866 314.717 C 250.793 314.717 251.544 313.966 251.544 313.039 C 251.544 312.113 249.866 309.683 249.866 309.683 C 249.866 309.683 248.189 312.113 248.189 313.039 C 248.189 313.966 248.94 314.717 249.866 314.717 Z M 244.832 314.717 C 245.759 314.717 246.51 313.966 246.51 313.039 C 246.51 312.113 244.832 309.683 244.832 309.683 C 244.832 309.683 243.154 312.113 243.154 313.039 C 243.154 313.966 243.906 314.717 244.832 314.717 Z M 239.797 314.717 C 240.725 314.717 241.476 313.966 241.476 313.039 C 241.476 312.113 239.797 309.683 239.797 309.683 C 239.797 309.683 238.119 312.113 238.119 313.039 C 238.119 313.966 238.871 314.717 239.797 314.717 Z M 234.763 314.717 C 235.69 314.717 236.442 313.966 236.442 313.039 C 236.442 312.113 234.763 309.683 234.763 309.683 C 234.763 309.683 233.085 312.113 233.085 313.039 C 233.085 313.966 233.836 314.717 234.763 314.717 Z M 229.728 314.717 C 230.656 314.717 231.407 313.966 231.407 313.039 C 231.407 312.113 229.728 309.683 229.728 309.683 C 229.728 309.683 228.051 312.113 228.051 313.039 C 228.051 313.966 228.802 314.717 229.728 314.717 Z M 224.694 314.717 C 225.621 314.717 226.373 313.966 226.373 313.039 C 226.373 312.113 224.694 309.683 224.694 309.683 C 224.694 309.683 223.016 312.113 223.016 313.039 C 223.016 313.966 223.768 314.717 224.694 314.717 Z M 253.222 324.786 C 253.222 325.713 252.471 326.464 251.544 326.464 L 241.476 326.464 L 241.476 317.234 C 241.476 316.77 241.1 316.395 240.636 316.395 L 238.959 316.395 C 238.495 316.395 238.119 316.77 238.119 317.234 L 238.119 326.464 L 228.051 326.464 C 227.124 326.464 226.373 325.713 226.373 324.786 L 226.373 317.234 C 226.373 316.77 225.997 316.395 225.533 316.395 L 223.855 316.395 C 223.392 316.395 223.016 316.77 223.016 317.234 L 223.016 324.786 C 223.016 327.567 225.27 329.821 228.051 329.821 L 238.119 329.821 L 238.119 333.176 L 228.89 333.176 C 228.426 333.176 228.051 333.552 228.051 334.016 L 228.051 335.694 C 228.051 336.158 228.426 336.533 228.89 336.533 L 250.706 336.533 C 251.169 336.533 251.544 336.158 251.544 335.694 L 251.544 334.016 C 251.544 333.552 251.169 333.176 250.706 333.176 L 241.476 333.176 L 241.476 329.821 L 251.544 329.821 C 254.324 329.821 256.579 327.567 256.579 324.786 L 256.579 317.234 C 256.579 316.77 256.203 316.395 255.74 316.395 L 254.061 316.395 C 253.598 316.395 253.222 316.77 253.222 317.234 L 253.222 324.786 Z" style="paint-order: fill; fill-rule: evenodd; stroke: url(#color-1); stroke-width: 5px; vector-effect: non-scaling-stroke; fill: url(#color-0); stroke-opacity: 0.1;"/>
    <path d="M 444.759 230.402 L 444.68 230.402 C 445.737 221.195 436.431 214.297 427.93 217.984 C 423.067 220.094 420.156 225.136 420.761 230.402 L 420.682 230.402 C 417.592 230.402 415.663 233.747 417.207 236.421 C 417.924 237.664 419.249 238.428 420.682 238.428 L 444.759 238.428 C 447.848 238.428 449.778 235.083 448.233 232.408 C 447.517 231.167 446.192 230.402 444.759 230.402 Z M 430.328 258.298 C 431.177 260.14 433.703 260.371 434.873 258.714 C 434.966 258.583 435.046 258.444 435.113 258.298 L 443.421 241.103 L 422.019 241.103 Z" style="paint-order: fill; fill-rule: evenodd; stroke: url(#color-1); stroke-width: 5px; vector-effect: non-scaling-stroke; fill: url(#color-0); stroke-opacity: 0.1;"/>
    <path d="M 322.941 342.175 L 317.42 338.725 C 316.885 338.39 316.154 338.58 315.893 339.154 C 315.035 341.031 314.527 343.048 314.396 345.106 C 314.356 345.713 314.865 346.221 315.472 346.221 L 321.947 346.221 C 322.478 346.221 322.887 345.804 322.949 345.277 C 323.021 344.655 323.165 344.055 323.364 343.481 C 323.535 342.992 323.381 342.45 322.941 342.175 Z M 335.63 329.687 C 334.285 329.342 332.879 329.154 331.427 329.154 C 329.976 329.154 328.569 329.342 327.225 329.687 C 326.613 329.843 326.297 330.527 326.532 331.113 L 329.03 338.048 C 329.182 338.471 329.584 338.754 330.034 338.755 L 332.82 338.755 C 333.27 338.755 333.671 338.472 333.824 338.048 L 336.322 331.113 C 336.557 330.527 336.24 329.844 335.63 329.687 Z M 321.826 348.355 L 315.426 348.355 C 314.836 348.355 314.359 348.832 314.359 349.422 L 314.359 353.688 C 314.359 354.277 314.836 354.755 315.426 354.755 L 321.826 354.755 C 322.416 354.755 322.893 354.277 322.893 353.688 L 322.893 349.422 C 322.893 348.832 322.416 348.355 321.826 348.355 Z M 321.826 356.888 L 315.426 356.888 C 314.836 356.888 314.359 357.366 314.359 357.956 L 314.359 362.222 C 314.359 362.811 314.836 363.289 315.426 363.289 L 321.826 363.289 C 322.416 363.289 322.893 362.811 322.893 362.222 L 322.893 357.956 C 322.893 357.366 322.416 356.888 321.826 356.888 Z M 326.981 337.977 L 324.559 331.922 C 324.324 331.334 323.618 331.056 323.064 331.368 C 321.243 332.397 319.625 333.751 318.29 335.362 C 317.887 335.85 318.034 336.593 318.572 336.93 L 324.1 340.384 C 324.535 340.656 325.078 340.56 325.441 340.199 C 325.787 339.856 326.161 339.542 326.56 339.262 C 326.979 338.968 327.17 338.451 326.981 337.977 Z M 340.906 346.221 L 347.382 346.221 C 347.989 346.221 348.498 345.713 348.458 345.106 C 348.326 343.048 347.819 341.031 346.961 339.154 C 346.699 338.58 345.969 338.39 345.433 338.725 L 339.912 342.175 C 339.472 342.45 339.319 342.992 339.49 343.481 C 339.69 344.055 339.833 344.656 339.905 345.277 C 339.967 345.804 340.376 346.221 340.906 346.221 Z M 344.563 335.362 C 343.228 333.751 341.611 332.397 339.789 331.368 C 339.236 331.056 338.53 331.334 338.294 331.922 L 335.872 337.977 C 335.682 338.451 335.874 338.968 336.292 339.261 C 336.693 339.542 337.067 339.854 337.411 340.199 C 337.775 340.559 338.318 340.655 338.752 340.384 L 344.282 336.929 C 344.82 336.593 344.967 335.85 344.563 335.362 Z M 347.427 348.355 L 341.027 348.355 C 340.437 348.355 339.96 348.832 339.96 349.422 L 339.96 353.688 C 339.96 354.277 340.437 354.755 341.027 354.755 L 347.427 354.755 C 348.017 354.755 348.494 354.277 348.494 353.688 L 348.494 349.422 C 348.494 348.832 348.017 348.355 347.427 348.355 Z M 347.427 356.888 L 341.027 356.888 C 340.437 356.888 339.96 357.366 339.96 357.956 L 339.96 362.222 C 339.96 362.811 340.437 363.289 341.027 363.289 L 347.427 363.289 C 348.017 363.289 348.494 362.811 348.494 362.222 L 348.494 357.956 C 348.494 357.366 348.017 356.888 347.427 356.888 Z M 330.36 340.996 L 330.36 360.622 C 330.36 360.917 330.598 361.156 330.893 361.156 L 331.961 361.156 C 332.255 361.156 332.494 360.917 332.494 360.622 L 332.494 340.996 C 332.145 340.936 331.792 340.888 331.427 340.888 C 331.062 340.888 330.709 340.936 330.36 340.996 Z M 326.093 343.763 L 326.093 360.622 C 326.093 360.917 326.332 361.156 326.627 361.156 L 327.693 361.156 C 327.988 361.156 328.226 360.917 328.226 360.622 L 328.226 341.778 C 327.375 342.275 326.637 342.943 326.093 343.763 Z M 334.627 341.778 L 334.627 360.622 C 334.627 360.917 334.865 361.156 335.161 361.156 L 336.227 361.156 C 336.521 361.156 336.76 360.917 336.76 360.622 L 336.76 343.763 C 336.217 342.943 335.479 342.275 334.627 341.778 Z" style="paint-order: fill; fill-rule: evenodd; stroke: url(#color-1); stroke-width: 5px; vector-effect: non-scaling-stroke; fill: url(#color-0); stroke-opacity: 0.1;"/>
    <path d="M 429.536 319.901 L 429.536 318.596 L 430.662 318.596 C 431.285 318.596 431.788 318.091 431.788 317.468 L 431.788 316.342 C 431.788 315.719 431.285 315.215 430.662 315.215 L 423.902 315.215 C 423.28 315.215 422.776 315.719 422.776 316.342 L 422.776 317.468 C 422.776 318.091 423.28 318.596 423.902 318.596 L 425.029 318.596 L 425.029 319.901 C 417.387 320.997 411.509 327.55 411.509 335.494 L 443.054 335.494 C 443.054 327.55 437.176 320.997 429.536 319.901 Z M 444.182 337.747 L 410.383 337.747 C 409.76 337.747 409.256 338.252 409.256 338.874 L 409.256 341.128 C 409.256 341.75 409.76 342.255 410.383 342.255 L 444.182 342.255 C 444.804 342.255 445.308 341.75 445.308 341.128 L 445.308 338.874 C 445.308 338.252 444.804 337.747 444.182 337.747 Z" style="paint-order: fill; fill-rule: evenodd; stroke: url(#color-1); stroke-width: 5px; vector-effect: non-scaling-stroke; fill: url(#color-0); stroke-opacity: 0.1;"/>
  </g>
</svg>